{"glyphs":{"0":{"ha":779,"x_min":64,"x_max":715,"o":"m 64 310 l 64 697 q 152 939 64 863 q 389 1015 240 1015 q 626 939 538 1015 q 715 697 715 863 l 715 310 q 626 68 715 144 q 389 -8 538 -8 q 152 68 240 -8 q 64 310 64 144 m 244 310 q 389 150 244 150 q 535 310 535 150 l 535 697 q 389 857 535 857 q 244 697 244 857 l 244 310 m 343 456 q 334 465 343 456 q 325 503 325 474 q 342 549 325 532 q 390 567 360 567 q 437 549 419 567 q 454 503 454 532 q 437 456 454 474 q 390 438 419 438 q 343 456 361 438 z "},"1":{"ha":400,"x_min":4,"x_max":321,"o":"m 4 814 q 39 879 4 857 l 203 1004 q 240 1018 219 1018 q 296 1001 271 1018 q 321 960 321 985 l 321 57 q 294 15 321 31 q 231 0 267 0 q 167 15 193 0 q 140 57 140 31 l 140 799 l 96 754 q 63 742 82 742 q 21 764 38 742 q 4 814 4 786 z "},"2":{"ha":704,"x_min":38,"x_max":668,"o":"m 38 57 l 38 192 q 83 313 38 253 q 194 421 129 372 l 328 517 q 439 619 393 565 q 485 728 485 674 q 452 814 485 776 q 356 851 419 851 q 267 821 301 851 q 232 729 232 790 q 206 683 232 703 q 138 663 181 663 q 56 760 56 663 q 144 944 56 874 q 354 1015 233 1015 q 573 938 481 1015 q 665 733 665 861 q 620 577 665 650 q 510 453 575 504 q 380 360 444 403 q 270 274 315 317 q 225 192 225 231 l 225 158 l 611 158 q 651 135 633 158 q 668 81 668 113 q 651 24 668 49 q 611 0 633 0 l 117 0 q 64 17 90 0 q 38 57 38 33 z "},"3":{"ha":724,"x_min":28,"x_max":681,"o":"m 28 244 q 47 300 28 285 q 114 315 67 315 q 188 301 168 315 q 207 251 207 286 q 246 177 207 204 q 351 150 285 150 q 465 185 429 150 q 500 300 500 221 l 500 326 q 347 458 500 458 q 293 529 293 458 q 347 600 293 600 q 442 627 408 600 q 475 736 475 654 q 353 858 475 858 q 229 765 229 858 q 143 696 229 696 q 67 712 85 696 q 50 774 50 728 q 65 853 50 814 q 113 931 81 893 q 208 992 146 968 q 354 1015 271 1015 q 647 767 647 1015 q 619 622 647 683 q 539 536 590 560 q 681 326 681 481 l 681 300 q 588 67 681 142 q 347 -8 496 -8 q 109 69 190 -8 q 28 244 28 147 z "},"4":{"ha":697,"x_min":-1,"x_max":696,"o":"m -1 285 q 8 321 -1 303 l 338 968 q 414 1015 360 1015 q 473 995 442 1015 q 504 946 504 975 q 497 922 504 936 l 231 389 l 393 389 l 393 535 q 419 577 393 563 q 483 592 446 592 q 547 577 521 592 q 574 535 574 563 l 574 389 l 639 389 q 681 364 665 389 q 696 304 696 339 q 678 247 696 272 q 639 221 661 221 l 574 221 l 574 57 q 547 15 574 31 q 483 0 521 0 q 420 15 447 0 q 393 57 393 31 l 393 221 l 60 221 q 16 238 33 221 q -1 285 -1 256 z "},"5":{"ha":707,"x_min":25,"x_max":676,"o":"m 25 243 q 47 307 25 289 q 115 325 69 325 q 187 307 168 325 q 206 256 206 289 q 246 178 206 206 q 349 150 286 150 q 496 304 496 150 l 496 331 q 458 447 496 408 q 350 486 419 486 l 144 486 q 88 504 104 486 q 72 557 72 522 q 73 574 72 563 q 74 593 74 586 l 110 958 q 144 1015 114 1015 l 572 1015 q 612 992 597 1015 q 626 936 626 968 q 612 881 626 904 q 572 857 597 857 l 260 857 l 243 628 l 350 628 q 588 556 499 628 q 676 331 676 485 l 676 304 q 588 67 676 143 q 353 -8 499 -8 q 113 66 201 -8 q 25 243 25 140 z "},"6":{"ha":763,"x_min":64,"x_max":715,"o":"m 64 310 l 64 697 q 155 939 64 863 q 399 1015 246 1015 q 634 938 553 1015 q 715 761 715 861 q 695 703 715 719 q 631 686 675 686 q 536 754 536 686 q 495 829 536 801 q 394 857 454 857 q 243 697 243 857 l 243 546 q 428 617 303 617 q 637 550 558 617 q 715 329 715 483 l 715 310 q 627 68 715 144 q 390 -8 539 -8 q 153 68 242 -8 q 64 310 64 144 m 243 299 q 390 139 243 139 q 535 299 535 139 l 535 317 q 389 475 535 475 q 243 329 243 475 l 243 299 z "},"7":{"ha":692,"x_min":24,"x_max":675,"o":"m 24 744 l 24 958 q 48 997 24 979 q 103 1015 72 1015 l 596 1015 q 649 997 622 1015 q 675 958 675 979 l 675 800 q 640 694 675 764 l 289 19 q 238 -7 275 -7 q 158 19 193 -7 q 124 83 124 46 q 132 115 124 101 l 494 765 l 494 857 l 204 857 l 204 744 q 176 703 204 719 q 113 686 149 686 q 49 703 75 686 q 24 744 24 719 z "},"8":{"ha":740,"x_min":44,"x_max":696,"o":"m 44 278 l 44 294 q 210 556 44 494 q 76 769 76 603 q 156 956 76 896 q 371 1015 235 1015 q 585 956 506 1015 q 664 769 664 896 q 531 556 664 603 q 696 294 696 496 l 696 278 q 607 61 696 131 q 371 -8 518 -8 q 134 61 224 -8 q 44 278 44 131 m 225 299 q 371 139 225 139 q 515 299 515 139 l 515 326 q 371 479 515 479 q 225 326 225 479 l 225 299 m 371 868 q 311 868 371 868 q 251 747 251 868 q 371 626 251 626 q 490 747 490 626 q 371 868 490 868 z "},"9":{"ha":764,"x_min":47,"x_max":700,"o":"m 47 246 q 67 304 47 288 q 132 321 88 321 q 226 253 226 321 q 267 178 226 206 q 369 150 308 150 q 519 310 519 150 l 519 461 q 335 390 460 390 q 126 457 204 390 q 47 678 47 524 l 47 697 q 136 939 47 863 q 372 1015 225 1015 q 610 938 521 1015 q 700 697 700 861 l 700 310 q 608 68 700 144 q 364 -8 517 -8 q 129 69 211 -8 q 47 246 47 147 m 228 690 q 374 532 228 532 q 519 678 519 532 l 519 708 q 372 868 519 868 q 228 708 228 868 l 228 690 z "},"\u0000":{"ha":0,"x_min":0,"x_max":0,"o":""},"\r":{"ha":0,"x_min":0,"x_max":0,"o":""}," ":{"ha":278,"x_min":0,"x_max":0,"o":""},"!":{"ha":306,"x_min":58,"x_max":247,"o":"m 85 19 q 72 33 85 19 q 58 86 58 47 q 85 153 58 125 q 153 181 113 181 q 219 153 192 181 q 247 86 247 125 q 219 20 247 49 q 153 -8 192 -8 q 85 19 113 -8 m 65 944 q 90 1001 65 981 q 151 1021 114 1021 q 214 1000 189 1021 q 239 944 239 979 q 229 639 239 853 q 219 333 219 425 q 198 294 219 308 q 151 281 176 281 q 83 333 83 281 q 74 639 83 425 q 65 944 65 853 z "},"\"":{"ha":421,"x_min":39,"x_max":382,"o":"m 39 1021 q 58 1053 39 1040 q 104 1067 78 1067 q 151 1053 131 1067 q 172 1021 172 1040 l 158 829 q 144 797 158 811 q 104 783 131 783 q 65 797 78 783 q 53 829 53 810 l 39 1021 m 249 1021 q 268 1053 249 1040 q 314 1067 288 1067 q 361 1053 340 1067 q 382 1021 382 1040 l 368 829 q 355 797 368 811 q 314 783 342 783 q 275 797 288 783 q 263 829 263 810 l 249 1021 z "},"#":{"ha":942,"x_min":32,"x_max":911,"o":"m 46 324 q 39 333 46 324 q 32 371 32 342 q 46 420 32 400 q 82 440 60 440 l 217 440 l 247 611 l 139 611 q 101 628 115 611 q 88 676 88 646 q 101 725 88 706 q 138 744 115 744 l 274 744 l 311 953 q 337 980 315 969 q 386 990 358 990 q 444 974 421 990 q 468 922 468 957 l 436 744 l 589 744 l 626 953 q 651 980 629 969 q 700 990 672 990 q 758 974 735 990 q 783 922 782 957 l 750 744 l 858 744 q 895 725 879 744 q 911 678 911 706 q 896 631 911 650 q 860 611 881 611 l 726 611 l 694 440 l 803 440 q 840 421 824 440 q 857 374 857 401 q 840 325 857 344 q 804 306 824 306 l 669 306 l 629 83 q 605 53 626 65 q 558 42 583 42 q 497 60 525 42 q 469 108 469 78 l 504 306 l 354 306 l 314 83 q 289 53 311 65 q 244 42 267 42 q 184 60 211 42 q 157 108 157 78 l 190 306 l 82 306 q 46 324 60 306 m 381 440 l 531 440 l 563 611 l 411 611 l 381 440 z "},"$":{"ha":729,"x_min":36,"x_max":688,"o":"m 36 174 q 60 238 36 206 q 114 271 83 271 q 163 248 135 271 q 235 199 192 225 q 331 167 278 172 l 331 443 q 252 474 279 463 q 183 510 225 485 q 118 561 140 535 q 78 629 96 588 q 61 722 61 671 q 138 912 61 846 q 331 993 214 978 l 331 1032 q 344 1056 331 1046 q 378 1067 358 1067 q 410 1056 396 1067 q 425 1032 425 1046 l 425 996 q 588 967 513 993 q 663 886 663 940 q 643 823 663 856 q 589 790 624 790 q 526 814 575 790 q 425 842 478 838 l 425 597 q 519 557 482 576 q 601 503 557 538 q 666 418 644 469 q 688 300 688 367 q 617 100 688 175 q 425 6 546 25 l 425 -37 q 410 -62 425 -51 q 378 -72 396 -72 q 344 -62 358 -72 q 331 -37 331 -51 l 331 1 q 123 58 210 4 q 36 174 36 113 m 231 740 q 258 674 231 699 q 342 628 286 650 l 342 838 q 231 740 231 819 m 414 168 q 518 282 518 189 q 491 358 518 329 q 414 410 464 388 l 414 168 z "},"%":{"ha":1093,"x_min":35,"x_max":1057,"o":"m 35 635 l 35 836 q 89 972 35 929 q 233 1015 143 1015 q 377 972 324 1015 q 431 836 431 929 l 431 635 q 377 499 431 542 q 233 456 324 456 q 89 499 143 456 q 35 635 35 542 m 156 635 q 233 560 156 560 q 313 635 313 560 l 313 836 q 233 911 313 911 q 156 836 156 911 l 156 635 m 238 6 q 243 29 238 15 l 743 1042 q 793 1071 758 1071 q 841 1053 819 1071 q 863 1008 863 1035 q 857 983 863 994 l 357 -25 q 303 -56 344 -56 q 256 -37 275 -56 q 238 6 238 -18 m 661 175 l 661 376 q 715 513 661 469 q 860 556 769 556 q 1003 513 950 556 q 1057 376 1057 469 l 1057 175 q 1003 39 1057 82 q 860 -4 950 -4 q 661 175 661 -4 m 782 175 q 860 100 782 100 q 939 175 939 100 l 939 376 q 860 451 939 451 q 782 376 782 451 l 782 175 z "},"&":{"ha":892,"x_min":31,"x_max":876,"o":"m 31 292 q 81 458 31 382 q 204 574 131 533 q 107 788 107 683 q 190 972 107 904 q 399 1039 274 1039 q 593 985 515 1039 q 671 876 671 932 q 644 819 671 846 q 586 793 618 793 q 546 809 565 793 q 512 844 526 825 q 467 878 497 863 q 400 894 438 894 q 311 864 346 894 q 276 779 276 833 q 281 745 276 763 q 296 708 285 728 l 314 676 q 339 642 321 664 l 364 614 q 394 583 371 607 l 419 557 l 643 321 q 660 374 654 346 q 668 422 667 403 q 671 468 669 440 q 674 506 672 496 q 693 548 676 535 q 754 561 710 561 q 815 541 799 561 q 831 478 831 521 q 753 208 831 339 l 865 92 q 876 61 876 79 q 851 10 876 33 q 793 -12 825 -12 q 749 8 769 -12 l 663 97 q 379 -14 544 -14 q 127 76 224 -14 q 31 292 31 165 m 213 307 q 263 190 213 236 q 400 143 313 143 q 556 207 499 143 l 306 468 q 213 307 213 400 z "},"'":{"ha":211,"x_min":39,"x_max":172,"o":"m 39 1021 q 58 1053 39 1040 q 104 1067 78 1067 q 151 1053 131 1067 q 172 1021 172 1040 l 158 829 q 144 797 158 811 q 104 783 131 783 q 65 797 78 783 q 53 829 53 810 l 39 1021 z "},"(":{"ha":474,"x_min":67,"x_max":451,"o":"m 67 231 l 67 789 q 158 988 67 908 q 363 1067 250 1067 q 451 989 451 1067 q 435 932 451 954 q 394 910 419 910 q 287 873 328 910 q 246 789 246 836 l 246 231 q 394 129 246 129 q 451 50 451 129 q 432 -8 451 11 q 358 -28 413 -28 q 154 38 242 -28 q 67 231 67 104 z "},")":{"ha":474,"x_min":22,"x_max":407,"o":"m 22 50 q 79 129 22 129 q 226 231 226 129 l 226 789 q 186 873 226 836 q 79 910 146 910 q 38 932 54 910 q 22 989 22 954 q 111 1067 22 1067 q 315 988 224 1067 q 407 789 407 908 l 407 231 q 319 38 407 104 q 115 -28 232 -28 q 42 -8 61 -28 q 22 50 22 11 z "},"*":{"ha":653,"x_min":32,"x_max":619,"o":"m 32 793 q 51 839 32 818 q 97 860 69 860 q 115 856 107 860 l 269 804 l 263 958 q 282 1001 264 986 q 326 1015 300 1015 q 371 1001 353 1015 q 390 958 389 986 l 383 803 l 539 856 q 557 860 550 860 q 601 837 583 860 q 619 786 619 814 q 578 733 619 742 l 428 696 l 529 551 q 539 518 539 539 q 517 472 539 490 q 467 453 494 453 q 421 476 436 453 l 326 619 l 231 475 q 189 453 217 453 q 140 471 165 453 q 114 515 114 489 q 129 553 114 535 l 226 689 l 72 733 q 32 793 32 742 z "},"+":{"ha":617,"x_min":29,"x_max":588,"o":"m 29 333 q 44 387 29 365 q 85 408 60 408 l 233 408 l 233 556 q 256 595 233 578 q 308 613 278 613 q 361 595 340 613 q 382 556 382 578 l 382 408 l 529 408 q 569 386 551 408 q 588 333 588 364 q 570 281 588 301 q 529 260 553 260 l 382 260 l 382 111 q 362 71 382 86 q 308 56 342 56 q 255 71 276 56 q 233 111 233 86 l 233 260 l 85 260 q 44 280 60 260 q 29 333 29 300 z "},",":{"ha":268,"x_min":40,"x_max":228,"o":"m 40 86 q 67 153 40 125 q 133 181 94 181 q 200 153 172 181 q 228 88 228 126 q 151 -115 228 64 q 114 -139 140 -139 q 74 -126 93 -139 q 54 -92 54 -112 q 60 -72 54 -82 l 92 1 q 40 86 40 29 z "},"-":{"ha":574,"x_min":50,"x_max":525,"o":"m 50 333 q 65 387 50 365 q 106 408 81 408 l 467 408 q 507 386 489 408 q 525 333 525 364 q 508 281 525 301 q 467 260 490 260 l 106 260 q 65 280 81 260 q 50 333 50 300 z "},".":{"ha":265,"x_min":39,"x_max":226,"o":"m 66 19 q 52 33 66 19 q 39 86 39 47 q 66 153 39 125 q 133 181 93 181 q 199 153 171 181 q 226 86 226 125 q 199 20 226 49 q 133 -8 171 -8 q 66 19 93 -8 z "},"/":{"ha":672,"x_min":24,"x_max":649,"o":"m 24 6 q 31 29 24 18 l 529 1042 q 579 1071 544 1071 q 627 1053 606 1071 q 649 1008 649 1035 q 643 983 649 994 l 144 -25 q 90 -56 129 -56 q 42 -37 61 -56 q 24 6 24 -18 z "},":":{"ha":310,"x_min":61,"x_max":249,"o":"m 88 19 q 75 33 88 19 q 61 86 61 47 q 88 153 61 125 q 156 181 115 181 q 221 153 193 181 q 249 86 249 125 q 221 20 249 49 q 156 -8 193 -8 q 88 19 115 -8 m 88 425 q 75 439 88 425 q 61 492 61 453 q 88 558 61 531 q 156 586 115 586 q 221 558 193 586 q 249 492 249 531 q 221 426 249 454 q 156 397 193 397 q 88 425 115 397 z "},";":{"ha":311,"x_min":58,"x_max":253,"o":"m 58 86 q 85 153 58 125 q 151 181 113 181 q 218 153 190 181 q 246 88 246 126 q 169 -115 246 64 q 132 -139 158 -139 q 92 -126 111 -139 q 72 -92 72 -112 q 78 -72 72 -82 l 110 1 q 58 86 58 29 m 92 425 q 79 439 92 425 q 65 492 65 453 q 92 558 65 531 q 160 586 119 586 q 225 558 197 586 q 253 492 253 531 q 225 426 253 454 q 160 397 197 397 q 92 425 119 397 z "},"<":{"ha":581,"x_min":26,"x_max":525,"o":"m 26 385 q 64 451 26 428 l 422 686 q 446 692 432 692 q 500 667 475 692 q 525 607 525 642 q 503 561 525 575 l 235 385 l 503 210 q 525 163 525 196 q 500 103 525 128 q 446 78 475 78 q 422 85 431 78 l 64 318 q 26 385 26 343 z "},"=":{"ha":618,"x_min":74,"x_max":546,"o":"m 74 200 q 89 253 74 232 q 129 275 104 275 l 488 275 q 528 253 510 275 q 546 200 546 231 q 528 147 546 168 q 488 126 511 126 l 129 126 q 89 147 104 126 q 74 200 74 167 m 74 482 q 89 535 74 514 q 129 557 104 557 l 488 557 q 528 535 510 557 q 546 482 546 513 q 528 429 546 450 q 488 408 511 408 l 129 408 q 89 428 104 408 q 74 482 74 449 z "},">":{"ha":579,"x_min":54,"x_max":553,"o":"m 54 163 q 76 210 54 194 l 346 385 l 76 561 q 54 607 54 576 q 80 667 54 642 q 135 692 106 692 q 157 686 150 692 l 517 451 q 553 385 553 429 q 517 318 553 343 l 157 85 q 135 78 150 78 q 80 103 106 78 q 54 163 54 129 z "},"?":{"ha":604,"x_min":29,"x_max":571,"o":"m 29 857 q 99 968 29 915 q 285 1021 168 1021 q 493 954 415 1021 q 571 786 571 888 q 560 718 571 751 q 538 662 550 685 q 503 610 526 639 q 469 571 481 582 l 433 536 l 407 514 q 349 439 360 476 q 338 331 338 401 q 268 281 338 281 q 219 297 233 281 q 204 358 204 314 q 288 578 204 503 l 328 611 q 376 655 360 639 q 408 702 392 671 q 424 767 424 733 q 385 855 424 824 q 281 886 346 886 q 204 871 235 886 q 163 838 174 856 q 135 806 151 821 q 99 790 119 790 q 51 808 72 790 q 29 857 29 825 m 176 86 q 203 153 176 125 q 269 181 231 181 q 336 153 308 181 q 364 86 364 125 q 336 20 364 49 q 269 -8 308 -8 q 203 20 231 -8 q 176 86 176 49 z "},"@":{"ha":1024,"x_min":53,"x_max":989,"o":"m 53 290 q 103 545 53 435 q 262 724 153 656 q 528 792 371 792 q 867 669 746 792 q 989 332 989 547 q 937 106 989 194 q 783 17 885 17 q 686 45 725 17 q 638 118 647 74 q 464 24 564 24 q 342 64 393 24 q 290 183 290 104 q 569 354 290 354 l 614 354 l 614 375 q 501 472 614 472 q 411 453 451 472 q 365 435 371 435 q 335 458 349 435 q 322 501 322 482 q 384 567 322 540 q 521 594 446 594 q 680 546 615 594 q 744 408 744 497 l 744 174 q 794 107 754 107 q 875 304 875 107 q 528 689 875 689 q 356 658 428 689 q 244 569 283 626 q 188 443 206 511 q 169 292 169 375 q 185 150 169 214 q 236 33 201 86 q 334 -51 271 -21 q 486 -81 397 -81 q 609 -62 553 -81 q 671 -44 665 -44 q 703 -62 690 -44 q 715 -97 715 -81 q 632 -160 715 -137 q 465 -183 549 -183 q 173 -60 293 -183 q 53 290 53 63 m 433 186 q 451 137 433 154 q 497 119 468 119 q 583 155 544 119 q 621 233 621 190 l 621 276 l 586 276 q 433 186 433 276 z "},"A":{"ha":799,"x_min":13,"x_max":786,"o":"m 13 75 q 15 89 13 78 l 283 963 q 324 1008 292 992 q 399 1024 357 1024 q 474 1008 440 1024 q 515 963 507 992 l 783 89 q 786 75 786 78 q 749 22 786 44 q 672 0 711 0 q 611 36 621 0 l 558 221 l 240 221 l 188 36 q 126 0 178 0 q 49 22 86 0 q 13 75 13 43 m 278 363 l 519 363 l 399 789 l 278 363 z "},"B":{"ha":781,"x_min":83,"x_max":735,"o":"m 83 56 l 83 958 q 107 1000 83 985 q 163 1015 131 1015 l 431 1015 q 710 771 710 1015 q 592 550 710 601 q 699 472 663 522 q 735 324 735 421 l 735 294 q 660 70 735 140 q 457 0 585 0 l 163 0 q 106 17 128 0 q 83 56 83 33 m 263 158 l 419 158 q 554 310 554 158 l 554 332 q 520 444 554 410 q 419 479 486 479 l 263 479 l 263 158 m 263 621 l 418 621 q 501 653 472 621 q 529 740 529 685 q 499 826 529 794 q 417 857 469 857 l 263 857 l 263 621 z "},"C":{"ha":764,"x_min":74,"x_max":725,"o":"m 74 310 l 74 697 q 163 938 74 861 q 394 1015 251 1015 q 633 943 540 1015 q 725 751 725 871 q 704 681 725 700 q 635 663 683 663 q 544 719 546 663 q 541 751 543 738 q 530 785 539 764 q 507 822 521 807 q 465 847 493 836 q 400 857 438 857 q 254 697 254 857 l 254 310 q 403 150 254 150 q 477 164 447 150 q 520 203 507 178 q 538 249 533 229 q 544 299 543 269 q 633 356 549 356 q 703 337 682 356 q 725 267 725 318 q 633 67 725 142 q 393 -8 540 -8 q 162 69 250 -8 q 74 310 74 146 z "},"D":{"ha":806,"x_min":83,"x_max":735,"o":"m 83 56 l 83 960 q 106 999 83 982 q 163 1015 128 1015 l 408 1015 q 646 939 557 1015 q 735 697 735 863 l 735 318 q 646 76 735 153 q 408 0 557 0 l 163 0 q 106 17 128 0 q 83 56 83 33 m 264 158 l 408 158 q 554 318 554 158 l 554 697 q 408 857 554 857 l 264 857 l 264 158 z "},"E":{"ha":736,"x_min":83,"x_max":714,"o":"m 83 57 l 83 958 q 107 1000 83 985 q 163 1015 131 1015 l 657 1015 q 699 992 685 1015 q 714 938 714 968 q 699 881 714 904 q 657 857 683 857 l 264 857 l 264 579 l 475 579 q 517 558 501 579 q 532 507 532 536 q 517 459 532 481 q 475 438 503 438 l 264 438 l 264 158 l 657 158 q 699 135 683 158 q 714 78 714 111 q 699 24 714 47 q 657 0 685 0 l 163 0 q 107 15 131 0 q 83 57 83 31 z "},"F":{"ha":706,"x_min":83,"x_max":703,"o":"m 83 57 l 83 958 q 107 1000 83 985 q 163 1015 131 1015 l 647 1015 q 689 992 675 1015 q 703 938 703 969 q 688 881 703 904 q 647 857 674 857 l 264 857 l 264 579 l 476 579 q 517 558 503 579 q 532 507 532 538 q 517 458 532 479 q 476 438 503 438 l 264 438 l 264 57 q 237 15 264 31 q 174 0 210 0 q 110 15 136 0 q 83 57 83 31 z "},"G":{"ha":783,"x_min":72,"x_max":724,"o":"m 72 310 l 72 697 q 160 938 72 861 q 392 1015 249 1015 q 631 943 539 1015 q 724 749 724 871 q 702 681 724 699 q 633 663 681 663 q 543 719 544 663 q 508 819 539 781 q 399 857 478 857 q 253 697 253 857 l 253 310 q 397 150 253 150 q 505 190 467 150 q 543 310 543 231 l 543 392 l 431 392 q 390 413 404 392 q 375 463 375 433 q 390 512 375 490 q 431 533 406 533 l 667 533 q 708 516 693 533 q 724 475 724 499 l 724 310 q 635 68 724 144 q 397 -8 546 -8 q 160 68 249 -8 q 72 310 72 144 z "},"H":{"ha":840,"x_min":83,"x_max":757,"o":"m 83 57 l 83 960 q 110 1001 83 988 q 174 1015 136 1015 q 238 1001 211 1015 q 264 960 264 988 l 264 597 l 576 597 l 576 960 q 603 1001 576 988 q 667 1015 629 1015 q 731 1001 704 1015 q 757 960 757 988 l 757 57 q 730 15 757 31 q 667 0 703 0 q 603 15 629 0 q 576 57 576 31 l 576 456 l 264 456 l 264 57 q 237 15 264 31 q 174 0 210 0 q 110 15 136 0 q 83 57 83 31 z "},"I":{"ha":347,"x_min":83,"x_max":264,"o":"m 83 57 l 83 960 q 110 1001 83 988 q 174 1015 136 1015 q 238 1001 211 1015 q 264 960 264 988 l 264 57 q 237 15 264 31 q 174 0 210 0 q 110 15 136 0 q 83 57 83 31 z "},"J":{"ha":749,"x_min":18,"x_max":669,"o":"m 18 268 q 39 337 18 318 q 108 356 60 356 q 199 299 193 356 q 342 150 204 150 q 489 310 489 150 l 489 857 l 347 857 q 306 881 321 857 q 290 938 290 904 q 305 992 290 969 q 347 1015 319 1015 l 590 1015 q 646 1000 622 1015 q 669 958 669 985 l 669 310 q 581 69 669 146 q 350 -8 493 -8 q 110 66 203 -8 q 18 268 18 140 z "},"K":{"ha":767,"x_min":83,"x_max":771,"o":"m 83 57 l 83 960 q 110 1001 83 988 q 174 1015 136 1015 q 238 1001 211 1015 q 264 960 264 988 l 264 581 l 564 989 q 614 1015 583 1015 q 683 985 649 1015 q 718 922 718 956 q 707 888 718 901 l 458 576 l 761 115 q 771 83 771 101 q 737 22 771 50 q 663 -7 703 -7 q 600 28 621 -7 l 339 424 l 264 329 l 264 57 q 237 15 264 31 q 174 0 210 0 q 110 15 136 0 q 83 57 83 31 z "},"L":{"ha":672,"x_min":83,"x_max":657,"o":"m 83 57 l 83 960 q 110 1001 83 988 q 174 1015 136 1015 q 238 1001 211 1015 q 264 960 264 988 l 264 158 l 603 158 q 642 135 628 158 q 657 79 657 111 q 642 24 657 47 q 603 0 628 0 l 163 0 q 107 15 131 0 q 83 57 83 31 z "},"M":{"ha":971,"x_min":83,"x_max":888,"o":"m 83 57 l 83 925 q 109 993 83 971 q 174 1015 135 1015 q 253 997 225 1015 q 314 919 281 979 l 485 608 l 656 919 q 717 997 689 979 q 797 1015 746 1015 q 862 993 836 1015 q 888 925 888 971 l 888 57 q 860 15 888 31 q 797 0 833 0 q 733 15 760 0 q 707 57 707 31 l 707 654 l 544 365 q 483 329 525 329 q 424 365 443 329 l 264 665 l 264 57 q 237 15 264 31 q 174 0 210 0 q 110 15 136 0 q 83 57 83 31 z "},"N":{"ha":840,"x_min":83,"x_max":757,"o":"m 83 57 l 83 958 q 110 1001 83 986 q 174 1015 136 1015 q 250 997 224 1015 q 308 919 276 979 l 576 401 l 576 960 q 603 1001 576 988 q 667 1015 629 1015 q 731 1001 704 1015 q 757 960 757 988 l 757 57 q 730 15 757 31 q 667 0 703 0 q 563 57 593 0 l 264 615 l 264 57 q 237 15 264 31 q 174 0 210 0 q 110 15 136 0 q 83 57 83 31 z "},"O":{"ha":794,"x_min":72,"x_max":724,"o":"m 72 310 l 72 697 q 160 939 72 863 q 397 1015 249 1015 q 635 939 546 1015 q 724 697 724 863 l 724 310 q 635 68 724 144 q 397 -8 546 -8 q 160 68 249 -8 q 72 310 72 144 m 253 310 q 397 150 253 150 q 543 310 543 150 l 543 697 q 397 857 543 857 q 253 697 253 857 l 253 310 z "},"P":{"ha":774,"x_min":83,"x_max":746,"o":"m 83 57 l 83 960 q 102 999 83 982 q 151 1015 121 1015 l 431 1015 q 660 940 574 1015 q 746 703 746 864 l 746 694 q 656 456 746 532 q 419 379 567 379 l 264 379 l 264 57 q 237 15 264 31 q 174 0 210 0 q 110 15 136 0 q 83 57 83 31 m 264 521 l 419 521 q 527 561 489 521 q 565 681 565 601 l 565 697 q 527 817 565 776 q 419 857 489 857 l 264 857 l 264 521 z "},"Q":{"ha":794,"x_min":72,"x_max":724,"o":"m 72 310 l 72 697 q 160 939 72 863 q 397 1015 249 1015 q 635 939 546 1015 q 724 697 724 863 l 724 310 q 651 86 724 163 q 454 -4 579 10 l 454 -94 q 438 -136 454 -121 q 397 -151 421 -151 q 356 -136 374 -151 q 339 -94 339 -121 l 339 -4 q 72 310 72 25 m 253 310 q 339 161 253 189 l 339 235 q 356 276 339 263 q 397 290 374 290 q 438 276 421 290 q 454 235 454 263 l 454 161 q 543 310 543 190 l 543 697 q 505 817 543 776 q 397 857 467 857 q 253 697 253 857 l 253 310 z "},"R":{"ha":792,"x_min":83,"x_max":753,"o":"m 83 57 l 83 960 q 100 999 83 982 q 142 1015 117 1015 l 417 1015 q 746 725 746 1015 q 697 542 746 611 q 564 447 647 472 l 746 110 q 753 88 753 101 q 717 23 753 53 q 640 -7 681 -7 q 578 36 600 -7 l 381 419 l 264 419 l 264 57 q 238 15 264 31 q 174 0 211 0 q 110 15 138 0 q 83 57 83 31 m 264 561 l 417 561 q 565 708 565 561 q 417 857 565 857 l 264 857 l 264 561 z "},"S":{"ha":725,"x_min":33,"x_max":685,"o":"m 33 160 q 58 224 33 192 q 113 257 82 257 q 153 240 131 257 q 198 203 176 224 q 260 167 219 183 q 349 150 300 150 q 460 181 415 150 q 504 271 504 211 q 480 345 504 313 q 416 399 456 378 q 329 441 376 421 q 234 486 282 461 q 147 542 186 511 q 83 626 107 574 q 58 744 58 678 q 88 874 58 818 q 168 962 118 931 q 275 1008 218 993 q 396 1022 332 1022 q 472 1017 432 1022 q 558 1001 513 1013 q 631 967 603 990 q 660 911 660 943 q 640 848 660 881 q 588 815 621 815 q 519 842 575 815 q 396 868 464 868 q 280 840 321 868 q 239 761 239 811 q 272 691 239 721 q 355 642 306 661 q 462 595 404 624 q 569 533 519 567 q 651 437 618 500 q 685 289 685 374 q 594 66 685 144 q 354 -12 503 -12 q 128 42 222 -12 q 33 160 33 96 z "},"T":{"ha":733,"x_min":17,"x_max":718,"o":"m 17 935 q 31 991 17 967 q 74 1015 46 1015 l 661 1015 q 703 991 689 1015 q 718 935 718 967 q 703 877 718 901 q 661 853 688 853 l 458 853 l 458 57 q 431 15 458 31 q 368 0 404 0 q 304 15 331 0 q 278 57 278 31 l 278 853 l 74 853 q 32 876 47 853 q 17 935 17 900 z "},"U":{"ha":825,"x_min":79,"x_max":746,"o":"m 79 310 l 79 960 q 106 1001 79 988 q 169 1015 132 1015 q 233 1001 207 1015 q 260 960 260 988 l 260 310 q 413 150 260 150 q 565 310 565 150 l 565 960 q 592 1001 565 988 q 656 1015 618 1015 q 719 1001 693 1015 q 746 960 746 988 l 746 310 q 655 69 746 146 q 413 -8 564 -8 q 170 68 261 -8 q 79 310 79 144 z "},"V":{"ha":799,"x_min":13,"x_max":786,"o":"m 13 940 q 49 994 13 972 q 126 1015 86 1015 q 188 979 178 1015 l 400 226 l 611 979 q 672 1015 621 1015 q 749 993 711 1015 q 786 940 786 971 q 783 926 786 938 l 517 53 q 475 8 508 24 q 400 -8 442 -8 q 283 53 304 -8 l 15 926 q 13 940 13 938 z "},"W":{"ha":1226,"x_min":13,"x_max":1214,"o":"m 13 943 q 50 994 13 972 q 128 1015 88 1015 q 188 979 178 1015 l 407 226 l 525 710 q 614 760 538 760 q 701 710 689 760 l 819 226 l 1039 979 q 1099 1015 1049 1015 q 1176 994 1139 1015 q 1214 943 1214 972 q 1211 926 1214 935 l 936 53 q 818 -8 915 -8 q 743 8 776 -8 q 703 53 710 24 l 614 428 l 524 53 q 483 8 517 24 q 408 -8 450 -8 q 332 8 365 -8 q 290 53 299 24 l 15 926 q 13 943 13 935 z "},"X":{"ha":779,"x_min":18,"x_max":760,"o":"m 18 83 q 29 117 18 97 l 269 508 l 38 899 q 25 938 25 919 q 62 997 25 972 q 140 1022 99 1022 q 200 983 179 1022 l 389 643 l 578 983 q 639 1022 600 1022 q 717 997 681 1022 q 754 938 754 972 q 742 899 754 919 l 510 508 l 750 117 q 760 83 760 99 q 721 20 760 47 q 642 -7 682 -7 q 593 22 608 -7 l 389 379 l 186 22 q 136 -7 169 -7 q 58 20 97 -7 q 18 83 18 47 z "},"Y":{"ha":797,"x_min":13,"x_max":785,"o":"m 13 940 q 52 993 13 971 q 132 1015 92 1015 q 188 979 169 1015 l 399 578 l 611 979 q 665 1015 631 1015 q 745 993 706 1015 q 785 940 785 971 q 781 922 785 929 l 494 425 q 489 407 489 417 l 489 57 q 463 15 489 31 q 399 0 436 0 q 335 15 363 0 q 308 57 308 31 l 308 407 q 304 425 308 419 l 17 922 q 13 940 13 933 z "},"Z":{"ha":725,"x_min":19,"x_max":707,"o":"m 19 50 q 39 113 19 81 l 451 857 l 100 857 q 59 880 74 857 q 44 936 44 903 q 58 992 44 968 q 100 1015 72 1015 l 628 1015 q 682 967 682 1015 q 661 901 682 936 l 250 158 l 650 158 q 691 134 675 158 q 707 79 707 110 q 691 24 707 49 q 650 0 675 0 l 74 0 q 19 50 19 0 z "},"[":{"ha":474,"x_min":78,"x_max":451,"o":"m 78 28 l 78 1010 q 101 1051 78 1036 q 157 1067 125 1067 l 396 1067 q 438 1044 424 1067 q 451 989 451 1021 q 436 932 451 956 q 396 908 421 908 l 258 908 l 258 129 l 396 129 q 436 106 421 129 q 451 49 451 82 q 438 -6 451 17 q 396 -29 424 -29 l 157 -29 q 101 -14 125 -29 q 78 28 78 1 z "},"\\":{"ha":514,"x_min":26,"x_max":488,"o":"m 26 988 q 47 1030 26 1011 q 94 1049 67 1049 q 147 1013 135 1049 l 485 79 q 488 63 488 74 q 467 18 488 38 q 421 -1 447 -1 q 367 38 381 -1 l 29 968 q 26 988 26 982 z "},"]":{"ha":475,"x_min":22,"x_max":397,"o":"m 22 49 q 38 106 22 82 q 79 129 53 129 l 217 129 l 217 908 l 79 908 q 38 932 53 908 q 22 989 22 956 q 37 1043 22 1019 q 79 1067 51 1067 l 317 1067 q 373 1051 349 1067 q 397 1010 397 1036 l 397 28 q 373 -14 397 1 q 317 -29 349 -29 l 79 -29 q 37 -6 51 -29 q 22 49 22 18 z "},"^":{"ha":396,"x_min":0,"x_max":396,"o":"m 0 856 q 31 907 0 892 l 175 985 q 199 992 186 992 q 222 985 208 992 l 367 908 q 396 854 396 890 q 385 817 396 833 q 357 800 374 800 q 343 804 350 800 l 199 882 l 54 804 q 39 800 46 800 q 11 817 22 800 q 0 856 0 833 z "},"_":{"ha":439,"x_min":-58,"x_max":500,"o":"m -58 -75 q -43 -22 -58 -43 q -3 0 -28 0 l 442 0 q 482 -22 464 0 q 500 -75 500 -44 q 483 -128 500 -107 q 442 -149 465 -149 l -3 -149 q -43 -128 -28 -149 q -58 -75 -58 -108 z "},"`":{"ha":281,"x_min":0,"x_max":281,"o":"m 0 924 q 17 970 0 949 q 56 992 33 992 q 74 989 60 992 l 257 900 q 281 857 281 889 q 264 811 281 833 q 225 789 247 789 q 206 794 219 789 l 25 882 q 0 924 0 893 z "},"a":{"ha":654,"x_min":31,"x_max":590,"o":"m 31 172 q 114 331 31 285 q 354 376 197 376 l 411 376 l 411 394 q 381 484 411 446 q 289 522 351 522 q 182 501 226 522 q 131 479 138 479 q 86 507 103 479 q 69 568 69 535 q 141 638 69 608 q 292 668 213 668 q 517 591 443 668 q 590 397 590 514 l 590 57 q 565 17 590 33 q 503 0 540 0 q 445 17 468 0 q 422 57 422 33 l 422 97 q 211 -12 326 -12 q 81 35 132 -12 q 31 172 31 82 m 210 196 q 230 140 210 158 q 283 121 250 121 q 369 163 328 121 q 411 254 411 204 l 411 283 l 390 283 q 258 266 306 283 q 210 196 210 249 z "},"b":{"ha":721,"x_min":71,"x_max":675,"o":"m 71 57 l 71 989 q 95 1029 71 1014 q 158 1044 119 1044 q 224 1029 197 1044 q 250 989 250 1014 l 250 563 q 320 638 274 607 q 428 668 367 668 q 602 585 529 668 q 675 386 675 501 l 675 272 q 601 74 675 160 q 432 -12 528 -12 q 315 20 369 -12 q 239 97 261 53 l 239 57 q 215 18 239 36 q 158 0 190 0 q 96 17 121 0 q 71 57 71 35 m 250 247 q 288 183 250 221 q 375 144 326 144 q 460 184 424 144 q 496 272 496 224 l 496 386 q 460 473 496 435 q 374 511 424 511 q 288 476 326 511 q 250 386 250 442 l 250 247 z "},"c":{"ha":603,"x_min":47,"x_max":578,"o":"m 47 272 l 47 383 q 122 590 47 511 q 347 668 197 668 q 506 635 442 668 q 569 560 569 601 q 549 501 569 531 q 499 472 528 472 q 449 492 490 472 q 361 511 408 511 q 226 383 226 511 l 226 272 q 363 144 226 144 q 450 165 410 144 q 501 186 490 186 q 556 158 535 186 q 578 101 578 131 q 510 23 578 58 q 349 -12 443 -12 q 122 65 197 -12 q 47 272 47 143 z "},"d":{"ha":722,"x_min":46,"x_max":651,"o":"m 46 272 l 46 386 q 119 585 46 501 q 293 668 192 668 q 401 638 354 668 q 472 563 447 607 l 472 989 q 498 1029 472 1014 q 563 1044 524 1044 q 626 1029 601 1044 q 651 989 651 1014 l 651 57 q 626 17 651 35 q 563 0 600 0 q 506 18 531 0 q 482 57 482 36 l 482 97 q 406 20 460 53 q 289 -12 353 -12 q 119 74 193 -12 q 46 272 46 160 m 225 272 q 261 184 225 224 q 346 144 297 144 q 433 183 394 144 q 472 247 472 221 l 472 386 q 434 476 472 442 q 347 511 396 511 q 261 473 297 511 q 225 386 225 435 l 225 272 z "},"e":{"ha":672,"x_min":44,"x_max":635,"o":"m 44 272 l 44 390 q 133 586 44 504 q 349 668 222 668 q 551 594 467 668 q 635 407 635 519 q 624 338 635 365 q 592 300 614 311 q 553 286 571 289 q 506 283 535 283 l 224 283 l 224 263 q 268 166 224 203 q 386 129 313 129 q 490 156 439 129 q 557 182 542 182 q 606 155 586 182 q 625 103 625 128 q 555 26 625 64 q 381 -12 485 -12 q 138 66 232 -12 q 44 272 44 144 m 224 389 l 426 389 q 458 397 449 389 q 467 426 467 404 q 431 506 467 475 q 344 536 396 536 q 260 506 296 536 q 224 428 224 476 l 224 389 z "},"f":{"ha":472,"x_min":71,"x_max":465,"o":"m 71 56 l 71 772 q 142 966 71 888 q 315 1044 214 1044 l 397 1044 q 447 1022 429 1044 q 465 969 465 1000 q 447 915 465 938 q 397 893 429 893 l 353 893 q 278 865 307 893 q 250 792 250 838 l 250 660 l 419 660 q 453 640 440 660 q 465 594 465 621 q 453 549 465 568 q 419 529 440 529 l 250 529 l 250 56 q 223 15 250 31 q 158 0 196 0 q 96 15 121 0 q 71 56 71 31 z "},"g":{"ha":653,"x_min":21,"x_max":633,"o":"m 21 -111 q 122 36 21 -15 q 64 125 64 64 q 135 233 64 186 q 49 410 49 300 l 49 439 q 124 604 49 540 q 319 668 199 668 q 478 628 411 668 q 563 722 519 722 q 614 704 594 722 q 633 667 633 686 q 611 628 633 644 q 546 575 560 592 q 594 439 594 518 l 594 410 q 517 244 594 310 q 319 178 440 178 q 229 190 269 178 q 213 163 213 176 q 256 128 213 139 q 360 109 299 117 q 483 87 422 101 q 588 28 544 72 q 631 -89 631 -17 q 543 -252 631 -197 q 328 -307 456 -307 q 110 -254 199 -307 q 21 -111 21 -201 m 190 -93 q 229 -165 190 -139 q 325 -192 268 -192 q 419 -165 382 -192 q 457 -94 457 -139 q 450 -60 457 -75 q 426 -36 443 -46 q 395 -20 408 -26 q 353 -9 382 -14 q 310 -3 324 -4 q 265 3 297 -1 q 190 -93 190 -32 m 222 411 q 249 322 222 357 q 322 286 275 286 q 394 320 368 286 q 421 410 421 354 l 421 439 q 394 525 421 490 q 321 560 367 560 q 249 526 275 560 q 222 439 222 492 l 222 411 z "},"h":{"ha":728,"x_min":71,"x_max":664,"o":"m 71 57 l 71 989 q 95 1029 71 1014 q 160 1044 119 1044 q 224 1029 197 1044 q 250 989 250 1014 l 250 563 q 317 638 271 607 q 425 668 363 668 q 592 585 521 668 q 664 386 664 501 l 664 57 q 637 15 664 31 q 574 0 610 0 q 512 15 539 0 q 485 57 485 31 l 485 386 q 449 472 485 433 q 364 511 413 511 q 284 476 318 511 q 250 386 250 442 l 250 57 q 223 18 250 36 q 160 0 196 0 q 97 17 122 0 q 71 57 71 35 z "},"i":{"ha":318,"x_min":60,"x_max":256,"o":"m 60 894 q 88 956 60 931 q 158 982 117 982 q 227 956 199 982 q 256 894 256 931 q 227 833 256 860 q 158 807 199 807 q 88 833 117 807 q 60 894 60 860 m 69 57 l 69 604 q 94 644 69 629 q 158 660 119 660 q 223 644 197 660 q 249 604 249 629 l 249 57 q 222 18 249 36 q 158 0 194 0 q 95 17 121 0 q 69 57 69 35 z "},"j":{"ha":321,"x_min":-53,"x_max":257,"o":"m -53 -233 q -33 -177 -53 -199 q 15 -156 -14 -156 q 60 -128 50 -156 q 71 -44 71 -100 l 71 604 q 96 644 71 629 q 158 660 121 660 q 224 644 197 660 q 250 604 250 629 l 250 -44 q 196 -235 250 -164 q 40 -307 142 -307 q -53 -233 -53 -307 m 61 894 q 90 956 61 931 q 160 982 118 982 q 228 956 200 982 q 257 894 257 931 q 228 833 257 860 q 160 807 200 807 q 90 833 118 807 q 61 894 61 860 z "},"k":{"ha":683,"x_min":71,"x_max":669,"o":"m 71 57 l 71 989 q 95 1029 71 1014 q 158 1044 119 1044 q 224 1029 197 1044 q 250 989 250 1014 l 250 407 l 511 653 q 547 667 528 667 q 606 639 576 667 q 635 581 635 611 q 619 547 635 563 l 456 399 l 660 107 q 669 78 669 93 q 635 18 669 47 q 568 -11 601 -11 q 524 13 540 -11 l 336 289 l 250 210 l 250 57 q 222 18 250 36 q 158 0 194 0 q 96 17 121 0 q 71 57 71 35 z "},"l":{"ha":343,"x_min":82,"x_max":261,"o":"m 82 57 l 82 989 q 106 1029 82 1014 q 171 1044 131 1044 q 235 1029 208 1044 q 261 989 261 1014 l 261 57 q 234 18 261 36 q 171 0 207 0 q 108 17 133 0 q 82 57 82 35 z "},"m":{"ha":1115,"x_min":69,"x_max":1051,"o":"m 69 57 l 69 604 q 94 644 69 629 q 158 660 118 660 q 215 644 192 660 q 238 604 238 629 l 238 563 q 421 668 297 668 q 526 630 479 668 q 594 529 572 592 q 685 633 629 597 q 804 668 742 668 q 978 592 904 668 q 1051 386 1051 515 l 1051 57 q 1024 18 1051 36 q 961 0 997 0 q 899 18 926 0 q 872 57 872 36 l 872 386 q 839 478 872 444 q 760 513 806 513 q 683 478 715 513 q 650 388 650 444 l 650 56 q 624 14 650 28 q 560 0 597 0 q 498 15 525 0 q 471 56 471 29 l 471 386 q 437 476 471 442 q 357 511 403 511 q 281 478 313 511 q 249 386 249 444 l 249 57 q 222 18 249 36 q 158 0 194 0 q 95 17 121 0 q 69 57 69 35 z "},"n":{"ha":726,"x_min":69,"x_max":663,"o":"m 69 57 l 69 604 q 94 644 69 629 q 158 660 118 660 q 215 644 192 660 q 238 604 238 629 l 238 563 q 309 638 260 607 q 424 668 358 668 q 591 585 519 668 q 663 386 663 501 l 663 57 q 635 15 663 31 q 572 0 608 0 q 510 15 538 0 q 483 57 483 31 l 483 386 q 447 473 483 435 q 363 511 411 511 q 283 476 317 511 q 249 386 249 442 l 249 57 q 222 18 249 36 q 158 0 194 0 q 95 17 121 0 q 69 57 69 35 z "},"o":{"ha":692,"x_min":44,"x_max":647,"o":"m 44 272 l 44 386 q 133 584 44 500 q 346 668 222 668 q 557 585 467 668 q 647 386 647 501 l 647 272 q 557 74 647 160 q 346 -12 467 -12 q 135 74 225 -12 q 44 272 44 160 m 224 272 q 260 183 224 222 q 346 144 296 144 q 431 183 394 144 q 468 272 468 222 l 468 386 q 431 472 468 433 q 346 511 394 511 q 260 473 296 511 q 224 386 224 435 l 224 272 z "},"p":{"ha":721,"x_min":71,"x_max":675,"o":"m 71 -250 l 71 604 q 95 644 71 629 q 156 660 119 660 q 215 644 192 660 q 239 604 239 629 l 239 563 q 315 638 265 607 q 426 668 364 668 q 603 585 531 668 q 675 386 675 503 l 675 272 q 601 74 675 160 q 432 -12 528 -12 q 322 20 372 -12 q 250 97 271 53 l 250 -250 q 223 -290 250 -272 q 158 -307 196 -307 q 96 -290 121 -307 q 71 -250 71 -272 m 250 247 q 288 182 250 219 q 372 144 325 144 q 458 184 421 144 q 496 272 496 224 l 496 386 q 458 473 496 435 q 369 511 421 511 q 286 476 322 511 q 250 386 250 442 l 250 247 z "},"q":{"ha":722,"x_min":46,"x_max":651,"o":"m 46 272 l 46 386 q 119 585 46 503 q 296 668 192 668 q 408 638 358 668 q 482 563 457 607 l 482 604 q 506 644 482 629 q 565 660 529 660 q 626 644 601 660 q 651 604 651 629 l 651 -250 q 626 -290 651 -272 q 563 -307 600 -307 q 499 -290 525 -307 q 472 -250 472 -272 l 472 97 q 399 19 450 51 q 289 -12 349 -12 q 119 74 193 -12 q 46 272 46 160 m 225 272 q 263 184 225 224 q 349 144 300 144 q 435 182 397 144 q 472 247 472 219 l 472 386 q 435 476 472 442 q 351 511 399 511 q 263 473 300 511 q 225 386 225 435 l 225 272 z "},"r":{"ha":524,"x_min":69,"x_max":517,"o":"m 69 57 l 69 604 q 94 644 69 629 q 157 660 118 660 q 215 644 192 660 q 238 604 238 629 l 238 547 q 307 632 260 596 q 408 668 354 668 l 451 668 q 497 644 476 668 q 517 590 517 621 q 497 535 517 558 q 451 511 476 511 l 408 511 q 297 454 344 511 q 249 306 249 397 l 249 57 q 221 18 249 36 q 157 0 193 0 q 94 17 119 0 q 69 57 69 35 z "},"s":{"ha":575,"x_min":32,"x_max":539,"o":"m 32 107 q 50 159 32 132 q 92 186 68 186 q 130 171 107 186 q 190 140 153 156 q 279 124 228 124 q 381 183 381 124 q 347 236 381 217 q 265 268 313 256 q 168 298 217 281 q 85 356 119 315 q 51 461 51 397 q 111 607 51 546 q 300 668 171 668 q 453 642 386 668 q 521 578 521 615 q 502 523 521 554 q 456 492 483 492 q 395 512 444 492 q 303 532 346 532 q 231 513 256 532 q 206 469 206 493 q 231 431 206 446 q 292 407 256 415 q 372 384 329 399 q 452 350 415 369 q 514 290 489 331 q 539 190 539 249 q 472 42 539 96 q 283 -12 404 -12 q 106 24 179 -12 q 32 107 32 60 z "},"t":{"ha":482,"x_min":68,"x_max":457,"o":"m 68 225 l 68 899 q 96 938 68 922 q 157 954 124 954 q 220 938 193 954 q 247 899 247 922 l 247 660 l 411 660 q 444 640 432 660 q 457 594 457 621 q 444 549 457 568 q 411 529 432 529 l 247 529 l 247 225 q 265 168 247 185 q 325 151 282 151 l 379 151 q 435 129 415 151 q 456 76 456 107 q 435 22 456 44 q 379 0 415 0 l 325 0 q 68 225 68 0 z "},"u":{"ha":728,"x_min":63,"x_max":664,"o":"m 63 269 l 63 603 q 90 642 63 624 q 153 660 117 660 q 215 642 188 660 q 242 603 242 624 l 242 269 q 278 183 242 221 q 364 144 314 144 q 449 183 414 144 q 485 269 485 221 l 485 604 q 512 643 485 626 q 575 660 539 660 q 639 643 614 660 q 664 604 664 626 l 664 269 q 575 72 664 157 q 364 -12 486 -12 q 152 72 242 -12 q 63 269 63 157 z "},"v":{"ha":668,"x_min":8,"x_max":660,"o":"m 8 592 q 49 644 8 621 q 128 668 90 668 q 181 638 168 668 l 335 235 l 489 635 q 540 668 501 668 q 617 644 574 668 q 660 590 660 619 q 654 567 660 578 l 417 17 q 335 -15 401 -15 q 254 17 268 -15 l 15 567 q 8 592 8 576 z "},"w":{"ha":963,"x_min":10,"x_max":953,"o":"m 10 593 q 49 645 10 624 q 126 667 88 667 q 178 638 167 667 l 317 243 l 421 586 q 482 622 432 622 q 543 586 532 622 l 646 242 l 786 638 q 838 667 797 667 q 914 644 875 667 q 953 592 953 622 q 947 567 953 576 l 733 17 q 663 -15 721 -15 q 589 17 601 -15 l 482 319 l 376 18 q 300 -15 364 -15 q 231 18 243 -15 l 17 567 q 10 593 10 581 z "},"x":{"ha":653,"x_min":29,"x_max":625,"o":"m 29 76 q 40 107 29 93 l 204 336 l 51 549 q 40 578 40 564 q 82 638 40 608 q 160 668 124 668 q 200 649 188 668 l 326 446 l 454 647 q 496 668 468 668 q 572 638 531 668 q 614 578 614 608 q 603 549 614 567 l 449 335 l 614 107 q 625 76 625 96 q 585 17 625 47 q 508 -12 544 -12 q 467 7 481 -12 l 326 218 l 188 7 q 143 -12 174 -12 q 71 17 113 -12 q 29 76 29 47 z "},"y":{"ha":661,"x_min":8,"x_max":650,"o":"m 8 -231 q 54 -156 8 -156 q 183 -108 119 -156 q 253 49 246 -61 l 14 560 q 8 583 8 574 q 49 643 8 617 q 128 669 90 669 q 179 639 169 669 l 346 224 l 481 639 q 528 669 490 669 q 607 642 564 669 q 650 581 650 615 q 646 560 650 569 l 443 42 l 419 -19 q 395 -85 403 -67 q 369 -141 388 -103 q 335 -197 350 -179 q 294 -240 321 -214 q 241 -277 268 -265 q 175 -298 214 -289 q 90 -307 136 -307 q 29 -292 50 -307 q 8 -231 8 -276 z "},"z":{"ha":607,"x_min":29,"x_max":582,"o":"m 29 64 q 60 136 29 100 l 333 514 l 93 514 q 56 535 71 514 q 40 588 40 557 q 55 639 40 618 q 93 660 69 660 l 501 660 q 543 644 526 660 q 560 599 560 628 q 532 524 560 560 l 257 146 l 529 146 q 567 124 551 146 q 582 72 582 103 q 567 21 582 42 q 529 0 553 0 l 90 0 q 44 19 60 0 q 29 64 29 38 z "},"{":{"ha":501,"x_min":29,"x_max":481,"o":"m 42 492 q 36 499 42 492 q 29 536 29 507 q 42 581 29 565 q 71 599 56 596 q 99 610 86 601 q 113 638 113 619 q 101 726 113 650 q 90 828 90 803 q 181 994 90 921 q 382 1067 272 1067 q 481 988 481 1067 q 466 936 481 958 q 425 914 451 914 q 322 885 372 914 q 271 804 271 857 q 282 708 271 786 q 293 615 293 631 q 276 564 293 589 q 243 533 258 539 q 276 505 260 529 q 293 453 293 481 q 282 334 293 435 q 271 217 271 233 q 321 147 271 168 q 425 125 371 125 q 467 101 454 125 q 481 50 481 78 q 379 -28 481 -28 q 178 36 267 -28 q 90 196 90 100 q 101 321 90 222 q 113 432 113 419 q 99 460 113 450 q 71 473 86 469 q 42 492 56 476 z "},"|":{"ha":335,"x_min":78,"x_max":257,"o":"m 78 28 l 78 1011 q 103 1051 78 1035 q 167 1067 128 1067 q 231 1051 204 1067 q 257 1011 257 1035 l 257 28 q 230 -11 257 7 q 167 -29 203 -29 q 103 -12 129 -29 q 78 28 78 6 z "},"}":{"ha":501,"x_min":21,"x_max":472,"o":"m 21 50 q 34 101 21 78 q 78 125 47 125 q 181 147 131 125 q 231 217 231 168 q 219 334 231 233 q 208 453 208 435 q 226 504 208 481 q 258 533 243 528 q 226 564 243 539 q 208 615 208 589 q 219 708 208 631 q 231 804 231 786 q 181 885 231 857 q 78 914 131 914 q 36 936 51 914 q 21 988 21 958 q 44 1044 21 1021 q 121 1067 68 1067 q 321 994 231 1067 q 411 828 411 921 q 400 726 411 803 q 389 638 389 650 q 402 610 389 619 q 431 599 415 601 q 459 581 446 596 q 472 536 472 565 q 459 492 472 507 q 431 473 446 476 q 402 460 415 469 q 389 432 389 450 q 400 321 389 419 q 411 196 411 222 q 323 36 411 100 q 122 -28 235 -28 q 21 50 21 -28 z "},"~":{"ha":571,"x_min":49,"x_max":524,"o":"m 49 342 q 74 403 49 381 q 122 431 99 426 q 168 436 144 436 q 268 416 208 436 q 365 396 328 396 q 433 413 399 396 q 478 429 467 429 q 513 408 501 429 q 524 371 524 388 q 510 320 524 340 q 476 291 497 300 q 438 279 454 282 q 406 276 421 276 q 299 297 357 276 q 208 317 240 317 q 140 300 175 317 q 94 283 106 283 q 60 304 71 283 q 49 342 49 325 z "}," ":{"ha":278,"x_min":0,"x_max":0,"o":""},"¡":{"ha":307,"x_min":58,"x_max":247,"o":"m 58 926 q 86 992 58 964 q 153 1021 114 1021 q 219 992 192 1021 q 247 926 247 964 q 219 858 247 886 q 153 831 192 831 q 86 859 114 831 q 58 926 58 888 m 67 67 q 76 374 67 160 q 86 679 86 588 q 108 718 86 704 q 153 732 129 732 q 203 719 183 732 q 222 679 222 706 q 231 374 222 588 q 240 67 240 160 q 216 12 240 32 q 153 -8 192 -8 q 92 12 117 -8 q 67 67 67 32 z "},"¢":{"ha":600,"x_min":33,"x_max":564,"o":"m 33 501 l 33 526 q 97 721 33 644 q 286 810 160 797 l 286 917 q 301 951 286 938 q 339 965 317 965 q 376 951 361 965 q 392 917 392 938 l 392 807 q 511 769 464 797 q 558 704 558 740 q 538 649 558 675 q 486 622 517 622 q 448 638 476 622 q 392 658 419 653 l 392 371 q 447 393 419 376 q 486 410 475 410 q 542 384 521 410 q 564 329 564 358 q 515 262 564 293 q 392 219 465 231 l 392 106 q 376 70 392 86 q 339 54 360 54 q 301 70 317 54 q 286 106 286 86 l 286 218 q 97 307 160 231 q 33 501 33 383 m 190 501 q 286 368 190 392 l 286 658 q 190 526 190 635 l 190 501 z "},"£":{"ha":751,"x_min":29,"x_max":707,"o":"m 44 24 q 36 35 44 24 q 29 79 29 47 q 44 135 29 111 q 83 158 58 158 l 157 158 l 206 508 l 128 508 q 94 528 107 508 q 82 574 82 547 q 94 619 82 600 q 128 639 107 639 l 224 639 l 243 771 q 364 983 261 899 q 597 1067 467 1067 l 646 1067 q 690 1043 674 1067 q 707 989 707 1019 q 690 933 707 957 q 646 910 674 910 l 590 910 q 474 871 518 910 q 422 771 431 832 l 403 639 l 569 639 q 603 619 592 639 q 615 574 615 600 q 603 528 615 547 q 569 508 592 508 l 385 508 l 335 158 l 653 158 q 692 135 678 158 q 707 79 707 111 q 692 24 707 47 q 653 0 678 0 l 83 0 q 44 24 58 0 z "},"¤":{"ha":628,"x_min":67,"x_max":561,"o":"m 67 460 q 75 478 67 469 l 114 514 q 68 656 68 578 q 113 797 68 733 l 76 832 q 69 850 69 839 q 81 877 69 865 q 108 889 93 889 q 126 882 117 889 l 160 850 q 314 906 229 906 q 465 851 396 906 l 500 883 q 519 890 508 890 q 546 878 533 890 q 558 851 558 867 q 550 833 558 842 l 514 799 q 561 657 561 736 q 513 513 561 576 l 550 478 q 558 460 558 469 q 546 433 558 444 q 519 421 533 421 q 500 428 508 421 l 465 460 q 314 403 397 403 q 160 461 232 403 l 125 428 q 106 421 117 421 q 78 433 90 421 q 67 460 67 444 m 210 760 q 188 738 210 760 q 167 656 167 715 q 210 549 167 596 q 314 503 253 503 q 419 549 375 503 q 463 654 463 594 q 419 760 463 714 q 314 806 375 806 q 210 760 253 806 z "},"¥":{"ha":782,"x_min":29,"x_max":753,"o":"m 29 949 q 65 999 29 975 q 136 1022 100 1022 q 188 981 165 1022 l 390 604 l 594 981 q 646 1022 617 1022 q 717 998 681 1022 q 753 949 753 974 q 747 926 753 938 l 519 557 l 610 557 q 650 538 632 557 q 668 493 668 519 q 650 449 668 467 q 610 431 632 431 l 481 431 l 481 342 l 610 342 q 650 323 632 342 q 668 278 668 304 q 651 233 668 250 q 610 215 633 215 l 481 215 l 481 57 q 454 15 481 31 q 390 0 428 0 q 326 15 353 0 q 300 57 300 31 l 300 215 l 175 215 q 133 232 149 215 q 118 276 118 249 q 134 324 118 306 q 175 342 150 342 l 300 342 l 300 431 l 175 431 q 133 447 149 431 q 118 492 118 464 q 134 539 118 521 q 175 557 150 557 l 258 557 l 35 926 q 29 949 29 933 z "},"¦":{"ha":332,"x_min":76,"x_max":256,"o":"m 76 28 l 76 375 q 101 416 76 400 q 165 432 126 432 q 229 416 203 432 q 256 375 256 400 l 256 28 q 228 -11 256 7 q 165 -29 201 -29 q 102 -12 128 -29 q 76 28 76 6 m 76 664 l 76 1011 q 101 1051 76 1035 q 165 1067 126 1067 q 229 1051 203 1067 q 256 1011 256 1035 l 256 664 q 228 624 256 642 q 165 606 201 606 q 102 624 128 606 q 76 664 76 642 z "},"§":{"ha":663,"x_min":56,"x_max":611,"o":"m 56 138 q 75 192 56 176 q 132 208 94 208 q 210 158 210 208 q 315 54 210 54 q 402 81 374 54 q 431 154 431 108 q 392 230 431 200 q 300 282 354 260 q 192 334 246 304 q 99 426 138 364 q 61 579 61 488 l 61 728 q 86 869 61 810 q 153 959 111 929 q 240 1002 196 989 q 332 1015 283 1015 q 517 947 451 1015 q 583 783 583 878 q 566 728 583 743 q 515 713 549 713 q 439 772 439 713 q 417 840 439 811 q 339 869 394 869 q 256 841 286 869 q 226 765 226 813 q 266 690 226 719 q 363 638 306 660 q 476 585 419 615 q 572 494 532 556 q 611 340 611 432 l 611 192 q 585 53 611 111 q 516 -36 560 -6 q 426 -81 472 -67 q 326 -94 379 -94 q 128 -24 200 -94 q 56 138 56 46 m 210 543 q 254 442 210 478 q 368 382 299 407 q 464 333 438 357 l 464 363 q 419 463 464 428 q 306 524 375 499 q 210 572 236 549 l 210 543 z "},"¨":{"ha":349,"x_min":0,"x_max":349,"o":"m 21 824 q 10 835 21 824 q 0 875 0 846 q 21 926 0 904 q 71 947 42 947 q 120 926 100 947 q 140 875 140 904 q 120 824 140 846 q 71 801 100 801 q 21 824 42 801 m 228 824 q 218 835 228 824 q 207 875 207 846 q 228 926 207 904 q 279 947 249 947 q 328 926 307 947 q 349 875 349 904 q 328 824 349 846 q 279 801 307 801 q 228 824 250 801 z "},"©":{"ha":958,"x_min":53,"x_max":906,"o":"m 53 497 q 92 698 53 608 q 196 841 132 788 q 334 923 260 894 q 483 951 408 951 q 632 923 558 951 q 767 841 706 894 q 867 699 829 788 q 906 503 906 611 q 866 302 906 392 q 763 159 826 213 q 624 77 699 106 q 475 49 550 49 q 326 77 400 49 q 191 159 253 106 q 91 301 129 213 q 53 497 53 389 m 139 497 q 231 236 139 338 q 475 135 322 135 q 724 237 628 135 q 819 503 819 339 q 727 764 819 663 q 483 865 635 865 q 235 763 331 865 q 139 497 139 661 m 315 414 l 315 606 q 361 740 315 697 q 481 783 407 783 q 603 743 556 783 q 651 636 651 703 q 640 597 651 607 q 603 586 629 586 q 553 618 554 586 q 485 693 549 693 q 414 606 414 693 l 414 414 q 485 326 414 326 q 521 334 507 326 q 541 356 535 342 q 549 381 547 371 q 553 408 551 392 q 601 439 554 439 q 640 428 629 439 q 651 389 651 418 q 603 278 651 319 q 481 236 556 236 q 361 279 407 236 q 315 414 315 322 z "},"ª":{"ha":464,"x_min":36,"x_max":410,"o":"m 36 724 q 92 829 36 799 q 253 860 149 860 l 290 860 l 290 872 q 271 933 290 907 q 210 958 251 958 q 138 943 167 958 q 104 928 108 928 q 74 947 85 928 q 63 989 63 965 q 110 1035 63 1015 q 211 1056 158 1056 q 361 1003 313 1056 q 410 874 410 951 l 410 647 q 393 621 410 632 q 350 610 376 610 q 313 621 328 610 q 297 647 297 632 l 297 675 q 161 601 235 601 q 72 632 107 601 q 36 724 36 663 m 157 740 q 206 690 157 690 q 263 717 236 690 q 290 779 290 744 l 290 797 l 261 797 q 157 740 157 797 z "},"«":{"ha":693,"x_min":33,"x_max":644,"o":"m 37 365 q 35 369 37 365 q 33 383 33 374 q 37 402 33 393 q 50 428 40 411 l 65 454 l 167 643 q 218 667 179 667 q 294 636 260 667 q 329 576 329 606 q 325 560 329 567 l 232 385 l 325 211 q 329 193 329 203 q 294 133 329 163 q 217 103 260 103 q 167 126 179 103 l 65 315 q 50 342 60 326 q 37 365 40 357 m 352 365 q 350 369 352 365 q 349 383 349 374 q 352 402 349 393 q 365 428 356 411 l 381 454 l 483 643 q 533 667 494 667 q 610 637 576 667 q 644 576 644 607 q 640 560 644 567 l 547 385 l 640 211 q 644 193 644 203 q 610 133 644 164 q 533 103 575 103 q 483 126 494 103 l 381 315 q 365 342 375 326 q 352 365 356 357 z "},"¬":{"ha":690,"x_min":44,"x_max":622,"o":"m 44 333 q 60 387 44 365 q 100 408 75 408 l 564 408 q 604 386 586 408 q 622 333 622 364 l 622 144 q 596 105 622 122 q 532 88 569 88 q 469 105 494 88 q 443 144 443 122 l 443 260 l 100 260 q 60 280 75 260 q 44 333 44 300 z "},"­":{"ha":657,"x_min":50,"x_max":608,"o":"m 50 333 q 65 387 50 365 q 106 408 81 408 l 550 408 q 590 386 572 408 q 608 333 608 364 q 591 281 608 301 q 550 260 574 260 l 106 260 q 65 280 81 260 q 50 333 50 300 z "},"®":{"ha":958,"x_min":53,"x_max":906,"o":"m 53 497 q 92 698 53 608 q 196 841 132 788 q 334 923 260 894 q 483 951 408 951 q 632 923 558 951 q 767 841 706 894 q 867 699 829 788 q 906 503 906 611 q 866 302 906 392 q 763 159 826 213 q 624 77 699 106 q 475 49 550 49 q 326 77 400 49 q 191 159 253 106 q 91 301 129 213 q 53 497 53 389 m 139 497 q 231 236 139 338 q 475 135 322 135 q 724 237 628 135 q 819 503 819 339 q 727 764 819 663 q 483 865 635 865 q 235 763 331 865 q 139 497 139 661 m 331 282 l 331 733 q 361 765 331 763 l 497 765 q 615 730 569 765 q 660 615 660 694 q 571 472 660 504 l 656 307 q 657 297 657 304 q 640 263 657 279 q 606 247 624 247 q 576 272 586 247 l 485 457 l 424 457 l 424 282 q 379 249 424 249 q 345 258 360 249 q 331 282 331 267 m 424 536 l 497 536 q 568 606 568 536 q 497 682 568 682 l 424 682 l 424 536 z "},"¯":{"ha":397,"x_min":0,"x_max":397,"o":"m 0 906 q 15 948 0 931 q 56 965 31 965 l 340 965 q 380 948 363 965 q 397 906 397 931 q 380 864 397 881 q 340 847 363 847 l 56 847 q 15 863 31 847 q 0 906 0 879 z "},"°":{"ha":554,"x_min":31,"x_max":524,"o":"m 104 640 q 67 678 104 640 q 31 817 31 717 q 103 992 31 917 q 276 1067 176 1067 q 449 993 375 1067 q 524 818 524 919 q 449 640 524 717 q 276 564 375 564 q 104 640 178 564 m 172 922 q 151 899 172 922 q 129 817 129 876 q 172 710 129 757 q 276 664 215 664 q 381 710 338 664 q 425 815 425 756 q 381 921 425 875 q 276 967 338 967 q 172 922 215 967 z "},"±":{"ha":654,"x_min":49,"x_max":606,"o":"m 49 118 q 64 172 49 150 q 104 193 79 193 l 549 193 q 588 171 571 193 q 606 118 606 149 q 588 65 606 86 q 549 44 571 44 l 104 44 q 64 65 79 44 q 49 118 49 85 m 49 511 q 64 566 49 544 q 104 588 79 588 l 253 588 l 253 724 q 275 763 253 744 q 328 781 297 781 q 381 763 360 781 q 401 724 401 746 l 401 588 l 549 588 q 588 565 571 588 q 606 511 606 543 q 588 458 606 479 q 549 438 571 438 l 401 438 l 401 300 q 381 260 401 275 q 328 244 361 244 q 274 260 296 244 q 253 300 253 275 l 253 438 l 104 438 q 64 458 79 438 q 49 511 49 479 z "},"²":{"ha":447,"x_min":33,"x_max":414,"o":"m 33 497 l 33 571 q 74 651 33 611 q 164 721 115 692 q 253 786 213 750 q 294 854 294 822 q 277 892 294 875 q 226 908 260 908 q 161 851 161 908 q 143 821 161 833 q 97 808 125 808 q 43 869 43 808 q 97 976 43 936 q 225 1015 151 1015 q 358 973 301 1015 q 414 858 414 931 q 374 757 414 804 q 286 683 333 710 q 199 627 239 656 q 158 578 158 599 l 158 564 l 378 564 q 403 549 393 564 q 414 513 414 533 q 403 476 414 492 q 378 460 392 460 l 86 460 q 51 471 68 460 q 33 497 33 482 z "},"³":{"ha":457,"x_min":28,"x_max":422,"o":"m 28 600 q 40 634 28 625 q 83 643 51 643 q 132 635 119 643 q 144 604 144 626 q 224 560 144 560 q 285 576 267 560 q 304 628 304 592 l 304 642 q 283 690 304 678 q 221 701 261 701 q 185 747 185 701 q 221 794 185 793 q 255 799 243 796 q 278 816 267 801 q 289 858 289 831 q 224 914 289 914 q 157 875 157 914 q 101 832 157 832 q 51 842 63 832 q 40 879 40 851 q 84 974 40 933 q 224 1015 128 1015 q 403 878 403 1015 q 339 753 403 781 q 422 642 422 725 l 422 628 q 367 497 422 539 q 219 456 311 456 q 76 500 125 456 q 28 600 28 544 z "},"´":{"ha":281,"x_min":0,"x_max":281,"o":"m 0 857 q 24 900 0 889 l 207 989 q 225 992 221 992 q 264 970 247 992 q 281 924 281 949 q 256 882 281 893 l 75 794 q 56 789 61 789 q 17 811 33 789 q 0 857 0 833 z "},"µ":{"ha":719,"x_min":78,"x_max":678,"o":"m 78 -250 l 78 603 q 105 642 78 624 q 168 660 132 660 q 230 642 203 660 q 257 603 257 624 l 257 263 q 294 183 257 221 q 381 144 332 144 q 463 183 428 144 q 499 269 499 221 l 499 603 q 525 643 499 626 q 589 660 551 660 q 653 643 628 660 q 678 603 678 626 l 678 269 q 590 72 678 156 q 379 -12 503 -12 q 236 42 300 -12 l 236 -250 q 215 -290 236 -272 q 165 -307 194 -307 q 103 -290 129 -307 q 78 -250 78 -272 z "},"¶":{"ha":771,"x_min":32,"x_max":683,"o":"m 32 713 l 32 729 q 106 947 32 878 q 304 1015 181 1015 l 626 1015 q 667 1000 650 1015 q 683 958 683 985 l 683 56 q 667 14 683 28 q 626 0 650 0 q 585 14 603 0 q 568 56 568 28 l 568 933 l 454 933 l 454 57 q 437 15 454 31 q 396 0 419 0 q 356 15 372 0 q 339 57 339 31 l 339 425 l 304 425 q 106 494 181 425 q 32 713 32 564 z "},"·":{"ha":286,"x_min":43,"x_max":242,"o":"m 72 354 q 58 367 72 354 q 43 417 43 381 q 72 478 43 453 q 143 504 101 504 q 213 478 185 504 q 242 417 242 453 q 213 354 242 381 q 143 328 185 328 q 72 354 101 328 z "},"¸":{"ha":264,"x_min":0,"x_max":264,"o":"m 0 -260 q 9 -228 0 -247 q 32 -208 18 -208 q 61 -218 36 -208 q 113 -228 86 -228 q 178 -182 178 -228 q 111 -131 178 -136 l 35 -124 l 74 13 l 153 13 l 126 -71 q 229 -103 194 -74 q 264 -178 264 -133 q 228 -262 264 -224 q 118 -300 193 -300 q 38 -290 76 -300 q 0 -260 0 -279 z "},"¹":{"ha":268,"x_min":10,"x_max":213,"o":"m 10 910 q 31 951 10 939 l 136 1013 q 158 1018 150 1018 q 196 1007 179 1018 q 213 979 213 996 l 213 497 q 194 469 213 479 q 153 460 176 460 q 110 469 128 460 q 92 497 92 479 l 92 883 l 68 869 q 47 864 58 864 q 20 878 31 864 q 10 910 10 892 z "},"º":{"ha":478,"x_min":38,"x_max":439,"o":"m 38 790 l 38 867 q 97 999 38 943 q 238 1056 156 1056 q 379 1000 319 1056 q 439 867 439 944 l 439 790 q 378 658 439 715 q 238 600 318 600 q 98 658 158 600 q 38 790 38 715 m 157 790 q 181 731 157 757 q 238 706 204 706 q 295 731 271 706 q 319 790 319 757 l 319 867 q 295 925 319 900 q 238 950 271 950 q 181 925 204 950 q 157 867 157 900 l 157 790 z "},"»":{"ha":694,"x_min":49,"x_max":661,"o":"m 49 193 q 53 211 49 203 l 146 385 l 53 560 q 49 576 49 567 q 83 636 49 606 q 160 667 118 667 q 211 643 199 667 l 313 454 l 328 428 q 341 402 338 411 q 344 383 344 393 q 341 365 344 374 q 328 342 338 357 q 313 315 318 326 l 211 126 q 161 103 199 103 q 83 133 118 103 q 49 193 49 163 m 364 193 q 368 211 364 203 l 461 385 l 368 560 q 364 576 364 567 q 399 637 364 607 q 476 667 433 667 q 526 643 515 667 l 629 454 l 644 428 q 658 402 654 411 q 661 383 661 393 q 658 365 661 374 q 644 342 654 357 q 629 315 635 326 l 526 126 q 476 103 515 103 q 399 133 433 103 q 364 193 364 163 z "},"¼":{"ha":924,"x_min":35,"x_max":896,"o":"m 35 910 q 56 951 35 939 l 161 1013 q 183 1018 175 1018 q 221 1007 204 1018 q 238 979 238 996 l 238 497 q 219 469 238 479 q 178 460 201 460 q 135 469 153 460 q 117 497 117 479 l 117 883 l 93 869 q 72 864 83 864 q 45 878 56 864 q 35 910 35 892 m 108 6 q 114 29 108 15 l 614 1042 q 664 1071 628 1071 q 711 1053 689 1071 q 733 1008 733 1035 q 728 983 733 994 l 228 -25 q 174 -56 215 -56 q 127 -37 146 -56 q 108 6 108 -18 m 469 158 q 475 181 469 169 l 667 525 q 717 556 685 556 q 756 542 735 556 q 776 511 776 529 q 772 496 776 503 l 622 226 l 703 226 l 703 279 q 721 306 703 297 q 763 315 739 315 q 824 279 824 315 l 824 226 l 860 226 q 896 172 896 226 q 885 134 896 151 q 860 117 874 117 l 824 117 l 824 36 q 806 10 824 19 q 763 0 788 0 q 721 10 739 0 q 703 36 703 19 l 703 117 l 508 117 q 469 158 469 117 z "},"½":{"ha":908,"x_min":31,"x_max":871,"o":"m 31 910 q 51 951 31 939 l 157 1013 q 179 1018 171 1018 q 217 1007 200 1018 q 233 979 233 996 l 233 497 q 215 469 233 479 q 174 460 197 460 q 131 469 149 460 q 113 497 113 479 l 113 883 l 89 869 q 68 864 79 864 q 41 878 51 864 q 31 910 31 892 m 82 6 q 88 29 82 15 l 588 1042 q 638 1071 603 1071 q 685 1053 664 1071 q 707 1008 707 1035 q 701 983 707 994 l 201 -25 q 147 -56 189 -56 q 101 -37 119 -56 q 82 6 82 -18 m 490 36 l 490 111 q 531 191 490 150 q 621 261 572 232 q 710 326 669 290 q 751 394 751 363 q 734 431 751 415 q 683 447 717 447 q 618 390 618 447 q 600 360 618 374 q 554 347 582 347 q 500 410 500 347 q 554 516 500 476 q 682 556 608 556 q 815 513 758 556 q 871 397 871 471 q 831 296 871 343 q 743 222 792 249 q 655 166 694 194 q 615 117 615 138 l 615 104 l 835 104 q 860 89 850 104 q 871 53 871 74 q 860 16 871 32 q 835 0 849 0 l 543 0 q 508 10 525 0 q 490 36 490 21 z "},"¾":{"ha":1110,"x_min":39,"x_max":1082,"o":"m 39 600 q 51 634 39 625 q 94 643 63 643 q 143 635 131 643 q 156 604 156 626 q 235 560 156 560 q 297 576 278 560 q 315 628 315 592 l 315 642 q 294 690 315 678 q 232 701 272 701 q 196 747 196 701 q 232 794 196 793 q 266 799 254 796 q 289 816 278 801 q 300 858 300 831 q 235 914 300 914 q 168 875 168 914 q 113 832 168 832 q 63 842 74 832 q 51 879 51 851 q 95 974 51 933 q 235 1015 139 1015 q 414 878 414 1015 q 350 753 414 781 q 433 642 433 725 l 433 628 q 378 497 433 539 q 231 456 322 456 q 88 500 136 456 q 39 600 39 544 m 285 6 q 290 29 285 15 l 790 1042 q 840 1071 806 1071 q 888 1053 867 1071 q 910 1008 910 1035 q 904 983 910 994 l 404 -25 q 350 -56 392 -56 q 303 -37 322 -56 q 285 6 285 -18 m 656 158 q 661 181 656 169 l 853 525 q 903 556 871 556 q 942 542 921 556 q 963 511 963 529 q 958 496 963 503 l 808 226 l 889 226 l 889 279 q 907 306 889 297 q 949 315 925 315 q 1010 279 1010 315 l 1010 226 l 1046 226 q 1082 172 1082 226 q 1071 134 1082 151 q 1046 117 1060 117 l 1010 117 l 1010 36 q 992 10 1010 19 q 949 0 974 0 q 907 10 925 0 q 889 36 889 19 l 889 117 l 694 117 q 656 158 656 117 z "},"¿":{"ha":606,"x_min":35,"x_max":576,"o":"m 35 226 q 52 322 35 276 q 103 404 69 367 q 153 458 136 442 q 199 497 169 474 q 256 572 243 533 q 268 682 268 611 q 338 732 268 732 q 388 715 374 732 q 403 654 403 699 q 318 433 403 513 q 278 399 310 425 q 230 356 246 372 q 198 309 214 340 q 182 244 182 278 q 221 157 182 188 q 325 126 260 126 q 401 142 371 126 q 444 174 432 157 q 472 207 456 192 q 507 222 488 222 q 555 204 533 222 q 576 156 576 186 q 507 44 576 97 q 321 -8 438 -8 q 113 58 190 -8 q 35 226 35 125 m 242 926 q 269 992 242 964 q 336 1021 297 1021 q 402 992 375 1021 q 429 926 429 964 q 402 858 429 886 q 336 831 375 831 q 269 859 297 831 q 242 926 242 888 z "},"À":{"ha":799,"x_min":13,"x_max":786,"o":"m 13 75 q 15 89 13 78 l 283 963 q 324 1008 292 992 q 399 1024 357 1024 q 474 1008 440 1024 q 515 963 507 992 l 783 89 q 786 75 786 78 q 749 22 786 44 q 672 0 711 0 q 611 36 621 0 l 558 221 l 240 221 l 188 36 q 126 0 178 0 q 49 22 86 0 q 13 75 13 43 m 239 1261 q 256 1308 239 1286 q 294 1329 272 1329 q 313 1326 299 1329 l 496 1238 q 519 1194 519 1225 q 503 1149 519 1171 q 464 1126 486 1126 q 444 1132 458 1126 l 264 1219 q 239 1261 239 1231 m 278 363 l 519 363 l 399 789 l 278 363 z "},"Á":{"ha":799,"x_min":13,"x_max":786,"o":"m 13 75 q 15 89 13 78 l 283 963 q 324 1008 292 992 q 399 1024 357 1024 q 474 1008 440 1024 q 515 963 507 992 l 783 89 q 786 75 786 78 q 749 22 786 44 q 672 0 711 0 q 611 36 621 0 l 558 221 l 240 221 l 188 36 q 126 0 178 0 q 49 22 86 0 q 13 75 13 43 m 278 363 l 519 363 l 399 789 l 278 363 m 299 1194 q 322 1238 299 1225 l 506 1326 q 524 1329 519 1329 q 563 1308 546 1329 q 579 1261 579 1286 q 554 1219 579 1231 l 374 1132 q 354 1126 360 1126 q 315 1149 332 1126 q 299 1194 299 1171 z "},"Â":{"ha":799,"x_min":13,"x_max":786,"o":"m 13 75 q 15 89 13 78 l 283 963 q 324 1008 292 992 q 399 1024 357 1024 q 474 1008 440 1024 q 515 963 507 992 l 783 89 q 786 75 786 78 q 749 22 786 44 q 672 0 711 0 q 611 36 621 0 l 558 221 l 240 221 l 188 36 q 126 0 178 0 q 49 22 86 0 q 13 75 13 43 m 200 1193 q 231 1244 200 1229 l 375 1322 q 399 1329 386 1329 q 422 1322 408 1329 l 567 1246 q 596 1192 596 1228 q 585 1154 596 1171 q 557 1138 574 1138 q 543 1142 550 1138 l 399 1219 l 254 1142 q 239 1138 246 1138 q 211 1154 222 1138 q 200 1193 200 1171 m 278 363 l 519 363 l 399 789 l 278 363 z "},"Ã":{"ha":799,"x_min":13,"x_max":786,"o":"m 13 75 q 15 89 13 78 l 283 963 q 324 1008 292 992 q 399 1024 357 1024 q 474 1008 440 1024 q 515 963 507 992 l 783 89 q 786 75 786 78 q 749 22 786 44 q 672 0 711 0 q 611 36 621 0 l 558 221 l 240 221 l 188 36 q 126 0 178 0 q 49 22 86 0 q 13 75 13 43 m 161 1219 q 186 1281 161 1258 q 234 1309 211 1304 q 281 1314 257 1314 q 382 1294 322 1314 q 478 1274 442 1274 q 545 1290 511 1274 q 590 1307 579 1307 q 625 1286 614 1307 q 636 1249 636 1265 q 623 1198 636 1218 q 588 1169 610 1178 q 550 1157 567 1160 q 518 1154 533 1154 q 411 1174 469 1154 q 321 1194 353 1194 q 253 1178 288 1194 q 207 1161 218 1161 q 172 1182 183 1161 q 161 1219 161 1203 m 278 363 l 519 363 l 399 789 l 278 363 z "},"Ä":{"ha":799,"x_min":13,"x_max":786,"o":"m 13 75 q 15 89 13 78 l 283 963 q 324 1008 292 992 q 399 1024 357 1024 q 474 1008 440 1024 q 515 963 507 992 l 783 89 q 786 75 786 78 q 749 22 786 44 q 672 0 711 0 q 611 36 621 0 l 558 221 l 240 221 l 188 36 q 126 0 178 0 q 49 22 86 0 q 13 75 13 43 m 247 1161 q 237 1172 247 1161 q 226 1213 226 1183 q 247 1263 226 1242 q 297 1285 268 1285 q 347 1263 326 1285 q 367 1213 367 1242 q 347 1161 367 1183 q 297 1139 326 1139 q 247 1161 268 1139 m 278 363 l 519 363 l 399 789 l 278 363 m 455 1161 q 444 1172 455 1161 q 433 1213 433 1183 q 454 1263 433 1242 q 506 1285 475 1285 q 554 1263 533 1285 q 575 1213 575 1242 q 554 1161 575 1183 q 506 1139 533 1139 q 455 1161 476 1139 z "},"Å":{"ha":799,"x_min":13,"x_max":786,"o":"m 13 75 q 15 89 13 78 l 283 963 q 324 1008 292 992 q 399 1024 357 1024 q 474 1008 440 1024 q 515 963 507 992 l 783 89 q 786 75 786 78 q 749 22 786 44 q 672 0 711 0 q 611 36 621 0 l 558 221 l 240 221 l 188 36 q 126 0 178 0 q 49 22 86 0 q 13 75 13 43 m 263 1268 q 302 1364 263 1322 q 397 1406 342 1406 q 494 1364 453 1406 q 535 1268 535 1322 q 493 1170 535 1213 q 397 1128 451 1128 q 303 1170 343 1128 q 263 1268 263 1213 m 278 363 l 519 363 l 399 789 l 278 363 m 333 1267 q 353 1221 333 1242 q 399 1200 372 1200 q 442 1220 424 1200 q 460 1267 460 1240 q 442 1310 460 1292 q 399 1329 424 1329 q 353 1310 372 1329 q 333 1267 333 1290 z "},"Æ":{"ha":1093,"x_min":79,"x_max":1071,"o":"m 79 64 l 79 697 q 166 938 79 861 q 396 1015 253 1015 l 1014 1015 q 1056 992 1042 1015 q 1071 938 1071 969 q 1056 881 1071 904 q 1014 857 1040 857 l 697 857 l 697 579 l 863 579 q 904 558 889 579 q 919 507 919 536 q 905 459 919 481 q 863 438 890 438 l 697 438 l 697 158 l 1014 158 q 1056 135 1040 158 q 1071 78 1071 111 q 1056 23 1071 46 q 1014 0 1042 0 l 596 0 q 540 15 564 0 q 517 57 517 31 l 517 438 l 250 438 l 250 64 q 232 16 250 32 q 160 0 214 0 q 79 64 79 0 m 250 579 l 517 579 l 517 857 l 396 857 q 250 697 250 857 l 250 579 z "},"Ç":{"ha":764,"x_min":74,"x_max":725,"o":"m 74 310 l 74 697 q 163 938 74 861 q 394 1015 251 1015 q 633 943 540 1015 q 725 751 725 871 q 704 681 725 700 q 635 663 683 663 q 544 719 546 663 q 541 751 543 738 q 530 785 539 764 q 507 822 521 807 q 465 847 493 836 q 400 857 438 857 q 254 697 254 857 l 254 310 q 403 150 254 150 q 477 164 447 150 q 520 203 507 178 q 538 249 533 229 q 544 299 543 269 q 633 356 549 356 q 703 337 682 356 q 725 267 725 318 q 648 80 725 153 q 444 -6 571 7 l 424 -71 q 526 -103 492 -74 q 561 -178 561 -133 q 526 -262 561 -224 q 415 -300 490 -300 q 335 -290 374 -300 q 297 -260 297 -279 q 306 -228 297 -247 q 329 -208 315 -208 q 358 -218 333 -208 q 410 -228 383 -228 q 475 -182 475 -228 q 408 -131 475 -136 l 332 -124 l 365 -7 q 153 77 233 0 q 74 310 74 154 z "},"È":{"ha":735,"x_min":83,"x_max":714,"o":"m 83 57 l 83 958 q 107 1000 83 985 q 163 1015 131 1015 l 657 1015 q 699 992 685 1015 q 714 938 714 968 q 699 881 714 904 q 657 857 683 857 l 264 857 l 264 579 l 475 579 q 517 558 501 579 q 532 507 532 536 q 517 459 532 481 q 475 438 503 438 l 264 438 l 264 158 l 657 158 q 699 135 683 158 q 714 78 714 111 q 699 24 714 47 q 657 0 685 0 l 163 0 q 107 15 131 0 q 83 57 83 31 m 251 1261 q 268 1308 251 1286 q 307 1329 285 1329 q 325 1326 311 1329 l 508 1238 q 532 1194 532 1225 q 515 1149 532 1171 q 476 1126 499 1126 q 457 1132 471 1126 l 276 1219 q 251 1261 251 1231 z "},"É":{"ha":735,"x_min":83,"x_max":714,"o":"m 83 57 l 83 958 q 107 1000 83 985 q 163 1015 131 1015 l 657 1015 q 699 992 685 1015 q 714 938 714 968 q 699 881 714 904 q 657 857 683 857 l 264 857 l 264 579 l 475 579 q 517 558 501 579 q 532 507 532 536 q 517 459 532 481 q 475 438 503 438 l 264 438 l 264 158 l 657 158 q 699 135 683 158 q 714 78 714 111 q 699 24 714 47 q 657 0 685 0 l 163 0 q 107 15 131 0 q 83 57 83 31 m 285 1194 q 308 1238 285 1225 l 492 1326 q 510 1329 506 1329 q 549 1308 532 1329 q 565 1261 565 1286 q 540 1219 565 1231 l 360 1132 q 340 1126 346 1126 q 301 1149 318 1126 q 285 1194 285 1171 z "},"Ê":{"ha":736,"x_min":83,"x_max":714,"o":"m 83 57 l 83 958 q 107 1000 83 985 q 163 1015 131 1015 l 657 1015 q 699 992 685 1015 q 714 938 714 968 q 699 881 714 904 q 657 857 683 857 l 264 857 l 264 579 l 475 579 q 517 558 501 579 q 532 507 532 536 q 517 459 532 481 q 475 438 503 438 l 264 438 l 264 158 l 657 158 q 699 135 683 158 q 714 78 714 111 q 699 24 714 47 q 657 0 685 0 l 163 0 q 107 15 131 0 q 83 57 83 31 m 211 1193 q 242 1244 211 1229 l 386 1322 q 410 1329 397 1329 q 433 1322 419 1329 l 578 1246 q 607 1192 607 1228 q 596 1154 607 1171 q 568 1138 585 1138 q 554 1142 561 1138 l 410 1219 l 265 1142 q 250 1138 257 1138 q 222 1154 233 1138 q 211 1193 211 1171 z "},"Ë":{"ha":736,"x_min":83,"x_max":714,"o":"m 83 57 l 83 958 q 107 1000 83 985 q 163 1015 131 1015 l 657 1015 q 699 992 685 1015 q 714 938 714 968 q 699 881 714 904 q 657 857 683 857 l 264 857 l 264 579 l 475 579 q 517 558 501 579 q 532 507 532 536 q 517 459 532 481 q 475 438 503 438 l 264 438 l 264 158 l 657 158 q 699 135 683 158 q 714 78 714 111 q 699 24 714 47 q 657 0 685 0 l 163 0 q 107 15 131 0 q 83 57 83 31 m 249 1161 q 238 1172 249 1161 q 228 1213 228 1183 q 249 1263 228 1242 q 299 1285 269 1285 q 348 1263 328 1285 q 368 1213 368 1242 q 348 1161 368 1183 q 299 1139 328 1139 q 249 1161 269 1139 m 456 1161 q 445 1172 456 1161 q 435 1213 435 1183 q 456 1263 435 1242 q 507 1285 476 1285 q 556 1263 535 1285 q 576 1213 576 1242 q 556 1161 576 1183 q 507 1139 535 1139 q 456 1161 478 1139 z "},"Ì":{"ha":347,"x_min":24,"x_max":304,"o":"m 24 1261 q 40 1308 24 1286 q 79 1329 57 1329 q 97 1326 83 1329 l 281 1238 q 304 1194 304 1225 q 288 1149 304 1171 q 249 1126 271 1126 q 229 1132 243 1126 l 49 1219 q 24 1261 24 1231 m 83 57 l 83 960 q 110 1001 83 988 q 174 1015 136 1015 q 238 1001 211 1015 q 264 960 264 988 l 264 57 q 237 15 264 31 q 174 0 210 0 q 110 15 136 0 q 83 57 83 31 z "},"Í":{"ha":347,"x_min":43,"x_max":324,"o":"m 43 1194 q 67 1238 43 1225 l 250 1326 q 268 1329 264 1329 q 307 1308 290 1329 q 324 1261 324 1286 q 299 1219 324 1231 l 118 1132 q 99 1126 104 1126 q 60 1149 76 1126 q 43 1194 43 1171 m 83 57 l 83 960 q 110 1001 83 988 q 174 1015 136 1015 q 238 1001 211 1015 q 264 960 264 988 l 264 57 q 237 15 264 31 q 174 0 210 0 q 110 15 136 0 q 83 57 83 31 z "},"Î":{"ha":347,"x_min":-22,"x_max":374,"o":"m -22 1193 q 8 1244 -22 1229 l 153 1322 q 176 1329 164 1329 q 200 1322 186 1329 l 344 1246 q 374 1192 374 1228 q 363 1154 374 1171 q 335 1138 351 1138 q 321 1142 328 1138 l 176 1219 l 32 1142 q 17 1138 24 1138 q -11 1154 0 1138 q -22 1193 -22 1171 m 83 57 l 83 960 q 110 1001 83 988 q 174 1015 136 1015 q 238 1001 211 1015 q 264 960 264 988 l 264 57 q 237 15 264 31 q 174 0 210 0 q 110 15 136 0 q 83 57 83 31 z "},"Ï":{"ha":347,"x_min":1,"x_max":350,"o":"m 22 1161 q 12 1172 22 1161 q 1 1213 1 1183 q 22 1263 1 1242 q 72 1285 43 1285 q 122 1263 101 1285 q 142 1213 142 1242 q 122 1161 142 1183 q 72 1139 101 1139 q 22 1161 43 1139 m 83 57 l 83 960 q 110 1001 83 988 q 174 1015 136 1015 q 238 1001 211 1015 q 264 960 264 988 l 264 57 q 237 15 264 31 q 174 0 210 0 q 110 15 136 0 q 83 57 83 31 m 230 1161 q 219 1172 230 1161 q 208 1213 208 1183 q 229 1263 208 1242 q 281 1285 250 1285 q 329 1263 308 1285 q 350 1213 350 1242 q 329 1161 350 1183 q 281 1139 308 1139 q 230 1161 251 1139 z "},"Ð":{"ha":815,"x_min":-10,"x_max":744,"o":"m 3 485 q -3 495 3 485 q -10 531 -10 504 q 3 576 -10 557 q 36 596 15 596 l 93 596 l 93 960 q 115 999 93 982 q 172 1015 138 1015 l 418 1015 q 656 939 567 1015 q 744 697 744 863 l 744 318 q 656 76 744 153 q 418 0 567 0 l 172 0 q 115 17 138 0 q 93 56 93 33 l 93 467 l 36 467 q 3 485 15 467 m 274 158 l 418 158 q 564 318 564 158 l 564 697 q 418 857 564 857 l 274 857 l 274 596 l 381 596 q 415 576 403 596 q 428 531 428 557 q 415 485 428 504 q 381 467 403 467 l 274 467 l 274 158 z "},"Ñ":{"ha":840,"x_min":83,"x_max":757,"o":"m 83 57 l 83 958 q 110 1001 83 986 q 174 1015 136 1015 q 250 997 224 1015 q 308 919 276 979 l 576 401 l 576 960 q 603 1001 576 988 q 667 1015 629 1015 q 731 1001 704 1015 q 757 960 757 988 l 757 57 q 730 15 757 31 q 667 0 703 0 q 563 57 593 0 l 264 615 l 264 57 q 237 15 264 31 q 174 0 210 0 q 110 15 136 0 q 83 57 83 31 m 172 1219 q 197 1281 172 1258 q 245 1309 222 1304 q 292 1314 268 1314 q 393 1294 333 1314 q 489 1274 453 1274 q 556 1290 522 1274 q 601 1307 590 1307 q 636 1286 625 1307 q 647 1249 647 1265 q 634 1198 647 1218 q 599 1169 621 1178 q 561 1157 578 1160 q 529 1154 544 1154 q 422 1174 481 1154 q 332 1194 364 1194 q 264 1178 299 1194 q 218 1161 229 1161 q 183 1182 194 1161 q 172 1219 172 1203 z "},"Ò":{"ha":794,"x_min":72,"x_max":724,"o":"m 72 310 l 72 697 q 160 939 72 863 q 397 1015 249 1015 q 635 939 546 1015 q 724 697 724 863 l 724 310 q 635 68 724 144 q 397 -8 546 -8 q 160 68 249 -8 q 72 310 72 144 m 240 1261 q 257 1308 240 1286 q 296 1329 274 1329 q 314 1326 300 1329 l 497 1238 q 521 1194 521 1225 q 504 1149 521 1171 q 465 1126 488 1126 q 446 1132 460 1126 l 265 1219 q 240 1261 240 1231 m 253 310 q 397 150 253 150 q 543 310 543 150 l 543 697 q 397 857 543 857 q 253 697 253 857 l 253 310 z "},"Ó":{"ha":794,"x_min":72,"x_max":724,"o":"m 72 310 l 72 697 q 160 939 72 863 q 397 1015 249 1015 q 635 939 546 1015 q 724 697 724 863 l 724 310 q 635 68 724 144 q 397 -8 546 -8 q 160 68 249 -8 q 72 310 72 144 m 253 310 q 397 150 253 150 q 543 310 543 150 l 543 697 q 397 857 543 857 q 253 697 253 857 l 253 310 m 306 1194 q 329 1238 306 1225 l 513 1326 q 531 1329 526 1329 q 569 1308 553 1329 q 586 1261 586 1286 q 561 1219 586 1231 l 381 1132 q 361 1126 367 1126 q 322 1149 339 1126 q 306 1194 306 1171 z "},"Ô":{"ha":794,"x_min":72,"x_max":724,"o":"m 72 310 l 72 697 q 160 939 72 863 q 397 1015 249 1015 q 635 939 546 1015 q 724 697 724 863 l 724 310 q 635 68 724 144 q 397 -8 546 -8 q 160 68 249 -8 q 72 310 72 144 m 199 1193 q 229 1244 199 1229 l 374 1322 q 397 1329 385 1329 q 421 1322 407 1329 l 565 1246 q 594 1192 594 1228 q 583 1154 594 1171 q 556 1138 572 1138 q 542 1142 547 1138 l 397 1219 l 253 1142 q 238 1138 244 1138 q 210 1154 221 1138 q 199 1193 199 1171 m 253 310 q 397 150 253 150 q 543 310 543 150 l 543 697 q 397 857 543 857 q 253 697 253 857 l 253 310 z "},"Õ":{"ha":794,"x_min":72,"x_max":724,"o":"m 72 310 l 72 697 q 160 939 72 863 q 397 1015 249 1015 q 635 939 546 1015 q 724 697 724 863 l 724 310 q 635 68 724 144 q 397 -8 546 -8 q 160 68 249 -8 q 72 310 72 144 m 160 1219 q 185 1281 160 1258 q 233 1309 210 1304 q 279 1314 256 1314 q 379 1294 319 1314 q 476 1274 439 1274 q 544 1290 510 1274 q 589 1307 578 1307 q 624 1286 613 1307 q 635 1249 635 1265 q 622 1198 635 1218 q 587 1169 608 1178 q 549 1157 565 1160 q 517 1154 532 1154 q 410 1174 468 1154 q 319 1194 351 1194 q 251 1178 286 1194 q 206 1161 217 1161 q 171 1182 182 1161 q 160 1219 160 1203 m 253 310 q 397 150 253 150 q 543 310 543 150 l 543 697 q 397 857 543 857 q 253 697 253 857 l 253 310 z "},"Ö":{"ha":794,"x_min":72,"x_max":724,"o":"m 72 310 l 72 697 q 160 939 72 863 q 397 1015 249 1015 q 635 939 546 1015 q 724 697 724 863 l 724 310 q 635 68 724 144 q 397 -8 546 -8 q 160 68 249 -8 q 72 310 72 144 m 246 1161 q 235 1172 246 1161 q 225 1213 225 1183 q 246 1263 225 1242 q 296 1285 267 1285 q 345 1263 325 1285 q 365 1213 365 1242 q 345 1161 365 1183 q 296 1139 325 1139 q 246 1161 267 1139 m 253 310 q 397 150 253 150 q 543 310 543 150 l 543 697 q 397 857 543 857 q 253 697 253 857 l 253 310 m 453 1161 q 443 1172 453 1161 q 432 1213 432 1183 q 453 1263 432 1242 q 504 1285 474 1285 q 553 1263 532 1285 q 574 1213 574 1242 q 553 1161 574 1183 q 504 1139 532 1139 q 453 1161 475 1139 z "},"×":{"ha":565,"x_min":58,"x_max":507,"o":"m 58 242 q 72 276 58 263 l 189 382 l 74 485 q 60 521 60 501 q 85 578 60 553 q 143 604 111 604 q 179 590 163 604 l 282 486 l 386 590 q 422 604 400 604 q 479 578 453 604 q 506 522 506 553 q 492 485 506 501 l 376 382 l 493 276 q 507 240 507 263 q 481 184 507 211 q 424 157 454 157 q 388 171 401 157 l 282 276 l 178 171 q 142 157 164 157 q 86 184 114 157 q 58 242 58 211 z "},"Ø":{"ha":796,"x_min":72,"x_max":724,"o":"m 72 310 l 72 697 q 160 939 72 863 q 397 1015 249 1015 q 564 983 494 1015 l 593 1042 q 643 1071 608 1071 q 691 1053 669 1071 q 713 1008 713 1035 q 707 983 713 994 l 667 903 q 724 697 724 824 l 724 310 q 635 68 724 144 q 397 -8 546 -8 q 232 22 297 -8 l 208 -25 q 154 -56 193 -56 q 106 -37 125 -56 q 88 6 88 -18 q 94 29 88 18 l 131 101 q 72 310 72 179 m 253 350 l 489 831 q 397 857 454 857 q 253 697 253 857 l 253 350 m 307 174 q 397 150 340 150 q 543 310 543 150 l 543 651 l 307 174 z "},"Ù":{"ha":825,"x_min":79,"x_max":746,"o":"m 79 310 l 79 960 q 106 1001 79 988 q 169 1015 132 1015 q 233 1001 207 1015 q 260 960 260 988 l 260 310 q 413 150 260 150 q 565 310 565 150 l 565 960 q 592 1001 565 988 q 656 1015 618 1015 q 719 1001 693 1015 q 746 960 746 988 l 746 310 q 655 69 746 146 q 413 -8 564 -8 q 170 68 261 -8 q 79 310 79 144 m 249 1261 q 265 1308 249 1286 q 304 1329 282 1329 q 322 1326 308 1329 l 506 1238 q 529 1194 529 1225 q 513 1149 529 1171 q 474 1126 496 1126 q 454 1132 468 1126 l 274 1219 q 249 1261 249 1231 z "},"Ú":{"ha":825,"x_min":79,"x_max":746,"o":"m 79 310 l 79 960 q 106 1001 79 988 q 169 1015 132 1015 q 233 1001 207 1015 q 260 960 260 988 l 260 310 q 413 150 260 150 q 565 310 565 150 l 565 960 q 592 1001 565 988 q 656 1015 618 1015 q 719 1001 693 1015 q 746 960 746 988 l 746 310 q 655 69 746 146 q 413 -8 564 -8 q 170 68 261 -8 q 79 310 79 144 m 303 1194 q 326 1238 303 1225 l 510 1326 q 528 1329 524 1329 q 567 1308 550 1329 q 583 1261 583 1286 q 558 1219 583 1231 l 378 1132 q 358 1126 364 1126 q 319 1149 336 1126 q 303 1194 303 1171 z "},"Û":{"ha":825,"x_min":79,"x_max":746,"o":"m 79 310 l 79 960 q 106 1001 79 988 q 169 1015 132 1015 q 233 1001 207 1015 q 260 960 260 988 l 260 310 q 413 150 260 150 q 565 310 565 150 l 565 960 q 592 1001 565 988 q 656 1015 618 1015 q 719 1001 693 1015 q 746 960 746 988 l 746 310 q 655 69 746 146 q 413 -8 564 -8 q 170 68 261 -8 q 79 310 79 144 m 207 1193 q 238 1244 207 1229 l 382 1322 q 406 1329 393 1329 q 429 1322 415 1329 l 574 1246 q 603 1192 603 1228 q 592 1154 603 1171 q 564 1138 581 1138 q 550 1142 556 1138 l 406 1219 l 261 1142 q 246 1138 253 1138 q 218 1154 229 1138 q 207 1193 207 1171 z "},"Ü":{"ha":825,"x_min":79,"x_max":746,"o":"m 79 310 l 79 960 q 106 1001 79 988 q 169 1015 132 1015 q 233 1001 207 1015 q 260 960 260 988 l 260 310 q 413 150 260 150 q 565 310 565 150 l 565 960 q 592 1001 565 988 q 656 1015 618 1015 q 719 1001 693 1015 q 746 960 746 988 l 746 310 q 655 69 746 146 q 413 -8 564 -8 q 170 68 261 -8 q 79 310 79 144 m 258 1161 q 248 1172 258 1161 q 238 1213 238 1183 q 258 1263 238 1242 q 308 1285 279 1285 q 358 1263 338 1285 q 378 1213 378 1242 q 358 1161 378 1183 q 308 1139 338 1139 q 258 1161 279 1139 m 466 1161 q 455 1172 466 1161 q 444 1213 444 1183 q 465 1263 444 1242 q 517 1285 486 1285 q 565 1263 544 1285 q 586 1213 586 1242 q 565 1161 586 1183 q 517 1139 544 1139 q 466 1161 488 1139 z "},"Ý":{"ha":797,"x_min":13,"x_max":785,"o":"m 13 940 q 52 993 13 971 q 132 1015 92 1015 q 188 979 169 1015 l 399 578 l 611 979 q 665 1015 631 1015 q 745 993 706 1015 q 785 940 785 971 q 781 922 785 929 l 494 425 q 489 407 489 417 l 489 57 q 463 15 489 31 q 399 0 436 0 q 335 15 363 0 q 308 57 308 31 l 308 407 q 304 425 308 419 l 17 922 q 13 940 13 933 m 281 1194 q 304 1238 281 1225 l 488 1326 q 506 1329 501 1329 q 544 1308 528 1329 q 561 1261 561 1286 q 536 1219 561 1231 l 356 1132 q 336 1126 342 1126 q 297 1149 314 1126 q 281 1194 281 1171 z "},"Þ":{"ha":722,"x_min":85,"x_max":689,"o":"m 85 57 l 85 978 q 109 1018 85 1003 q 169 1033 133 1033 q 238 1018 211 1033 q 264 978 264 1003 l 264 758 q 335 833 288 803 q 443 864 382 864 q 617 785 544 864 q 689 592 689 707 l 689 458 q 617 265 689 347 q 450 183 544 183 q 336 216 389 183 q 264 293 283 249 l 264 57 q 236 18 264 36 q 172 0 208 0 q 110 17 135 0 q 85 57 85 35 m 264 443 q 301 376 264 413 q 389 340 339 340 q 473 375 436 340 q 510 458 510 410 l 510 592 q 473 673 510 639 q 386 707 436 707 q 301 675 338 707 q 264 592 264 643 l 264 443 z "},"ß":{"ha":833,"x_min":4,"x_max":794,"o":"m 16 549 q 10 558 16 549 q 4 594 4 568 q 16 640 4 621 q 50 660 28 660 l 128 660 l 128 788 q 194 988 128 910 q 399 1067 260 1067 q 596 1001 519 1067 q 672 811 672 936 q 647 677 672 739 q 578 593 621 615 q 727 499 660 578 q 794 310 794 419 l 794 292 q 706 57 794 142 q 489 -28 618 -28 q 440 -26 460 -28 q 398 -16 421 -24 q 363 10 375 -8 q 351 56 351 28 q 363 113 351 85 q 394 140 374 140 q 431 132 401 140 q 488 124 461 124 q 585 164 550 124 q 619 276 619 204 l 619 294 q 451 499 619 460 q 409 521 422 507 q 396 572 396 535 q 403 610 396 597 q 421 628 411 624 q 453 639 431 633 q 525 769 525 653 q 413 910 525 910 q 307 788 307 910 l 307 56 q 280 15 307 31 q 215 0 253 0 q 153 15 178 0 q 128 56 128 31 l 128 529 l 50 529 q 16 549 28 529 z "},"à":{"ha":654,"x_min":31,"x_max":590,"o":"m 31 172 q 114 331 31 285 q 354 376 197 376 l 411 376 l 411 394 q 381 484 411 446 q 289 522 351 522 q 182 501 226 522 q 131 479 138 479 q 86 507 103 479 q 69 568 69 535 q 141 638 69 608 q 292 668 213 668 q 517 591 443 668 q 590 397 590 514 l 590 57 q 565 17 590 33 q 503 0 540 0 q 445 17 468 0 q 422 57 422 33 l 422 97 q 211 -12 326 -12 q 81 35 132 -12 q 31 172 31 82 m 175 924 q 192 970 175 949 q 231 992 208 992 q 249 989 235 992 l 432 900 q 456 857 456 889 q 439 811 456 833 q 400 789 422 789 q 381 794 394 789 l 200 882 q 175 924 175 893 m 210 196 q 230 140 210 158 q 283 121 250 121 q 369 163 328 121 q 411 254 411 204 l 411 283 l 390 283 q 258 266 306 283 q 210 196 210 249 z "},"á":{"ha":654,"x_min":31,"x_max":590,"o":"m 31 172 q 114 331 31 285 q 354 376 197 376 l 411 376 l 411 394 q 381 484 411 446 q 289 522 351 522 q 182 501 226 522 q 131 479 138 479 q 86 507 103 479 q 69 568 69 535 q 141 638 69 608 q 292 668 213 668 q 517 591 443 668 q 590 397 590 514 l 590 57 q 565 17 590 33 q 503 0 540 0 q 445 17 468 0 q 422 57 422 33 l 422 97 q 211 -12 326 -12 q 81 35 132 -12 q 31 172 31 82 m 197 857 q 221 900 197 889 l 404 989 q 422 992 418 992 q 461 970 444 992 q 478 924 478 949 q 453 882 478 893 l 272 794 q 253 789 258 789 q 214 811 231 789 q 197 857 197 833 m 210 196 q 230 140 210 158 q 283 121 250 121 q 369 163 328 121 q 411 254 411 204 l 411 283 l 390 283 q 258 266 306 283 q 210 196 210 249 z "},"â":{"ha":654,"x_min":31,"x_max":590,"o":"m 31 172 q 114 331 31 285 q 354 376 197 376 l 411 376 l 411 394 q 381 484 411 446 q 289 522 351 522 q 182 501 226 522 q 131 479 138 479 q 86 507 103 479 q 69 568 69 535 q 141 638 69 608 q 292 668 213 668 q 517 591 443 668 q 590 397 590 514 l 590 57 q 565 17 590 33 q 503 0 540 0 q 445 17 468 0 q 422 57 422 33 l 422 97 q 211 -12 326 -12 q 81 35 132 -12 q 31 172 31 82 m 108 856 q 139 907 108 892 l 283 985 q 307 992 294 992 q 331 985 317 992 l 475 908 q 504 854 504 890 q 493 817 504 833 q 465 800 482 800 q 451 804 458 800 l 307 882 l 163 804 q 147 800 154 800 q 119 817 131 800 q 108 856 108 833 m 210 196 q 230 140 210 158 q 283 121 250 121 q 369 163 328 121 q 411 254 411 204 l 411 283 l 390 283 q 258 266 306 283 q 210 196 210 249 z "},"ã":{"ha":654,"x_min":31,"x_max":590,"o":"m 31 172 q 114 331 31 285 q 354 376 197 376 l 411 376 l 411 394 q 381 484 411 446 q 289 522 351 522 q 182 501 226 522 q 131 479 138 479 q 86 507 103 479 q 69 568 69 535 q 141 638 69 608 q 292 668 213 668 q 517 591 443 668 q 590 397 590 514 l 590 57 q 565 17 590 33 q 503 0 540 0 q 445 17 468 0 q 422 57 422 33 l 422 97 q 211 -12 326 -12 q 81 35 132 -12 q 31 172 31 82 m 78 882 q 103 944 78 921 q 151 972 128 967 q 197 976 174 976 q 299 956 239 976 q 394 936 358 936 q 462 953 428 936 q 507 969 496 969 q 542 949 531 969 q 553 911 553 928 q 540 860 553 881 q 505 831 526 840 q 467 819 483 822 q 435 817 450 817 q 328 837 386 817 q 238 857 269 857 q 169 840 204 857 q 124 824 135 824 q 89 844 100 824 q 78 882 78 865 m 210 196 q 230 140 210 158 q 283 121 250 121 q 369 163 328 121 q 411 254 411 204 l 411 283 l 390 283 q 258 266 306 283 q 210 196 210 249 z "},"ä":{"ha":654,"x_min":31,"x_max":590,"o":"m 31 172 q 114 331 31 285 q 354 376 197 376 l 411 376 l 411 394 q 381 484 411 446 q 289 522 351 522 q 182 501 226 522 q 131 479 138 479 q 86 507 103 479 q 69 568 69 535 q 141 638 69 608 q 292 668 213 668 q 517 591 443 668 q 590 397 590 514 l 590 57 q 565 17 590 33 q 503 0 540 0 q 445 17 468 0 q 422 57 422 33 l 422 97 q 211 -12 326 -12 q 81 35 132 -12 q 31 172 31 82 m 160 824 q 149 835 160 824 q 139 875 139 846 q 160 926 139 904 q 210 947 181 947 q 259 926 239 947 q 279 875 279 904 q 259 824 279 846 q 210 801 239 801 q 160 824 181 801 m 210 196 q 230 140 210 158 q 283 121 250 121 q 369 163 328 121 q 411 254 411 204 l 411 283 l 390 283 q 258 266 306 283 q 210 196 210 249 m 367 824 q 357 835 367 824 q 346 875 346 846 q 367 926 346 904 q 418 947 388 947 q 467 926 446 947 q 488 875 488 904 q 467 824 488 846 q 418 801 446 801 q 367 824 389 801 z "},"å":{"ha":654,"x_min":31,"x_max":590,"o":"m 31 172 q 114 331 31 285 q 354 376 197 376 l 411 376 l 411 394 q 381 484 411 446 q 289 522 351 522 q 182 501 226 522 q 131 479 138 479 q 86 507 103 479 q 69 568 69 535 q 141 638 69 608 q 292 668 213 668 q 517 591 443 668 q 590 397 590 514 l 590 57 q 565 17 590 33 q 503 0 540 0 q 445 17 468 0 q 422 57 422 33 l 422 97 q 211 -12 326 -12 q 81 35 132 -12 q 31 172 31 82 m 181 931 q 220 1026 181 985 q 315 1068 260 1068 q 412 1026 371 1068 q 453 931 453 985 q 411 833 453 875 q 315 790 369 790 q 221 833 261 790 q 181 931 181 875 m 210 196 q 230 140 210 158 q 283 121 250 121 q 369 163 328 121 q 411 254 411 204 l 411 283 l 390 283 q 258 266 306 283 q 210 196 210 249 m 251 929 q 271 883 251 904 q 317 863 290 863 q 360 883 342 863 q 378 929 378 903 q 360 973 378 954 q 317 992 342 992 q 271 972 290 992 q 251 929 251 953 z "},"æ":{"ha":1039,"x_min":31,"x_max":1001,"o":"m 31 171 q 114 331 31 285 q 354 376 197 376 l 410 376 l 410 396 q 380 485 410 447 q 288 524 350 524 q 181 501 225 524 q 131 479 138 479 q 85 507 103 479 q 68 569 68 535 q 140 639 68 610 q 292 668 213 668 q 508 560 438 668 q 714 668 593 668 q 916 595 831 668 q 1001 403 1001 522 q 992 338 1001 363 q 962 301 982 313 q 922 287 942 290 q 871 283 903 283 l 590 283 l 590 263 q 635 166 590 203 q 751 129 681 129 q 856 156 803 129 q 924 182 908 182 q 972 155 953 182 q 990 103 990 128 q 917 25 990 63 q 743 -12 844 -12 q 486 121 576 -12 q 373 23 438 58 q 243 -12 308 -12 q 91 35 151 -12 q 31 171 31 82 m 210 194 q 230 140 210 158 q 283 121 250 121 q 369 163 328 121 q 410 254 410 204 l 410 283 l 389 283 q 300 278 335 283 q 238 253 265 274 q 210 194 210 232 m 590 389 l 793 389 q 825 397 817 389 q 833 425 833 404 q 798 505 833 474 q 711 536 763 536 q 626 506 661 536 q 590 428 590 476 l 590 389 z "},"ç":{"ha":603,"x_min":47,"x_max":578,"o":"m 47 272 l 47 383 q 122 590 47 511 q 347 668 197 668 q 506 635 442 668 q 569 560 569 601 q 549 501 569 531 q 499 472 528 472 q 449 492 490 472 q 361 511 408 511 q 226 383 226 511 l 226 272 q 363 144 226 144 q 450 165 410 144 q 501 186 490 186 q 556 158 535 186 q 578 101 578 131 q 522 29 578 63 q 382 -11 465 -4 l 364 -71 q 467 -103 432 -74 q 501 -178 501 -133 q 466 -262 501 -224 q 356 -300 431 -300 q 276 -290 314 -300 q 238 -260 238 -279 q 247 -228 238 -247 q 269 -208 256 -208 q 299 -218 274 -208 q 350 -228 324 -228 q 415 -182 415 -228 q 349 -131 415 -136 l 272 -124 l 304 -10 q 112 77 176 1 q 47 272 47 153 z "},"è":{"ha":672,"x_min":44,"x_max":635,"o":"m 44 272 l 44 390 q 133 586 44 504 q 349 668 222 668 q 551 594 467 668 q 635 407 635 519 q 624 338 635 365 q 592 300 614 311 q 553 286 571 289 q 506 283 535 283 l 224 283 l 224 263 q 268 166 224 203 q 386 129 313 129 q 490 156 439 129 q 557 182 542 182 q 606 155 586 182 q 625 103 625 128 q 555 26 625 64 q 381 -12 485 -12 q 138 66 232 -12 q 44 272 44 144 m 188 924 q 204 970 188 949 q 243 992 221 992 q 261 989 247 992 l 444 900 q 468 857 468 889 q 451 811 468 833 q 413 789 435 789 q 393 794 407 789 l 213 882 q 188 924 188 893 m 224 389 l 426 389 q 458 397 449 389 q 467 426 467 404 q 431 506 467 475 q 344 536 396 536 q 260 506 296 536 q 224 428 224 476 l 224 389 z "},"é":{"ha":672,"x_min":44,"x_max":635,"o":"m 44 272 l 44 390 q 133 586 44 504 q 349 668 222 668 q 551 594 467 668 q 635 407 635 519 q 624 338 635 365 q 592 300 614 311 q 553 286 571 289 q 506 283 535 283 l 224 283 l 224 263 q 268 166 224 203 q 386 129 313 129 q 490 156 439 129 q 557 182 542 182 q 606 155 586 182 q 625 103 625 128 q 555 26 625 64 q 381 -12 485 -12 q 138 66 232 -12 q 44 272 44 144 m 210 857 q 233 900 210 889 l 417 989 q 435 992 431 992 q 474 970 457 992 q 490 924 490 949 q 465 882 490 893 l 285 794 q 265 789 271 789 q 226 811 243 789 q 210 857 210 833 m 224 389 l 426 389 q 458 397 449 389 q 467 426 467 404 q 431 506 467 475 q 344 536 396 536 q 260 506 296 536 q 224 428 224 476 l 224 389 z "},"ê":{"ha":672,"x_min":44,"x_max":635,"o":"m 44 272 l 44 390 q 133 586 44 504 q 349 668 222 668 q 551 594 467 668 q 635 407 635 519 q 624 338 635 365 q 592 300 614 311 q 553 286 571 289 q 506 283 535 283 l 224 283 l 224 263 q 268 166 224 203 q 386 129 313 129 q 490 156 439 129 q 557 182 542 182 q 606 155 586 182 q 625 103 625 128 q 555 26 625 64 q 381 -12 485 -12 q 138 66 232 -12 q 44 272 44 144 m 147 856 q 178 907 147 892 l 322 985 q 346 992 333 992 q 369 985 356 992 l 514 908 q 543 854 543 890 q 532 817 543 833 q 504 800 521 800 q 490 804 497 800 l 346 882 l 201 804 q 186 800 193 800 q 158 817 169 800 q 147 856 147 833 m 224 389 l 426 389 q 458 397 449 389 q 467 426 467 404 q 431 506 467 475 q 344 536 396 536 q 260 506 296 536 q 224 428 224 476 l 224 389 z "},"ë":{"ha":672,"x_min":44,"x_max":635,"o":"m 44 272 l 44 390 q 133 586 44 504 q 349 668 222 668 q 551 594 467 668 q 635 407 635 519 q 624 338 635 365 q 592 300 614 311 q 553 286 571 289 q 506 283 535 283 l 224 283 l 224 263 q 268 166 224 203 q 386 129 313 129 q 490 156 439 129 q 557 182 542 182 q 606 155 586 182 q 625 103 625 128 q 555 26 625 64 q 381 -12 485 -12 q 138 66 232 -12 q 44 272 44 144 m 190 824 q 180 835 190 824 q 169 875 169 846 q 190 926 169 904 q 240 947 211 947 q 290 926 269 947 q 310 875 310 904 q 290 824 310 846 q 240 801 269 801 q 190 824 211 801 m 224 389 l 426 389 q 458 397 449 389 q 467 426 467 404 q 431 506 467 475 q 344 536 396 536 q 260 506 296 536 q 224 428 224 476 l 224 389 m 398 824 q 387 835 398 824 q 376 875 376 846 q 397 926 376 904 q 449 947 418 947 q 497 926 476 947 q 518 875 518 904 q 497 824 518 846 q 449 801 476 801 q 398 824 419 801 z "},"ì":{"ha":318,"x_min":-3,"x_max":278,"o":"m -3 924 q 14 970 -3 949 q 53 992 31 992 q 71 989 57 992 l 254 900 q 278 857 278 889 q 261 811 278 833 q 222 789 244 789 q 203 794 217 789 l 22 882 q -3 924 -3 893 m 69 57 l 69 604 q 94 644 69 629 q 158 660 119 660 q 223 644 197 660 q 249 604 249 629 l 249 57 q 222 18 249 36 q 158 0 194 0 q 95 17 121 0 q 69 57 69 35 z "},"í":{"ha":318,"x_min":42,"x_max":322,"o":"m 42 857 q 65 900 42 889 l 249 989 q 267 992 263 992 q 306 970 289 992 q 322 924 322 949 q 297 882 322 893 l 117 794 q 97 789 103 789 q 58 811 75 789 q 42 857 42 833 m 69 57 l 69 604 q 94 644 69 629 q 158 660 119 660 q 223 644 197 660 q 249 604 249 629 l 249 57 q 222 18 249 36 q 158 0 194 0 q 95 17 121 0 q 69 57 69 35 z "},"î":{"ha":318,"x_min":-39,"x_max":357,"o":"m -39 856 q -8 907 -39 892 l 136 985 q 160 992 147 992 q 183 985 169 992 l 328 908 q 357 854 357 890 q 346 817 357 833 q 318 800 335 800 q 304 804 311 800 l 160 882 l 15 804 q 0 800 7 800 q -28 817 -17 800 q -39 856 -39 833 m 69 57 l 69 604 q 94 644 69 629 q 158 660 119 660 q 223 644 197 660 q 249 604 249 629 l 249 57 q 222 18 249 36 q 158 0 194 0 q 95 17 121 0 q 69 57 69 35 z "},"ï":{"ha":318,"x_min":-11,"x_max":338,"o":"m 10 824 q -1 835 10 824 q -11 875 -11 846 q 10 926 -11 904 q 60 947 31 947 q 109 926 89 947 q 129 875 129 904 q 109 824 129 846 q 60 801 89 801 q 10 824 31 801 m 69 57 l 69 604 q 94 644 69 629 q 158 660 119 660 q 223 644 197 660 q 249 604 249 629 l 249 57 q 222 18 249 36 q 158 0 194 0 q 95 17 121 0 q 69 57 69 35 m 217 824 q 207 835 217 824 q 196 875 196 846 q 217 926 196 904 q 268 947 238 947 q 317 926 296 947 q 338 875 338 904 q 317 824 338 846 q 268 801 296 801 q 217 824 239 801 z "},"ð":{"ha":711,"x_min":44,"x_max":650,"o":"m 44 272 l 44 386 q 117 585 44 501 q 290 668 189 668 q 399 637 350 668 q 471 560 449 606 q 408 774 467 674 l 335 731 q 317 725 328 725 q 274 749 294 725 q 253 797 253 772 q 274 832 253 819 l 338 869 q 286 897 317 892 q 249 960 249 929 q 271 1017 249 989 q 338 1046 293 1046 q 492 963 419 1046 l 569 1010 q 588 1014 578 1014 q 629 992 610 1014 q 649 944 649 969 q 629 908 649 919 l 556 864 q 650 483 650 683 l 650 272 q 559 74 650 160 q 347 -12 468 -12 q 135 74 226 -12 q 44 272 44 160 m 224 272 q 260 183 224 222 q 347 144 297 144 q 435 183 399 144 q 471 272 471 222 l 471 388 q 433 476 471 440 q 346 511 394 511 q 259 473 294 511 q 224 386 224 435 l 224 272 z "},"ñ":{"ha":726,"x_min":69,"x_max":663,"o":"m 69 57 l 69 604 q 94 644 69 629 q 158 660 118 660 q 215 644 192 660 q 238 604 238 629 l 238 563 q 309 638 260 607 q 424 668 358 668 q 591 585 519 668 q 663 386 663 501 l 663 57 q 635 15 663 31 q 572 0 608 0 q 510 15 538 0 q 483 57 483 31 l 483 386 q 447 473 483 435 q 363 511 411 511 q 283 476 317 511 q 249 386 249 442 l 249 57 q 222 18 249 36 q 158 0 194 0 q 95 17 121 0 q 69 57 69 35 m 124 882 q 149 944 124 921 q 197 972 174 967 q 243 976 219 976 q 343 956 283 976 q 440 936 403 936 q 508 953 474 936 q 553 969 542 969 q 588 949 576 969 q 599 911 599 928 q 585 860 599 881 q 551 831 572 840 q 513 819 529 822 q 481 817 496 817 q 374 837 432 817 q 283 857 315 857 q 215 840 250 857 q 169 824 181 824 q 135 844 146 824 q 124 882 124 865 z "},"ò":{"ha":692,"x_min":44,"x_max":647,"o":"m 44 272 l 44 386 q 133 584 44 500 q 346 668 222 668 q 557 585 467 668 q 647 386 647 501 l 647 272 q 557 74 647 160 q 346 -12 467 -12 q 135 74 225 -12 q 44 272 44 160 m 189 924 q 206 970 189 949 q 244 992 222 992 q 263 989 249 992 l 446 900 q 469 857 469 889 q 453 811 469 833 q 414 789 436 789 q 394 794 408 789 l 214 882 q 189 924 189 893 m 224 272 q 260 183 224 222 q 346 144 296 144 q 431 183 394 144 q 468 272 468 222 l 468 386 q 431 472 468 433 q 346 511 394 511 q 260 473 296 511 q 224 386 224 435 l 224 272 z "},"ó":{"ha":692,"x_min":44,"x_max":647,"o":"m 44 272 l 44 386 q 133 584 44 500 q 346 668 222 668 q 557 585 467 668 q 647 386 647 501 l 647 272 q 557 74 647 160 q 346 -12 467 -12 q 135 74 225 -12 q 44 272 44 160 m 210 857 q 233 900 210 889 l 417 989 q 435 992 431 992 q 474 970 457 992 q 490 924 490 949 q 465 882 490 893 l 285 794 q 265 789 271 789 q 226 811 243 789 q 210 857 210 833 m 224 272 q 260 183 224 222 q 346 144 296 144 q 431 183 394 144 q 468 272 468 222 l 468 386 q 431 472 468 433 q 346 511 394 511 q 260 473 296 511 q 224 386 224 435 l 224 272 z "},"ô":{"ha":692,"x_min":44,"x_max":647,"o":"m 44 272 l 44 386 q 133 584 44 500 q 346 668 222 668 q 557 585 467 668 q 647 386 647 501 l 647 272 q 557 74 647 160 q 346 -12 467 -12 q 135 74 225 -12 q 44 272 44 160 m 147 856 q 178 907 147 892 l 322 985 q 346 992 333 992 q 369 985 356 992 l 514 908 q 543 854 543 890 q 532 817 543 833 q 504 800 521 800 q 490 804 497 800 l 346 882 l 201 804 q 186 800 193 800 q 158 817 169 800 q 147 856 147 833 m 224 272 q 260 183 224 222 q 346 144 296 144 q 431 183 394 144 q 468 272 468 222 l 468 386 q 431 472 468 433 q 346 511 394 511 q 260 473 296 511 q 224 386 224 435 l 224 272 z "},"õ":{"ha":692,"x_min":44,"x_max":647,"o":"m 44 272 l 44 386 q 133 584 44 500 q 346 668 222 668 q 557 585 467 668 q 647 386 647 501 l 647 272 q 557 74 647 160 q 346 -12 467 -12 q 135 74 225 -12 q 44 272 44 160 m 110 882 q 135 944 110 921 q 183 972 160 967 q 229 976 206 976 q 329 956 269 976 q 426 936 389 936 q 494 953 460 936 q 539 969 528 969 q 574 949 563 969 q 585 911 585 928 q 572 860 585 881 q 537 831 558 840 q 499 819 515 822 q 467 817 482 817 q 360 837 418 817 q 269 857 301 857 q 201 840 236 857 q 156 824 167 824 q 121 844 132 824 q 110 882 110 865 m 224 272 q 260 183 224 222 q 346 144 296 144 q 431 183 394 144 q 468 272 468 222 l 468 386 q 431 472 468 433 q 346 511 394 511 q 260 473 296 511 q 224 386 224 435 l 224 272 z "},"ö":{"ha":692,"x_min":44,"x_max":647,"o":"m 44 272 l 44 386 q 133 584 44 500 q 346 668 222 668 q 557 585 467 668 q 647 386 647 501 l 647 272 q 557 74 647 160 q 346 -12 467 -12 q 135 74 225 -12 q 44 272 44 160 m 193 824 q 183 835 193 824 q 172 875 172 846 q 193 926 172 904 q 243 947 214 947 q 292 926 272 947 q 313 875 313 904 q 292 824 313 846 q 243 801 272 801 q 193 824 214 801 m 224 272 q 260 183 224 222 q 346 144 296 144 q 431 183 394 144 q 468 272 468 222 l 468 386 q 431 472 468 433 q 346 511 394 511 q 260 473 296 511 q 224 386 224 435 l 224 272 m 401 824 q 390 835 401 824 q 379 875 379 846 q 400 926 379 904 q 451 947 421 947 q 500 926 479 947 q 521 875 521 904 q 500 824 521 846 q 451 801 479 801 q 401 824 422 801 z "},"÷":{"ha":619,"x_min":31,"x_max":589,"o":"m 47 281 q 39 291 47 281 q 31 331 31 300 q 47 381 31 361 q 89 401 64 401 l 529 401 q 571 381 553 401 q 589 331 589 360 q 571 281 589 300 q 529 263 553 263 l 89 263 q 47 281 64 263 m 219 96 q 245 154 219 131 q 306 178 271 178 q 364 154 338 178 q 390 96 390 131 q 364 38 390 63 q 306 14 338 14 q 245 38 271 14 q 219 96 219 63 m 245 510 q 232 523 245 510 q 219 568 219 535 q 245 626 219 601 q 306 650 271 650 q 364 626 338 650 q 390 568 390 601 q 364 510 390 535 q 306 486 338 486 q 245 510 271 486 z "},"ø":{"ha":692,"x_min":44,"x_max":647,"o":"m 44 272 l 44 386 q 133 584 44 500 q 346 668 222 668 q 503 625 432 668 l 550 692 q 578 708 561 708 q 607 696 594 708 q 619 668 619 683 q 610 642 619 656 l 564 578 q 647 386 647 494 l 647 272 q 557 74 647 160 q 346 -12 467 -12 q 179 38 256 -12 l 131 -32 q 107 -44 122 -44 q 81 -33 93 -44 q 68 -7 68 -22 q 76 15 68 1 l 124 83 q 44 272 44 167 m 224 272 q 229 233 224 250 l 410 490 q 346 511 378 511 q 260 473 296 511 q 224 386 224 435 l 224 272 m 274 169 q 346 144 308 144 q 431 183 394 144 q 468 272 468 222 l 468 386 q 458 429 468 406 l 274 169 z "},"ù":{"ha":728,"x_min":63,"x_max":664,"o":"m 63 269 l 63 603 q 90 642 63 624 q 153 660 117 660 q 215 642 188 660 q 242 603 242 624 l 242 269 q 278 183 242 221 q 364 144 314 144 q 449 183 414 144 q 485 269 485 221 l 485 604 q 512 643 485 626 q 575 660 539 660 q 639 643 614 660 q 664 604 664 626 l 664 269 q 575 72 664 157 q 364 -12 486 -12 q 152 72 242 -12 q 63 269 63 157 m 206 924 q 222 970 206 949 q 261 992 239 992 q 279 989 265 992 l 463 900 q 486 857 486 889 q 469 811 486 833 q 431 789 453 789 q 411 794 425 789 l 231 882 q 206 924 206 893 z "},"ú":{"ha":728,"x_min":63,"x_max":664,"o":"m 63 269 l 63 603 q 90 642 63 624 q 153 660 117 660 q 215 642 188 660 q 242 603 242 624 l 242 269 q 278 183 242 221 q 364 144 314 144 q 449 183 414 144 q 485 269 485 221 l 485 604 q 512 643 485 626 q 575 660 539 660 q 639 643 614 660 q 664 604 664 626 l 664 269 q 575 72 664 157 q 364 -12 486 -12 q 152 72 242 -12 q 63 269 63 157 m 239 857 q 263 900 239 889 l 446 989 q 464 992 460 992 q 503 970 486 992 q 519 924 519 949 q 494 882 519 893 l 314 794 q 294 789 300 789 q 256 811 272 789 q 239 857 239 833 z "},"û":{"ha":728,"x_min":63,"x_max":664,"o":"m 63 269 l 63 603 q 90 642 63 624 q 153 660 117 660 q 215 642 188 660 q 242 603 242 624 l 242 269 q 278 183 242 221 q 364 144 314 144 q 449 183 414 144 q 485 269 485 221 l 485 604 q 512 643 485 626 q 575 660 539 660 q 639 643 614 660 q 664 604 664 626 l 664 269 q 575 72 664 157 q 364 -12 486 -12 q 152 72 242 -12 q 63 269 63 157 m 167 856 q 197 907 167 892 l 342 985 q 365 992 353 992 q 389 985 375 992 l 533 908 q 563 854 563 890 q 551 817 563 833 q 524 800 540 800 q 510 804 517 800 l 365 882 l 221 804 q 206 800 213 800 q 178 817 189 800 q 167 856 167 833 z "},"ü":{"ha":728,"x_min":63,"x_max":664,"o":"m 63 269 l 63 603 q 90 642 63 624 q 153 660 117 660 q 215 642 188 660 q 242 603 242 624 l 242 269 q 278 183 242 221 q 364 144 314 144 q 449 183 414 144 q 485 269 485 221 l 485 604 q 512 643 485 626 q 575 660 539 660 q 639 643 614 660 q 664 604 664 626 l 664 269 q 575 72 664 157 q 364 -12 486 -12 q 152 72 242 -12 q 63 269 63 157 m 211 824 q 201 835 211 824 q 190 875 190 846 q 211 926 190 904 q 261 947 232 947 q 310 926 290 947 q 331 875 331 904 q 310 824 331 846 q 261 801 290 801 q 211 824 232 801 m 419 824 q 408 835 419 824 q 397 875 397 846 q 418 926 397 904 q 469 947 439 947 q 518 926 497 947 q 539 875 539 904 q 518 824 539 846 q 469 801 497 801 q 419 824 440 801 z "},"ý":{"ha":661,"x_min":8,"x_max":650,"o":"m 8 -231 q 54 -156 8 -156 q 183 -108 119 -156 q 253 49 246 -61 l 14 560 q 8 583 8 574 q 49 643 8 617 q 128 669 90 669 q 179 639 169 669 l 346 224 l 481 639 q 528 669 490 669 q 607 642 564 669 q 650 581 650 615 q 646 560 650 569 l 443 42 l 419 -19 q 395 -85 403 -67 q 369 -141 388 -103 q 335 -197 350 -179 q 294 -240 321 -214 q 241 -277 268 -265 q 175 -298 214 -289 q 90 -307 136 -307 q 29 -292 50 -307 q 8 -231 8 -276 m 244 857 q 268 900 244 889 l 451 989 q 469 992 465 992 q 508 970 492 992 q 525 924 525 949 q 500 882 525 893 l 319 794 q 300 789 306 789 q 261 811 278 789 q 244 857 244 833 z "},"þ":{"ha":722,"x_min":72,"x_max":676,"o":"m 72 -250 l 72 989 q 97 1029 72 1014 q 157 1044 121 1044 q 225 1029 199 1044 q 251 989 251 1014 l 251 563 q 322 638 275 607 q 428 668 369 668 q 604 585 532 668 q 676 386 676 503 l 676 272 q 603 74 676 160 q 433 -12 529 -12 q 323 20 374 -12 q 251 97 272 53 l 251 -250 q 224 -290 251 -272 q 160 -307 197 -307 q 97 -290 122 -307 q 72 -250 72 -272 m 251 247 q 289 182 251 219 q 374 144 326 144 q 460 184 422 144 q 497 272 497 224 l 497 386 q 460 473 497 435 q 371 511 422 511 q 288 476 324 511 q 251 386 251 442 l 251 247 z "},"ÿ":{"ha":661,"x_min":8,"x_max":650,"o":"m 8 -231 q 54 -156 8 -156 q 183 -108 119 -156 q 253 49 246 -61 l 14 560 q 8 583 8 574 q 49 643 8 617 q 128 669 90 669 q 179 639 169 669 l 346 224 l 481 639 q 528 669 490 669 q 607 642 564 669 q 650 581 650 615 q 646 560 650 569 l 443 42 l 419 -19 q 395 -85 403 -67 q 369 -141 388 -103 q 335 -197 350 -179 q 294 -240 321 -214 q 241 -277 268 -265 q 175 -298 214 -289 q 90 -307 136 -307 q 29 -292 50 -307 q 8 -231 8 -276 m 192 824 q 181 835 192 824 q 171 875 171 846 q 192 926 171 904 q 242 947 213 947 q 291 926 271 947 q 311 875 311 904 q 291 824 311 846 q 242 801 271 801 q 192 824 213 801 m 399 824 q 389 835 399 824 q 378 875 378 846 q 399 926 378 904 q 450 947 419 947 q 499 926 478 947 q 519 875 519 904 q 499 824 519 846 q 450 801 478 801 q 399 824 421 801 z "},"Ā":{"ha":799,"x_min":13,"x_max":786,"o":"m 13 75 q 15 89 13 78 l 283 963 q 324 1008 292 992 q 399 1024 357 1024 q 474 1008 440 1024 q 515 963 507 992 l 783 89 q 786 75 786 78 q 749 22 786 44 q 672 0 711 0 q 611 36 621 0 l 558 221 l 240 221 l 188 36 q 126 0 178 0 q 49 22 86 0 q 13 75 13 43 m 200 1243 q 215 1285 200 1268 q 256 1303 231 1303 l 540 1303 q 580 1285 563 1303 q 597 1243 597 1268 q 580 1201 597 1218 q 540 1185 563 1185 l 256 1185 q 215 1201 231 1185 q 200 1243 200 1217 m 278 363 l 519 363 l 399 789 l 278 363 z "},"ā":{"ha":654,"x_min":31,"x_max":590,"o":"m 31 172 q 114 331 31 285 q 354 376 197 376 l 411 376 l 411 394 q 381 484 411 446 q 289 522 351 522 q 182 501 226 522 q 131 479 138 479 q 86 507 103 479 q 69 568 69 535 q 141 638 69 608 q 292 668 213 668 q 517 591 443 668 q 590 397 590 514 l 590 57 q 565 17 590 33 q 503 0 540 0 q 445 17 468 0 q 422 57 422 33 l 422 97 q 211 -12 326 -12 q 81 35 132 -12 q 31 172 31 82 m 122 906 q 138 948 122 931 q 178 965 153 965 l 463 965 q 502 948 485 965 q 519 906 519 931 q 502 864 519 881 q 463 847 485 847 l 178 847 q 138 863 153 847 q 122 906 122 879 m 210 196 q 230 140 210 158 q 283 121 250 121 q 369 163 328 121 q 411 254 411 204 l 411 283 l 390 283 q 258 266 306 283 q 210 196 210 249 z "},"Ă":{"ha":799,"x_min":13,"x_max":786,"o":"m 13 75 q 15 89 13 78 l 283 963 q 324 1008 292 992 q 399 1024 357 1024 q 474 1008 440 1024 q 515 963 507 992 l 783 89 q 786 75 786 78 q 749 22 786 44 q 672 0 711 0 q 611 36 621 0 l 558 221 l 240 221 l 188 36 q 126 0 178 0 q 49 22 86 0 q 13 75 13 43 m 214 1339 l 311 1339 q 338 1265 311 1294 q 399 1235 364 1235 q 459 1265 432 1235 q 486 1339 486 1294 l 583 1339 q 527 1210 583 1265 q 399 1154 471 1154 q 270 1210 326 1154 q 214 1339 214 1265 m 278 363 l 519 363 l 399 789 l 278 363 z "},"ă":{"ha":654,"x_min":31,"x_max":590,"o":"m 31 172 q 114 331 31 285 q 354 376 197 376 l 411 376 l 411 394 q 381 484 411 446 q 289 522 351 522 q 182 501 226 522 q 131 479 138 479 q 86 507 103 479 q 69 568 69 535 q 141 638 69 608 q 292 668 213 668 q 517 591 443 668 q 590 397 590 514 l 590 57 q 565 17 590 33 q 503 0 540 0 q 445 17 468 0 q 422 57 422 33 l 422 97 q 211 -12 326 -12 q 81 35 132 -12 q 31 172 31 82 m 132 1001 l 229 1001 q 256 927 229 957 q 317 897 282 897 q 377 927 350 897 q 404 1001 404 957 l 501 1001 q 445 872 501 928 q 317 817 389 817 q 188 872 244 817 q 132 1001 132 928 m 210 196 q 230 140 210 158 q 283 121 250 121 q 369 163 328 121 q 411 254 411 204 l 411 283 l 390 283 q 258 266 306 283 q 210 196 210 249 z "},"Ą":{"ha":799,"x_min":13,"x_max":786,"o":"m 13 75 q 15 89 13 78 l 283 963 q 324 1008 292 992 q 399 1024 357 1024 q 474 1008 440 1024 q 515 963 507 992 l 783 89 q 786 75 786 78 q 722 10 786 33 q 644 -65 675 -19 q 614 -154 614 -111 q 697 -219 614 -219 q 729 -260 729 -219 q 689 -296 729 -296 q 569 -262 611 -296 q 526 -171 526 -228 q 625 13 526 -64 q 611 36 615 19 l 558 221 l 240 221 l 188 36 q 126 0 178 0 q 49 22 86 0 q 13 75 13 43 m 278 363 l 519 363 l 399 789 l 278 363 z "},"ą":{"ha":654,"x_min":31,"x_max":590,"o":"m 31 172 q 114 331 31 285 q 354 376 197 376 l 411 376 l 411 394 q 381 484 411 446 q 289 522 351 522 q 182 501 226 522 q 131 479 138 479 q 86 507 103 479 q 69 568 69 535 q 141 638 69 608 q 292 668 213 668 q 517 591 443 668 q 590 397 590 514 l 590 57 q 553 10 590 26 q 475 -65 506 -19 q 444 -154 444 -111 q 528 -219 444 -219 q 560 -260 560 -219 q 519 -296 560 -296 q 399 -262 442 -296 q 357 -171 357 -228 q 453 11 357 -67 q 422 57 422 29 l 422 97 q 211 -12 326 -12 q 81 35 132 -12 q 31 172 31 82 m 210 196 q 230 140 210 158 q 283 121 250 121 q 369 163 328 121 q 411 254 411 204 l 411 283 l 390 283 q 258 266 306 283 q 210 196 210 249 z "},"Ć":{"ha":764,"x_min":74,"x_max":725,"o":"m 74 310 l 74 697 q 163 938 74 861 q 394 1015 251 1015 q 633 943 540 1015 q 725 751 725 871 q 704 681 725 700 q 635 663 683 663 q 544 719 546 663 q 541 751 543 738 q 530 785 539 764 q 507 822 521 807 q 465 847 493 836 q 400 857 438 857 q 254 697 254 857 l 254 310 q 403 150 254 150 q 477 164 447 150 q 520 203 507 178 q 538 249 533 229 q 544 299 543 269 q 633 356 549 356 q 703 337 682 356 q 725 267 725 318 q 633 67 725 142 q 393 -8 540 -8 q 162 69 250 -8 q 74 310 74 146 m 285 1194 q 308 1238 285 1225 l 492 1326 q 510 1329 506 1329 q 549 1308 532 1329 q 565 1261 565 1286 q 540 1219 565 1231 l 360 1132 q 340 1126 346 1126 q 301 1149 318 1126 q 285 1194 285 1171 z "},"ć":{"ha":603,"x_min":47,"x_max":578,"o":"m 47 272 l 47 383 q 122 590 47 511 q 347 668 197 668 q 506 635 442 668 q 569 560 569 601 q 549 501 569 531 q 499 472 528 472 q 449 492 490 472 q 361 511 408 511 q 226 383 226 511 l 226 272 q 363 144 226 144 q 450 165 410 144 q 501 186 490 186 q 556 158 535 186 q 578 101 578 131 q 510 23 578 58 q 349 -12 443 -12 q 122 65 197 -12 q 47 272 47 143 m 197 857 q 221 900 197 889 l 404 989 q 422 992 418 992 q 461 970 444 992 q 478 924 478 949 q 453 882 478 893 l 272 794 q 253 789 258 789 q 214 811 231 789 q 197 857 197 833 z "},"Ĉ":{"ha":764,"x_min":74,"x_max":725,"o":"m 74 310 l 74 697 q 163 938 74 861 q 394 1015 251 1015 q 633 943 540 1015 q 725 751 725 871 q 704 681 725 700 q 635 663 683 663 q 544 719 546 663 q 541 751 543 738 q 530 785 539 764 q 507 822 521 807 q 465 847 493 836 q 400 857 438 857 q 254 697 254 857 l 254 310 q 403 150 254 150 q 477 164 447 150 q 520 203 507 178 q 538 249 533 229 q 544 299 543 269 q 633 356 549 356 q 703 337 682 356 q 725 267 725 318 q 633 67 725 142 q 393 -8 540 -8 q 162 69 250 -8 q 74 310 74 146 m 200 1193 q 231 1244 200 1229 l 375 1322 q 399 1329 386 1329 q 422 1322 408 1329 l 567 1246 q 596 1192 596 1228 q 585 1154 596 1171 q 557 1138 574 1138 q 543 1142 550 1138 l 399 1219 l 254 1142 q 239 1138 246 1138 q 211 1154 222 1138 q 200 1193 200 1171 z "},"ĉ":{"ha":603,"x_min":47,"x_max":578,"o":"m 47 272 l 47 383 q 122 590 47 511 q 347 668 197 668 q 506 635 442 668 q 569 560 569 601 q 549 501 569 531 q 499 472 528 472 q 449 492 490 472 q 361 511 408 511 q 226 383 226 511 l 226 272 q 363 144 226 144 q 450 165 410 144 q 501 186 490 186 q 556 158 535 186 q 578 101 578 131 q 510 23 578 58 q 349 -12 443 -12 q 122 65 197 -12 q 47 272 47 143 m 129 856 q 160 907 129 892 l 304 985 q 328 992 315 992 q 351 985 338 992 l 496 908 q 525 854 525 890 q 514 817 525 833 q 486 800 503 800 q 472 804 478 800 l 328 882 l 183 804 q 168 800 175 800 q 140 817 151 800 q 129 856 129 833 z "},"Ċ":{"ha":764,"x_min":74,"x_max":725,"o":"m 74 310 l 74 697 q 163 938 74 861 q 394 1015 251 1015 q 633 943 540 1015 q 725 751 725 871 q 704 681 725 700 q 635 663 683 663 q 544 719 546 663 q 541 751 543 738 q 530 785 539 764 q 507 822 521 807 q 465 847 493 836 q 400 857 438 857 q 254 697 254 857 l 254 310 q 403 150 254 150 q 477 164 447 150 q 520 203 507 178 q 538 249 533 229 q 544 299 543 269 q 633 356 549 356 q 703 337 682 356 q 725 267 725 318 q 633 67 725 142 q 393 -8 540 -8 q 162 69 250 -8 q 74 310 74 146 m 351 1161 q 341 1172 351 1161 q 331 1213 331 1183 q 351 1263 331 1242 q 401 1285 372 1285 q 451 1263 431 1285 q 471 1213 471 1242 q 451 1161 471 1183 q 401 1139 431 1139 q 351 1161 372 1139 z "},"ċ":{"ha":603,"x_min":47,"x_max":578,"o":"m 47 272 l 47 383 q 122 590 47 511 q 347 668 197 668 q 506 635 442 668 q 569 560 569 601 q 549 501 569 531 q 499 472 528 472 q 449 492 490 472 q 361 511 408 511 q 226 383 226 511 l 226 272 q 363 144 226 144 q 450 165 410 144 q 501 186 490 186 q 556 158 535 186 q 578 101 578 131 q 510 23 578 58 q 349 -12 443 -12 q 122 65 197 -12 q 47 272 47 143 m 274 824 q 263 835 274 824 q 253 875 253 846 q 274 926 253 904 q 324 947 294 947 q 373 926 353 947 q 393 875 393 904 q 373 824 393 846 q 324 801 353 801 q 274 824 294 801 z "},"Č":{"ha":764,"x_min":74,"x_max":725,"o":"m 74 310 l 74 697 q 163 938 74 861 q 394 1015 251 1015 q 633 943 540 1015 q 725 751 725 871 q 704 681 725 700 q 635 663 683 663 q 544 719 546 663 q 541 751 543 738 q 530 785 539 764 q 507 822 521 807 q 465 847 493 836 q 400 857 438 857 q 254 697 254 857 l 254 310 q 403 150 254 150 q 477 164 447 150 q 520 203 507 178 q 538 249 533 229 q 544 299 543 269 q 633 356 549 356 q 703 337 682 356 q 725 267 725 318 q 633 67 725 142 q 393 -8 540 -8 q 162 69 250 -8 q 74 310 74 146 m 199 1300 q 210 1338 199 1321 q 238 1354 221 1354 q 254 1349 247 1354 l 397 1257 l 539 1349 q 556 1354 549 1354 q 583 1338 572 1354 q 594 1300 594 1321 q 565 1247 594 1265 l 422 1156 q 397 1147 408 1147 q 372 1156 385 1147 l 229 1247 q 199 1300 199 1265 z "},"č":{"ha":603,"x_min":47,"x_max":578,"o":"m 47 272 l 47 383 q 122 590 47 511 q 347 668 197 668 q 506 635 442 668 q 569 560 569 601 q 549 501 569 531 q 499 472 528 472 q 449 492 490 472 q 361 511 408 511 q 226 383 226 511 l 226 272 q 363 144 226 144 q 450 165 410 144 q 501 186 490 186 q 556 158 535 186 q 578 101 578 131 q 510 23 578 58 q 349 -12 443 -12 q 122 65 197 -12 q 47 272 47 143 m 122 963 q 133 1000 122 983 q 161 1017 144 1017 q 178 1011 171 1017 l 321 919 l 463 1011 q 479 1017 472 1017 q 507 1000 496 1017 q 518 963 518 983 q 489 910 518 928 l 346 818 q 321 810 331 810 q 296 818 308 810 l 153 910 q 122 963 122 928 z "},"Ď":{"ha":806,"x_min":83,"x_max":735,"o":"m 83 56 l 83 960 q 106 999 83 982 q 163 1015 128 1015 l 408 1015 q 646 939 557 1015 q 735 697 735 863 l 735 318 q 646 76 735 153 q 408 0 557 0 l 163 0 q 106 17 128 0 q 83 56 83 33 m 183 1300 q 194 1338 183 1321 q 222 1354 206 1354 q 239 1349 232 1354 l 382 1257 l 524 1349 q 540 1354 533 1354 q 568 1338 557 1354 q 579 1300 579 1321 q 550 1247 579 1265 l 407 1156 q 382 1147 392 1147 q 357 1156 369 1147 l 214 1247 q 183 1300 183 1265 m 264 158 l 408 158 q 554 318 554 158 l 554 697 q 408 857 554 857 l 264 857 l 264 158 z "},"ď":{"ha":722,"x_min":46,"x_max":908,"o":"m 46 272 l 46 386 q 119 585 46 501 q 293 668 192 668 q 401 638 354 668 q 472 563 447 607 l 472 989 q 498 1029 472 1014 q 563 1044 524 1044 q 626 1029 601 1044 q 651 989 651 1014 l 651 57 q 626 17 651 35 q 563 0 600 0 q 506 18 531 0 q 482 57 482 36 l 482 97 q 406 20 460 53 q 289 -12 353 -12 q 119 74 193 -12 q 46 272 46 160 m 225 272 q 261 184 225 224 q 346 144 297 144 q 433 183 394 144 q 472 247 472 221 l 472 386 q 434 476 472 442 q 347 511 396 511 q 261 473 297 511 q 225 386 225 435 l 225 272 m 721 935 q 748 1001 721 974 q 814 1029 775 1029 q 881 1001 853 1029 q 908 936 908 974 q 832 732 908 911 q 794 710 821 710 q 754 723 774 710 q 735 757 735 736 q 740 776 735 767 l 772 850 q 721 935 721 878 z "},"Đ":{"ha":815,"x_min":-10,"x_max":744,"o":"m 3 485 q -3 495 3 485 q -10 531 -10 504 q 3 576 -10 557 q 36 596 15 596 l 93 596 l 93 960 q 115 999 93 982 q 172 1015 138 1015 l 418 1015 q 656 939 567 1015 q 744 697 744 863 l 744 318 q 656 76 744 153 q 418 0 567 0 l 172 0 q 115 17 138 0 q 93 56 93 33 l 93 467 l 36 467 q 3 485 15 467 m 274 158 l 418 158 q 564 318 564 158 l 564 697 q 418 857 564 857 l 274 857 l 274 596 l 381 596 q 415 576 403 596 q 428 531 428 557 q 415 485 428 504 q 381 467 403 467 l 274 467 l 274 158 z "},"đ":{"ha":722,"x_min":46,"x_max":739,"o":"m 46 272 l 46 386 q 119 585 46 501 q 293 668 192 668 q 401 638 354 668 q 472 563 447 607 l 472 768 l 364 768 q 329 788 342 768 q 317 833 317 807 q 329 879 317 860 q 364 899 342 899 l 472 899 l 472 989 q 498 1029 472 1014 q 563 1044 524 1044 q 626 1029 601 1044 q 651 989 651 1014 l 651 899 l 692 899 q 726 879 714 899 q 739 833 739 860 q 726 787 739 806 q 692 768 714 768 l 651 768 l 651 57 q 626 17 651 35 q 563 0 600 0 q 506 18 531 0 q 482 57 482 36 l 482 97 q 406 20 460 53 q 289 -12 353 -12 q 119 74 193 -12 q 46 272 46 160 m 225 272 q 261 184 225 224 q 346 144 297 144 q 433 183 394 144 q 472 247 472 221 l 472 386 q 434 476 472 442 q 347 511 396 511 q 261 473 297 511 q 225 386 225 435 l 225 272 z "},"Ē":{"ha":736,"x_min":83,"x_max":714,"o":"m 83 57 l 83 958 q 107 1000 83 985 q 163 1015 131 1015 l 657 1015 q 699 992 685 1015 q 714 938 714 968 q 699 881 714 904 q 657 857 683 857 l 264 857 l 264 579 l 475 579 q 517 558 501 579 q 532 507 532 536 q 517 459 532 481 q 475 438 503 438 l 264 438 l 264 158 l 657 158 q 699 135 683 158 q 714 78 714 111 q 699 24 714 47 q 657 0 685 0 l 163 0 q 107 15 131 0 q 83 57 83 31 m 204 1243 q 219 1285 204 1268 q 260 1303 235 1303 l 544 1303 q 584 1285 567 1303 q 601 1243 601 1268 q 584 1201 601 1218 q 544 1185 567 1185 l 260 1185 q 219 1201 235 1185 q 204 1243 204 1217 z "},"ē":{"ha":672,"x_min":44,"x_max":635,"o":"m 44 272 l 44 390 q 133 586 44 504 q 349 668 222 668 q 551 594 467 668 q 635 407 635 519 q 624 338 635 365 q 592 300 614 311 q 553 286 571 289 q 506 283 535 283 l 224 283 l 224 263 q 268 166 224 203 q 386 129 313 129 q 490 156 439 129 q 557 182 542 182 q 606 155 586 182 q 625 103 625 128 q 555 26 625 64 q 381 -12 485 -12 q 138 66 232 -12 q 44 272 44 144 m 149 906 q 164 948 149 931 q 204 965 179 965 l 489 965 q 528 948 511 965 q 546 906 546 931 q 528 864 546 881 q 489 847 511 847 l 204 847 q 164 863 179 847 q 149 906 149 879 m 224 389 l 426 389 q 458 397 449 389 q 467 426 467 404 q 431 506 467 475 q 344 536 396 536 q 260 506 296 536 q 224 428 224 476 l 224 389 z "},"Ĕ":{"ha":736,"x_min":83,"x_max":714,"o":"m 83 57 l 83 958 q 107 1000 83 985 q 163 1015 131 1015 l 657 1015 q 699 992 685 1015 q 714 938 714 968 q 699 881 714 904 q 657 857 683 857 l 264 857 l 264 579 l 475 579 q 517 558 501 579 q 532 507 532 536 q 517 459 532 481 q 475 438 503 438 l 264 438 l 264 158 l 657 158 q 699 135 683 158 q 714 78 714 111 q 699 24 714 47 q 657 0 685 0 l 163 0 q 107 15 131 0 q 83 57 83 31 m 213 1339 l 310 1339 q 336 1265 310 1294 q 397 1235 363 1235 q 458 1265 431 1235 q 485 1339 485 1294 l 582 1339 q 526 1210 582 1265 q 397 1154 469 1154 q 269 1210 325 1154 q 213 1339 213 1265 z "},"ĕ":{"ha":672,"x_min":44,"x_max":635,"o":"m 44 272 l 44 390 q 133 586 44 504 q 349 668 222 668 q 551 594 467 668 q 635 407 635 519 q 624 338 635 365 q 592 300 614 311 q 553 286 571 289 q 506 283 535 283 l 224 283 l 224 263 q 268 166 224 203 q 386 129 313 129 q 490 156 439 129 q 557 182 542 182 q 606 155 586 182 q 625 103 625 128 q 555 26 625 64 q 381 -12 485 -12 q 138 66 232 -12 q 44 272 44 144 m 161 1001 l 258 1001 q 285 927 258 957 q 346 897 311 897 q 406 927 379 897 q 433 1001 433 957 l 531 1001 q 474 872 531 928 q 346 817 418 817 q 217 872 274 817 q 161 1001 161 928 m 224 389 l 426 389 q 458 397 449 389 q 467 426 467 404 q 431 506 467 475 q 344 536 396 536 q 260 506 296 536 q 224 428 224 476 l 224 389 z "},"Ė":{"ha":736,"x_min":83,"x_max":714,"o":"m 83 57 l 83 958 q 107 1000 83 985 q 163 1015 131 1015 l 657 1015 q 699 992 685 1015 q 714 938 714 968 q 699 881 714 904 q 657 857 683 857 l 264 857 l 264 579 l 475 579 q 517 558 501 579 q 532 507 532 536 q 517 459 532 481 q 475 438 503 438 l 264 438 l 264 158 l 657 158 q 699 135 683 158 q 714 78 714 111 q 699 24 714 47 q 657 0 685 0 l 163 0 q 107 15 131 0 q 83 57 83 31 m 364 1161 q 353 1172 364 1161 q 343 1213 343 1183 q 364 1263 343 1242 q 414 1285 385 1285 q 463 1263 443 1285 q 483 1213 483 1242 q 463 1161 483 1183 q 414 1139 443 1139 q 364 1161 385 1139 z "},"ė":{"ha":672,"x_min":44,"x_max":635,"o":"m 44 272 l 44 390 q 133 586 44 504 q 349 668 222 668 q 551 594 467 668 q 635 407 635 519 q 624 338 635 365 q 592 300 614 311 q 553 286 571 289 q 506 283 535 283 l 224 283 l 224 263 q 268 166 224 203 q 386 129 313 129 q 490 156 439 129 q 557 182 542 182 q 606 155 586 182 q 625 103 625 128 q 555 26 625 64 q 381 -12 485 -12 q 138 66 232 -12 q 44 272 44 144 m 224 389 l 426 389 q 458 397 449 389 q 467 426 467 404 q 431 506 467 475 q 344 536 396 536 q 260 506 296 536 q 224 428 224 476 l 224 389 m 296 824 q 285 835 296 824 q 275 875 275 846 q 296 926 275 904 q 346 947 317 947 q 395 926 375 947 q 415 875 415 904 q 395 824 415 846 q 346 801 375 801 q 296 824 317 801 z "},"Ę":{"ha":736,"x_min":83,"x_max":714,"o":"m 83 57 l 83 958 q 107 1000 83 985 q 163 1015 131 1015 l 657 1015 q 699 992 685 1015 q 714 938 714 968 q 699 881 714 904 q 657 857 683 857 l 264 857 l 264 579 l 475 579 q 517 558 501 579 q 532 507 532 536 q 517 459 532 481 q 475 438 503 438 l 264 438 l 264 158 l 657 158 q 699 135 683 158 q 714 78 714 111 q 676 4 714 21 q 606 -69 633 -25 q 578 -154 578 -112 q 661 -219 578 -219 q 693 -260 693 -219 q 653 -296 693 -296 q 533 -262 575 -296 q 490 -171 490 -228 q 574 0 490 -76 l 163 0 q 107 15 131 0 q 83 57 83 31 z "},"ę":{"ha":672,"x_min":44,"x_max":635,"o":"m 44 272 l 44 390 q 133 586 44 504 q 349 668 222 668 q 551 594 467 668 q 635 407 635 519 q 624 338 635 365 q 592 300 614 311 q 553 286 571 289 q 506 283 535 283 l 224 283 l 224 263 q 268 166 224 203 q 386 129 313 129 q 490 156 439 129 q 557 182 542 182 q 606 155 586 182 q 625 103 625 128 q 601 58 625 82 q 536 17 576 35 q 458 -58 489 -12 q 428 -147 428 -104 q 511 -212 428 -212 q 543 -253 543 -212 q 503 -289 543 -289 q 383 -255 425 -289 q 340 -164 340 -221 q 404 -11 340 -83 q 381 -12 397 -12 q 138 66 232 -12 q 44 272 44 144 m 224 389 l 426 389 q 458 397 449 389 q 467 426 467 404 q 431 506 467 475 q 344 536 396 536 q 260 506 296 536 q 224 428 224 476 l 224 389 z "},"Ě":{"ha":736,"x_min":83,"x_max":714,"o":"m 83 57 l 83 958 q 107 1000 83 985 q 163 1015 131 1015 l 657 1015 q 699 992 685 1015 q 714 938 714 968 q 699 881 714 904 q 657 857 683 857 l 264 857 l 264 579 l 475 579 q 517 558 501 579 q 532 507 532 536 q 517 459 532 481 q 475 438 503 438 l 264 438 l 264 158 l 657 158 q 699 135 683 158 q 714 78 714 111 q 699 24 714 47 q 657 0 685 0 l 163 0 q 107 15 131 0 q 83 57 83 31 m 199 1300 q 210 1338 199 1321 q 238 1354 221 1354 q 254 1349 247 1354 l 397 1257 l 539 1349 q 556 1354 549 1354 q 583 1338 572 1354 q 594 1300 594 1321 q 565 1247 594 1265 l 422 1156 q 397 1147 408 1147 q 372 1156 385 1147 l 229 1247 q 199 1300 199 1265 z "},"ě":{"ha":672,"x_min":44,"x_max":635,"o":"m 44 272 l 44 390 q 133 586 44 504 q 349 668 222 668 q 551 594 467 668 q 635 407 635 519 q 624 338 635 365 q 592 300 614 311 q 553 286 571 289 q 506 283 535 283 l 224 283 l 224 263 q 268 166 224 203 q 386 129 313 129 q 490 156 439 129 q 557 182 542 182 q 606 155 586 182 q 625 103 625 128 q 555 26 625 64 q 381 -12 485 -12 q 138 66 232 -12 q 44 272 44 144 m 150 963 q 161 1000 150 983 q 189 1017 172 1017 q 206 1011 199 1017 l 349 919 l 490 1011 q 507 1017 500 1017 q 535 1000 524 1017 q 546 963 546 983 q 517 910 546 928 l 374 818 q 349 810 358 810 q 324 818 336 810 l 181 910 q 150 963 150 928 m 224 389 l 426 389 q 458 397 449 389 q 467 426 467 404 q 431 506 467 475 q 344 536 396 536 q 260 506 296 536 q 224 428 224 476 l 224 389 z "},"Ĝ":{"ha":783,"x_min":72,"x_max":724,"o":"m 72 310 l 72 697 q 160 938 72 861 q 392 1015 249 1015 q 631 943 539 1015 q 724 749 724 871 q 702 681 724 699 q 633 663 681 663 q 543 719 544 663 q 508 819 539 781 q 399 857 478 857 q 253 697 253 857 l 253 310 q 397 150 253 150 q 505 190 467 150 q 543 310 543 231 l 543 392 l 431 392 q 390 413 404 392 q 375 463 375 433 q 390 512 375 490 q 431 533 406 533 l 667 533 q 708 516 693 533 q 724 475 724 499 l 724 310 q 635 68 724 144 q 397 -8 546 -8 q 160 68 249 -8 q 72 310 72 144 m 182 1193 q 213 1244 182 1229 l 357 1322 q 381 1329 368 1329 q 404 1322 390 1329 l 549 1246 q 578 1192 578 1228 q 567 1154 578 1171 q 539 1138 556 1138 q 525 1142 531 1138 l 381 1219 l 236 1142 q 221 1138 228 1138 q 193 1154 204 1138 q 182 1193 182 1171 z "},"ĝ":{"ha":653,"x_min":21,"x_max":633,"o":"m 21 -111 q 122 36 21 -15 q 64 125 64 64 q 135 233 64 186 q 49 410 49 300 l 49 439 q 124 604 49 540 q 319 668 199 668 q 478 628 411 668 q 563 722 519 722 q 614 704 594 722 q 633 667 633 686 q 611 628 633 644 q 546 575 560 592 q 594 439 594 518 l 594 410 q 517 244 594 310 q 319 178 440 178 q 229 190 269 178 q 213 163 213 176 q 256 128 213 139 q 360 109 299 117 q 483 87 422 101 q 588 28 544 72 q 631 -89 631 -17 q 543 -252 631 -197 q 328 -307 456 -307 q 110 -254 199 -307 q 21 -111 21 -201 m 128 856 q 158 907 128 892 l 303 985 q 326 992 314 992 q 350 985 336 992 l 494 908 q 524 854 524 890 q 513 817 524 833 q 485 800 501 800 q 471 804 478 800 l 326 882 l 182 804 q 167 800 174 800 q 139 817 150 800 q 128 856 128 833 m 190 -93 q 229 -165 190 -139 q 325 -192 268 -192 q 419 -165 382 -192 q 457 -94 457 -139 q 450 -60 457 -75 q 426 -36 443 -46 q 395 -20 408 -26 q 353 -9 382 -14 q 310 -3 324 -4 q 265 3 297 -1 q 190 -93 190 -32 m 222 411 q 249 322 222 357 q 322 286 275 286 q 394 320 368 286 q 421 410 421 354 l 421 439 q 394 525 421 490 q 321 560 367 560 q 249 526 275 560 q 222 439 222 492 l 222 411 z "},"Ğ":{"ha":783,"x_min":72,"x_max":724,"o":"m 72 310 l 72 697 q 160 938 72 861 q 392 1015 249 1015 q 631 943 539 1015 q 724 749 724 871 q 702 681 724 699 q 633 663 681 663 q 543 719 544 663 q 508 819 539 781 q 399 857 478 857 q 253 697 253 857 l 253 310 q 397 150 253 150 q 505 190 467 150 q 543 310 543 231 l 543 392 l 431 392 q 390 413 404 392 q 375 463 375 433 q 390 512 375 490 q 431 533 406 533 l 667 533 q 708 516 693 533 q 724 475 724 499 l 724 310 q 635 68 724 144 q 397 -8 546 -8 q 160 68 249 -8 q 72 310 72 144 m 211 1339 l 308 1339 q 335 1265 308 1294 q 396 1235 361 1235 q 456 1265 429 1235 q 483 1339 483 1294 l 581 1339 q 524 1210 581 1265 q 396 1154 468 1154 q 267 1210 324 1154 q 211 1339 211 1265 z "},"ğ":{"ha":653,"x_min":21,"x_max":633,"o":"m 21 -111 q 122 36 21 -15 q 64 125 64 64 q 135 233 64 186 q 49 410 49 300 l 49 439 q 124 604 49 540 q 319 668 199 668 q 478 628 411 668 q 563 722 519 722 q 614 704 594 722 q 633 667 633 686 q 611 628 633 644 q 546 575 560 592 q 594 439 594 518 l 594 410 q 517 244 594 310 q 319 178 440 178 q 229 190 269 178 q 213 163 213 176 q 256 128 213 139 q 360 109 299 117 q 483 87 422 101 q 588 28 544 72 q 631 -89 631 -17 q 543 -252 631 -197 q 328 -307 456 -307 q 110 -254 199 -307 q 21 -111 21 -201 m 140 1001 l 238 1001 q 264 927 238 957 q 325 897 290 897 q 385 927 358 897 q 413 1001 413 957 l 510 1001 q 453 872 510 928 q 325 817 397 817 q 197 872 253 817 q 140 1001 140 928 m 190 -93 q 229 -165 190 -139 q 325 -192 268 -192 q 419 -165 382 -192 q 457 -94 457 -139 q 450 -60 457 -75 q 426 -36 443 -46 q 395 -20 408 -26 q 353 -9 382 -14 q 310 -3 324 -4 q 265 3 297 -1 q 190 -93 190 -32 m 222 411 q 249 322 222 357 q 322 286 275 286 q 394 320 368 286 q 421 410 421 354 l 421 439 q 394 525 421 490 q 321 560 367 560 q 249 526 275 560 q 222 439 222 492 l 222 411 z "},"Ġ":{"ha":783,"x_min":72,"x_max":724,"o":"m 72 310 l 72 697 q 160 938 72 861 q 392 1015 249 1015 q 631 943 539 1015 q 724 749 724 871 q 702 681 724 699 q 633 663 681 663 q 543 719 544 663 q 508 819 539 781 q 399 857 478 857 q 253 697 253 857 l 253 310 q 397 150 253 150 q 505 190 467 150 q 543 310 543 231 l 543 392 l 431 392 q 390 413 404 392 q 375 463 375 433 q 390 512 375 490 q 431 533 406 533 l 667 533 q 708 516 693 533 q 724 475 724 499 l 724 310 q 635 68 724 144 q 397 -8 546 -8 q 160 68 249 -8 q 72 310 72 144 m 343 1161 q 333 1172 343 1161 q 322 1213 322 1183 q 343 1263 322 1242 q 393 1285 364 1285 q 442 1263 422 1285 q 463 1213 463 1242 q 442 1161 463 1183 q 393 1139 422 1139 q 343 1161 364 1139 z "},"ġ":{"ha":653,"x_min":21,"x_max":633,"o":"m 21 -111 q 122 36 21 -15 q 64 125 64 64 q 135 233 64 186 q 49 410 49 300 l 49 439 q 124 604 49 540 q 319 668 199 668 q 478 628 411 668 q 563 722 519 722 q 614 704 594 722 q 633 667 633 686 q 611 628 633 644 q 546 575 560 592 q 594 439 594 518 l 594 410 q 517 244 594 310 q 319 178 440 178 q 229 190 269 178 q 213 163 213 176 q 256 128 213 139 q 360 109 299 117 q 483 87 422 101 q 588 28 544 72 q 631 -89 631 -17 q 543 -252 631 -197 q 328 -307 456 -307 q 110 -254 199 -307 q 21 -111 21 -201 m 190 -93 q 229 -165 190 -139 q 325 -192 268 -192 q 419 -165 382 -192 q 457 -94 457 -139 q 450 -60 457 -75 q 426 -36 443 -46 q 395 -20 408 -26 q 353 -9 382 -14 q 310 -3 324 -4 q 265 3 297 -1 q 190 -93 190 -32 m 222 411 q 249 322 222 357 q 322 286 275 286 q 394 320 368 286 q 421 410 421 354 l 421 439 q 394 525 421 490 q 321 560 367 560 q 249 526 275 560 q 222 439 222 492 l 222 411 m 275 824 q 265 835 275 824 q 254 875 254 846 q 275 926 254 904 q 325 947 296 947 q 374 926 354 947 q 394 875 394 904 q 374 824 394 846 q 325 801 354 801 q 275 824 296 801 z "},"Ģ":{"ha":783,"x_min":72,"x_max":724,"o":"m 72 310 l 72 697 q 160 938 72 861 q 392 1015 249 1015 q 631 943 539 1015 q 724 749 724 871 q 702 681 724 699 q 633 663 681 663 q 543 719 544 663 q 508 819 539 781 q 399 857 478 857 q 253 697 253 857 l 253 310 q 397 150 253 150 q 505 190 467 150 q 543 310 543 231 l 543 392 l 431 392 q 390 413 404 392 q 375 463 375 433 q 390 512 375 490 q 431 533 406 533 l 667 533 q 708 516 693 533 q 724 475 724 499 l 724 310 q 635 68 724 144 q 397 -8 546 -8 q 160 68 249 -8 q 72 310 72 144 m 256 -201 q 279 -160 256 -172 l 463 -71 q 481 -67 472 -67 q 519 -88 503 -67 q 536 -135 536 -110 q 511 -178 536 -167 l 331 -264 q 311 -269 317 -269 q 272 -247 289 -269 q 256 -201 256 -225 z "},"ģ":{"ha":653,"x_min":21,"x_max":633,"o":"m 21 -111 q 122 36 21 -15 q 64 125 64 64 q 135 233 64 186 q 49 410 49 300 l 49 439 q 124 604 49 540 q 319 668 199 668 q 478 628 411 668 q 563 722 519 722 q 614 704 594 722 q 633 667 633 686 q 611 628 633 644 q 546 575 560 592 q 594 439 594 518 l 594 410 q 517 244 594 310 q 319 178 440 178 q 229 190 269 178 q 213 163 213 176 q 256 128 213 139 q 360 109 299 117 q 483 87 422 101 q 588 28 544 72 q 631 -89 631 -17 q 543 -252 631 -197 q 328 -307 456 -307 q 110 -254 199 -307 q 21 -111 21 -201 m 190 -93 q 229 -165 190 -139 q 325 -192 268 -192 q 419 -165 382 -192 q 457 -94 457 -139 q 450 -60 457 -75 q 426 -36 443 -46 q 395 -20 408 -26 q 353 -9 382 -14 q 310 -3 324 -4 q 265 3 297 -1 q 190 -93 190 -32 m 206 857 q 229 900 206 889 l 413 989 q 431 992 426 992 q 469 970 453 992 q 486 924 486 949 q 461 882 486 893 l 281 794 q 261 789 267 789 q 222 811 239 789 q 206 857 206 833 m 222 411 q 249 322 222 357 q 322 286 275 286 q 394 320 368 286 q 421 410 421 354 l 421 439 q 394 525 421 490 q 321 560 367 560 q 249 526 275 560 q 222 439 222 492 l 222 411 m 236 1163 q 314 1367 236 1188 q 350 1389 324 1389 q 390 1376 371 1389 q 410 1342 410 1363 q 406 1322 410 1335 l 372 1249 q 424 1164 424 1221 q 397 1097 424 1125 q 331 1069 369 1069 q 264 1097 292 1069 q 236 1163 236 1125 z "},"Ĥ":{"ha":840,"x_min":83,"x_max":757,"o":"m 83 57 l 83 960 q 110 1001 83 988 q 174 1015 136 1015 q 238 1001 211 1015 q 264 960 264 988 l 264 597 l 576 597 l 576 960 q 603 1001 576 988 q 667 1015 629 1015 q 731 1001 704 1015 q 757 960 757 988 l 757 57 q 730 15 757 31 q 667 0 703 0 q 603 15 629 0 q 576 57 576 31 l 576 456 l 264 456 l 264 57 q 237 15 264 31 q 174 0 210 0 q 110 15 136 0 q 83 57 83 31 m 222 1193 q 253 1244 222 1229 l 397 1322 q 421 1329 408 1329 q 444 1322 431 1329 l 589 1246 q 618 1192 618 1228 q 607 1154 618 1171 q 579 1138 596 1138 q 565 1142 572 1138 l 421 1219 l 276 1142 q 261 1138 268 1138 q 233 1154 244 1138 q 222 1193 222 1171 z "},"ĥ":{"ha":728,"x_min":-42,"x_max":664,"o":"m -42 1210 q -11 1261 -42 1246 l 133 1339 q 157 1346 144 1346 q 181 1339 167 1346 l 325 1263 q 354 1208 354 1244 q 343 1171 354 1188 q 315 1154 332 1154 q 301 1158 308 1154 l 157 1236 l 13 1158 q -3 1154 4 1154 q -31 1171 -19 1154 q -42 1210 -42 1188 m 71 57 l 71 989 q 95 1029 71 1014 q 160 1044 119 1044 q 224 1029 197 1044 q 250 989 250 1014 l 250 563 q 317 638 271 607 q 425 668 363 668 q 592 585 521 668 q 664 386 664 501 l 664 57 q 637 15 664 31 q 574 0 610 0 q 512 15 539 0 q 485 57 485 31 l 485 386 q 449 472 485 433 q 364 511 413 511 q 284 476 318 511 q 250 386 250 442 l 250 57 q 223 18 250 36 q 160 0 196 0 q 97 17 122 0 q 71 57 71 35 z "},"Ħ":{"ha":847,"x_min":24,"x_max":822,"o":"m 36 759 q 30 768 36 759 q 24 800 24 776 q 36 842 24 824 q 69 860 49 860 l 88 860 l 88 960 q 114 1001 88 988 q 178 1015 140 1015 q 242 1001 215 1015 q 268 960 268 988 l 268 860 l 581 860 l 581 960 q 607 1001 581 988 q 671 1015 633 1015 q 735 1001 708 1015 q 761 960 761 988 l 761 860 l 776 860 q 810 842 797 860 q 822 800 822 824 q 810 759 822 776 q 776 742 797 742 l 761 742 l 761 57 q 734 15 761 31 q 671 0 707 0 q 607 15 633 0 q 581 57 581 31 l 581 456 l 268 456 l 268 57 q 241 15 268 31 q 178 0 214 0 q 114 15 140 0 q 88 57 88 31 l 88 742 l 69 742 q 36 759 49 742 m 268 597 l 581 597 l 581 742 l 268 742 l 268 597 z "},"ħ":{"ha":728,"x_min":-21,"x_max":664,"o":"m -21 829 q -6 872 -21 854 q 35 889 10 889 l 71 889 l 71 989 q 95 1029 71 1014 q 160 1044 119 1044 q 224 1029 197 1044 q 250 989 250 1014 l 250 889 l 319 889 q 359 872 342 889 q 376 829 376 854 q 359 788 376 804 q 319 771 342 771 l 250 771 l 250 563 q 317 638 271 607 q 425 668 363 668 q 592 585 521 668 q 664 386 664 501 l 664 57 q 637 15 664 31 q 574 0 610 0 q 512 15 539 0 q 485 57 485 31 l 485 386 q 449 472 485 433 q 364 511 413 511 q 284 476 318 511 q 250 386 250 442 l 250 57 q 223 18 250 36 q 160 0 196 0 q 97 17 122 0 q 71 57 71 35 l 71 771 l 35 771 q -6 787 10 771 q -21 829 -21 803 z "},"Ĩ":{"ha":347,"x_min":-64,"x_max":411,"o":"m -64 1219 q -39 1281 -64 1258 q 9 1309 -14 1304 q 56 1314 32 1314 q 157 1294 97 1314 q 253 1274 217 1274 q 320 1290 286 1274 q 365 1307 354 1307 q 400 1286 389 1307 q 411 1249 411 1265 q 398 1198 411 1218 q 363 1169 385 1178 q 325 1157 342 1160 q 293 1154 308 1154 q 186 1174 244 1154 q 96 1194 128 1194 q 28 1178 63 1194 q -18 1161 -7 1161 q -53 1182 -42 1161 q -64 1219 -64 1203 m 83 57 l 83 960 q 110 1001 83 988 q 174 1015 136 1015 q 238 1001 211 1015 q 264 960 264 988 l 264 57 q 237 15 264 31 q 174 0 210 0 q 110 15 136 0 q 83 57 83 31 z "},"ĩ":{"ha":318,"x_min":-78,"x_max":397,"o":"m -78 882 q -53 944 -78 921 q -5 972 -28 967 q 42 976 18 976 q 143 956 83 976 q 239 936 203 936 q 306 953 272 936 q 351 969 340 969 q 386 949 375 969 q 397 911 397 928 q 384 860 397 881 q 349 831 371 840 q 311 819 328 822 q 279 817 294 817 q 172 837 231 817 q 82 857 114 857 q 14 840 49 857 q -32 824 -21 824 q -67 844 -56 824 q -78 882 -78 865 m 69 57 l 69 604 q 94 644 69 629 q 158 660 119 660 q 223 644 197 660 q 249 604 249 629 l 249 57 q 222 18 249 36 q 158 0 194 0 q 95 17 121 0 q 69 57 69 35 z "},"Ī":{"ha":347,"x_min":-26,"x_max":371,"o":"m -26 1243 q -11 1285 -26 1268 q 29 1303 4 1303 l 314 1303 q 353 1285 336 1303 q 371 1243 371 1268 q 353 1201 371 1218 q 314 1185 336 1185 l 29 1185 q -11 1201 4 1185 q -26 1243 -26 1217 m 83 57 l 83 960 q 110 1001 83 988 q 174 1015 136 1015 q 238 1001 211 1015 q 264 960 264 988 l 264 57 q 237 15 264 31 q 174 0 210 0 q 110 15 136 0 q 83 57 83 31 z "},"ī":{"ha":318,"x_min":-39,"x_max":358,"o":"m -39 906 q -24 948 -39 931 q 17 965 -8 965 l 301 965 q 341 948 324 965 q 358 906 358 931 q 341 864 358 881 q 301 847 324 847 l 17 847 q -24 863 -8 847 q -39 906 -39 879 m 69 57 l 69 604 q 94 644 69 629 q 158 660 119 660 q 223 644 197 660 q 249 604 249 629 l 249 57 q 222 18 249 36 q 158 0 194 0 q 95 17 121 0 q 69 57 69 35 z "},"Ĭ":{"ha":347,"x_min":-11,"x_max":358,"o":"m -11 1339 l 86 1339 q 113 1265 86 1294 q 174 1235 139 1235 q 234 1265 207 1235 q 261 1339 261 1294 l 358 1339 q 302 1210 358 1265 q 174 1154 246 1154 q 45 1210 101 1154 q -11 1339 -11 1265 m 83 57 l 83 960 q 110 1001 83 988 q 174 1015 136 1015 q 238 1001 211 1015 q 264 960 264 988 l 264 57 q 237 15 264 31 q 174 0 210 0 q 110 15 136 0 q 83 57 83 31 z "},"ĭ":{"ha":318,"x_min":-25,"x_max":344,"o":"m -25 1001 l 72 1001 q 99 927 72 957 q 160 897 125 897 q 220 927 193 897 q 247 1001 247 957 l 344 1001 q 288 872 344 928 q 160 817 232 817 q 31 872 88 817 q -25 1001 -25 928 m 69 57 l 69 604 q 94 644 69 629 q 158 660 119 660 q 223 644 197 660 q 249 604 249 629 l 249 57 q 222 18 249 36 q 158 0 194 0 q 95 17 121 0 q 69 57 69 35 z "},"Į":{"ha":347,"x_min":32,"x_max":264,"o":"m 32 -169 q 122 8 32 -68 q 83 57 83 22 l 83 960 q 110 1001 83 988 q 174 1015 136 1015 q 238 1001 211 1015 q 264 960 264 988 l 264 57 q 224 8 264 26 q 149 -65 178 -19 q 119 -153 119 -111 q 203 -218 119 -218 q 235 -258 235 -218 q 194 -294 235 -294 q 74 -260 117 -294 q 32 -169 32 -226 z "},"į":{"ha":318,"x_min":14,"x_max":256,"o":"m 14 -171 q 108 10 14 -67 q 69 57 69 28 l 69 604 q 94 644 69 629 q 158 660 119 660 q 223 644 197 660 q 249 604 249 629 l 249 57 q 210 10 249 29 q 132 -65 163 -19 q 101 -154 101 -111 q 185 -219 101 -219 q 217 -260 217 -219 q 176 -296 217 -296 q 56 -262 99 -296 q 14 -171 14 -228 m 60 894 q 88 956 60 931 q 158 982 117 982 q 227 956 199 982 q 256 894 256 931 q 227 833 256 860 q 158 807 199 807 q 88 833 117 807 q 60 894 60 860 z "},"İ":{"ha":347,"x_min":83,"x_max":264,"o":"m 83 57 l 83 960 q 110 1001 83 988 q 174 1015 136 1015 q 238 1001 211 1015 q 264 960 264 988 l 264 57 q 237 15 264 31 q 174 0 210 0 q 110 15 136 0 q 83 57 83 31 m 125 1161 q 115 1172 125 1161 q 104 1213 104 1183 q 125 1263 104 1242 q 175 1285 146 1285 q 224 1263 204 1285 q 244 1213 244 1242 q 224 1161 244 1183 q 175 1139 204 1139 q 125 1161 146 1139 z "},"ı":{"ha":318,"x_min":69,"x_max":249,"o":"m 69 57 l 69 604 q 94 644 69 629 q 158 660 119 660 q 223 644 197 660 q 249 604 249 629 l 249 57 q 222 18 249 36 q 158 0 194 0 q 95 17 121 0 q 69 57 69 35 z "},"Ĳ":{"ha":1085,"x_min":83,"x_max":1006,"o":"m 83 57 l 83 960 q 110 1001 83 988 q 174 1015 136 1015 q 238 1001 211 1015 q 264 960 264 988 l 264 57 q 237 15 264 31 q 174 0 210 0 q 110 15 136 0 q 83 57 83 31 m 354 268 q 375 337 354 318 q 444 356 396 356 q 535 299 529 356 q 678 150 540 150 q 825 310 825 150 l 825 857 l 683 857 q 642 881 657 857 q 626 938 626 904 q 641 992 626 969 q 683 1015 656 1015 l 926 1015 q 982 1000 958 1015 q 1006 958 1006 985 l 1006 310 q 917 69 1006 146 q 686 -8 829 -8 q 447 66 539 -8 q 354 268 354 140 z "},"ĳ":{"ha":608,"x_min":60,"x_max":544,"o":"m 60 894 q 88 956 60 931 q 158 982 117 982 q 227 956 199 982 q 256 894 256 931 q 227 833 256 860 q 158 807 199 807 q 88 833 117 807 q 60 894 60 860 m 69 57 l 69 604 q 94 644 69 629 q 158 660 119 660 q 223 644 197 660 q 249 604 249 629 l 249 57 q 222 18 249 36 q 158 0 194 0 q 95 17 121 0 q 69 57 69 35 m 235 -233 q 254 -177 235 -199 q 303 -156 274 -156 q 348 -128 338 -156 q 358 -44 358 -100 l 358 604 q 383 644 358 629 q 446 660 408 660 q 511 644 485 660 q 538 604 538 629 l 538 -44 q 483 -235 538 -164 q 328 -307 429 -307 q 235 -233 235 -307 m 349 894 q 377 956 349 931 q 447 982 406 982 q 516 956 488 982 q 544 894 544 931 q 516 833 544 860 q 447 807 488 807 q 377 833 406 807 q 349 894 349 860 z "},"Ĵ":{"ha":749,"x_min":18,"x_max":669,"o":"m 18 268 q 39 337 18 318 q 108 356 60 356 q 199 299 193 356 q 342 150 204 150 q 489 310 489 150 l 489 857 l 347 857 q 306 881 321 857 q 290 938 290 904 q 305 992 290 969 q 347 1015 319 1015 l 590 1015 q 646 1000 622 1015 q 669 958 669 985 l 669 310 q 581 69 669 146 q 350 -8 493 -8 q 110 66 203 -8 q 18 268 18 140 m 178 1193 q 208 1244 178 1229 l 353 1322 q 376 1329 364 1329 q 400 1322 386 1329 l 544 1246 q 574 1192 574 1228 q 563 1154 574 1171 q 535 1138 551 1138 q 521 1142 528 1138 l 376 1219 l 232 1142 q 217 1138 224 1138 q 189 1154 200 1138 q 178 1193 178 1171 z "},"ĵ":{"ha":321,"x_min":-53,"x_max":358,"o":"m -53 -233 q -33 -177 -53 -199 q 15 -156 -14 -156 q 60 -128 50 -156 q 71 -44 71 -100 l 71 604 q 96 644 71 629 q 158 660 121 660 q 224 644 197 660 q 250 604 250 629 l 250 -44 q 196 -235 250 -164 q 40 -307 142 -307 q -53 -233 -53 -307 m -37 856 q -7 907 -37 892 l 138 985 q 161 992 149 992 q 185 985 171 992 l 329 908 q 358 854 358 890 q 347 817 358 833 q 319 800 336 800 q 306 804 311 800 l 161 882 l 17 804 q 1 800 8 800 q -26 817 -15 800 q -37 856 -37 833 z "},"Ķ":{"ha":767,"x_min":83,"x_max":771,"o":"m 83 57 l 83 960 q 110 1001 83 988 q 174 1015 136 1015 q 238 1001 211 1015 q 264 960 264 988 l 264 581 l 564 989 q 614 1015 583 1015 q 683 985 649 1015 q 718 922 718 956 q 707 888 718 901 l 458 576 l 761 115 q 771 83 771 101 q 737 22 771 50 q 663 -7 703 -7 q 600 28 621 -7 l 339 424 l 264 329 l 264 57 q 237 15 264 31 q 174 0 210 0 q 110 15 136 0 q 83 57 83 31 m 249 -201 q 272 -160 249 -172 l 456 -71 q 474 -67 467 -67 q 513 -88 496 -67 q 529 -135 529 -110 q 504 -178 529 -167 l 324 -264 q 304 -269 310 -269 q 265 -247 282 -269 q 249 -201 249 -225 z "},"ķ":{"ha":683,"x_min":71,"x_max":669,"o":"m 71 57 l 71 989 q 95 1029 71 1014 q 158 1044 119 1044 q 224 1029 197 1044 q 250 989 250 1014 l 250 407 l 511 653 q 547 667 528 667 q 606 639 576 667 q 635 581 635 611 q 619 547 635 563 l 456 399 l 660 107 q 669 78 669 93 q 635 18 669 47 q 568 -11 601 -11 q 524 13 540 -11 l 336 289 l 250 210 l 250 57 q 222 18 250 36 q 158 0 194 0 q 96 17 121 0 q 71 57 71 35 m 200 -201 q 224 -160 200 -172 l 407 -71 q 425 -67 417 -67 q 464 -88 447 -67 q 481 -135 481 -110 q 456 -178 481 -167 l 275 -264 q 256 -269 261 -269 q 217 -247 233 -269 q 200 -201 200 -225 z "},"ĸ":{"ha":682,"x_min":69,"x_max":668,"o":"m 69 57 l 69 604 q 94 644 69 629 q 157 660 118 660 q 222 644 196 660 q 249 604 249 629 l 249 407 l 510 653 q 546 667 526 667 q 604 639 575 667 q 633 581 633 611 q 618 547 633 563 l 454 399 l 658 107 q 668 78 668 93 q 634 18 668 47 q 567 -11 600 -11 q 522 13 539 -11 l 335 289 l 249 210 l 249 57 q 221 18 249 36 q 157 0 193 0 q 94 17 119 0 q 69 57 69 35 z "},"Ĺ":{"ha":672,"x_min":83,"x_max":657,"o":"m 83 57 l 83 960 q 110 1001 83 988 q 174 1015 136 1015 q 238 1001 211 1015 q 264 960 264 988 l 264 158 l 603 158 q 642 135 628 158 q 657 79 657 111 q 642 24 657 47 q 603 0 628 0 l 163 0 q 107 15 131 0 q 83 57 83 31 m 217 1194 q 240 1238 217 1225 l 424 1326 q 442 1329 438 1329 q 481 1308 464 1329 q 497 1261 497 1286 q 472 1219 497 1231 l 292 1132 q 272 1126 278 1126 q 233 1149 250 1126 q 217 1194 217 1171 z "},"ĺ":{"ha":343,"x_min":64,"x_max":344,"o":"m 64 1171 q 88 1214 64 1203 l 271 1303 q 289 1306 285 1306 q 328 1284 311 1306 q 344 1238 344 1263 q 319 1196 344 1207 l 139 1108 q 119 1103 125 1103 q 81 1125 97 1103 q 64 1171 64 1147 m 82 57 l 82 989 q 106 1029 82 1014 q 171 1044 131 1044 q 235 1029 208 1044 q 261 989 261 1014 l 261 57 q 234 18 261 36 q 171 0 207 0 q 108 17 133 0 q 82 57 82 35 z "},"Ļ":{"ha":672,"x_min":83,"x_max":657,"o":"m 83 57 l 83 960 q 110 1001 83 988 q 174 1015 136 1015 q 238 1001 211 1015 q 264 960 264 988 l 264 158 l 603 158 q 642 135 628 158 q 657 79 657 111 q 642 24 657 47 q 603 0 628 0 l 163 0 q 107 15 131 0 q 83 57 83 31 m 218 -201 q 242 -160 218 -172 l 425 -71 q 443 -67 436 -67 q 482 -88 465 -67 q 499 -135 499 -110 q 474 -178 499 -167 l 293 -264 q 274 -269 279 -269 q 235 -247 251 -269 q 218 -201 218 -225 z "},"ļ":{"ha":343,"x_min":32,"x_max":313,"o":"m 32 -201 q 56 -160 32 -172 l 239 -71 q 257 -67 250 -67 q 296 -88 279 -67 q 313 -135 313 -110 q 288 -178 313 -167 l 107 -264 q 88 -269 93 -269 q 49 -247 65 -269 q 32 -201 32 -225 m 82 57 l 82 989 q 106 1029 82 1014 q 171 1044 131 1044 q 235 1029 208 1044 q 261 989 261 1014 l 261 57 q 234 18 261 36 q 171 0 207 0 q 108 17 133 0 q 82 57 82 35 z "},"Ľ":{"ha":674,"x_min":83,"x_max":657,"o":"m 83 57 l 83 960 q 110 1001 83 988 q 174 1015 136 1015 q 238 1001 211 1015 q 264 960 264 988 l 264 158 l 603 158 q 642 135 628 158 q 657 79 657 111 q 642 24 657 47 q 603 0 628 0 l 163 0 q 107 15 131 0 q 83 57 83 31 m 426 935 q 453 1001 426 974 q 519 1029 481 1029 q 586 1001 558 1029 q 614 936 614 974 q 538 732 614 911 q 500 710 526 710 q 460 723 479 710 q 440 757 440 736 q 446 776 440 767 l 478 850 q 426 935 426 878 z "},"ľ":{"ha":343,"x_min":82,"x_max":522,"o":"m 82 57 l 82 989 q 106 1029 82 1014 q 171 1044 131 1044 q 235 1029 208 1044 q 261 989 261 1014 l 261 57 q 234 18 261 36 q 171 0 207 0 q 108 17 133 0 q 82 57 82 35 m 335 935 q 362 1001 335 974 q 428 1029 389 1029 q 494 1001 467 1029 q 522 936 522 974 q 446 732 522 911 q 408 710 435 710 q 368 723 388 710 q 349 757 349 736 q 354 776 349 767 l 386 850 q 335 935 335 878 z "},"Ŀ":{"ha":674,"x_min":83,"x_max":657,"o":"m 83 57 l 83 960 q 110 1001 83 988 q 174 1015 136 1015 q 238 1001 211 1015 q 264 960 264 988 l 264 158 l 603 158 q 642 135 628 158 q 657 79 657 111 q 642 24 657 47 q 603 0 628 0 l 163 0 q 107 15 131 0 q 83 57 83 31 m 440 522 q 426 535 440 522 q 411 585 411 549 q 440 647 411 621 q 511 672 469 672 q 581 647 553 672 q 610 585 610 621 q 581 522 610 549 q 511 496 553 496 q 440 522 469 496 z "},"ŀ":{"ha":514,"x_min":82,"x_max":514,"o":"m 82 57 l 82 989 q 106 1029 82 1014 q 171 1044 131 1044 q 235 1029 208 1044 q 261 989 261 1014 l 261 57 q 234 18 261 36 q 171 0 207 0 q 108 17 133 0 q 82 57 82 35 m 344 354 q 330 367 344 354 q 315 417 315 381 q 344 478 315 453 q 415 504 374 504 q 485 478 457 504 q 514 417 514 453 q 485 354 514 381 q 415 328 457 328 q 344 354 374 328 z "},"Ł":{"ha":681,"x_min":-10,"x_max":665,"o":"m -10 431 q 13 472 -10 463 l 92 511 l 92 960 q 118 1001 92 988 q 182 1015 144 1015 q 246 1001 219 1015 q 272 960 272 988 l 272 599 l 356 640 q 372 643 361 643 q 416 617 396 643 q 436 564 436 590 q 413 522 436 533 l 272 453 l 272 158 l 611 158 q 651 135 636 158 q 665 79 665 111 q 651 24 665 47 q 611 0 636 0 l 171 0 q 115 15 139 0 q 92 57 92 31 l 92 365 l 69 354 q 53 350 61 350 q 9 376 28 350 q -10 431 -10 401 z "},"ł":{"ha":443,"x_min":14,"x_max":431,"o":"m 14 431 q 36 472 14 463 l 131 518 l 131 989 q 155 1029 131 1014 q 219 1044 179 1044 q 283 1029 257 1044 q 310 989 310 1014 l 310 606 l 351 626 q 367 631 360 631 q 411 604 392 631 q 431 550 431 578 q 407 508 431 519 l 310 460 l 310 57 q 283 18 310 36 q 219 0 256 0 q 156 17 182 0 q 131 57 131 35 l 131 372 l 93 354 q 76 350 85 350 q 33 376 51 350 q 14 431 14 401 z "},"Ń":{"ha":840,"x_min":83,"x_max":757,"o":"m 83 57 l 83 958 q 110 1001 83 986 q 174 1015 136 1015 q 250 997 224 1015 q 308 919 276 979 l 576 401 l 576 960 q 603 1001 576 988 q 667 1015 629 1015 q 731 1001 704 1015 q 757 960 757 988 l 757 57 q 730 15 757 31 q 667 0 703 0 q 563 57 593 0 l 264 615 l 264 57 q 237 15 264 31 q 174 0 210 0 q 110 15 136 0 q 83 57 83 31 m 264 1194 q 288 1238 264 1225 l 471 1326 q 489 1329 485 1329 q 528 1308 511 1329 q 544 1261 544 1286 q 519 1219 544 1231 l 339 1132 q 319 1126 325 1126 q 281 1149 297 1126 q 264 1194 264 1171 z "},"ń":{"ha":726,"x_min":69,"x_max":663,"o":"m 69 57 l 69 604 q 94 644 69 629 q 158 660 118 660 q 215 644 192 660 q 238 604 238 629 l 238 563 q 309 638 260 607 q 424 668 358 668 q 591 585 519 668 q 663 386 663 501 l 663 57 q 635 15 663 31 q 572 0 608 0 q 510 15 538 0 q 483 57 483 31 l 483 386 q 447 473 483 435 q 363 511 411 511 q 283 476 317 511 q 249 386 249 442 l 249 57 q 222 18 249 36 q 158 0 194 0 q 95 17 121 0 q 69 57 69 35 m 232 857 q 256 900 232 889 l 439 989 q 457 992 453 992 q 496 970 479 992 q 513 924 513 949 q 488 882 513 893 l 307 794 q 288 789 293 789 q 249 811 265 789 q 232 857 232 833 z "},"Ņ":{"ha":840,"x_min":83,"x_max":757,"o":"m 83 57 l 83 958 q 110 1001 83 986 q 174 1015 136 1015 q 250 997 224 1015 q 308 919 276 979 l 576 401 l 576 960 q 603 1001 576 988 q 667 1015 629 1015 q 731 1001 704 1015 q 757 960 757 988 l 757 57 q 730 15 757 31 q 667 0 703 0 q 563 57 593 0 l 264 615 l 264 57 q 237 15 264 31 q 174 0 210 0 q 110 15 136 0 q 83 57 83 31 m 279 -201 q 303 -160 279 -172 l 486 -71 q 504 -67 497 -67 q 543 -88 526 -67 q 560 -135 560 -110 q 535 -178 560 -167 l 354 -264 q 335 -269 340 -269 q 296 -247 313 -269 q 279 -201 279 -225 z "},"ņ":{"ha":726,"x_min":69,"x_max":663,"o":"m 69 57 l 69 604 q 94 644 69 629 q 158 660 118 660 q 215 644 192 660 q 238 604 238 629 l 238 563 q 309 638 260 607 q 424 668 358 668 q 591 585 519 668 q 663 386 663 501 l 663 57 q 635 15 663 31 q 572 0 608 0 q 510 15 538 0 q 483 57 483 31 l 483 386 q 447 473 483 435 q 363 511 411 511 q 283 476 317 511 q 249 386 249 442 l 249 57 q 222 18 249 36 q 158 0 194 0 q 95 17 121 0 q 69 57 69 35 m 219 -201 q 243 -160 219 -172 l 426 -71 q 444 -67 436 -67 q 483 -88 467 -67 q 500 -135 500 -110 q 475 -178 500 -167 l 294 -264 q 275 -269 281 -269 q 236 -247 253 -269 q 219 -201 219 -225 z "},"Ň":{"ha":840,"x_min":83,"x_max":757,"o":"m 83 57 l 83 958 q 110 1001 83 986 q 174 1015 136 1015 q 250 997 224 1015 q 308 919 276 979 l 576 401 l 576 960 q 603 1001 576 988 q 667 1015 629 1015 q 731 1001 704 1015 q 757 960 757 988 l 757 57 q 730 15 757 31 q 667 0 703 0 q 563 57 593 0 l 264 615 l 264 57 q 237 15 264 31 q 174 0 210 0 q 110 15 136 0 q 83 57 83 31 m 222 1300 q 233 1338 222 1321 q 261 1354 244 1354 q 278 1349 271 1354 l 421 1257 l 563 1349 q 579 1354 572 1354 q 607 1338 596 1354 q 618 1300 618 1321 q 589 1247 618 1265 l 446 1156 q 421 1147 431 1147 q 396 1156 408 1147 l 253 1247 q 222 1300 222 1265 z "},"ň":{"ha":726,"x_min":69,"x_max":663,"o":"m 69 57 l 69 604 q 94 644 69 629 q 158 660 118 660 q 215 644 192 660 q 238 604 238 629 l 238 563 q 309 638 260 607 q 424 668 358 668 q 591 585 519 668 q 663 386 663 501 l 663 57 q 635 15 663 31 q 572 0 608 0 q 510 15 538 0 q 483 57 483 31 l 483 386 q 447 473 483 435 q 363 511 411 511 q 283 476 317 511 q 249 386 249 442 l 249 57 q 222 18 249 36 q 158 0 194 0 q 95 17 121 0 q 69 57 69 35 m 160 963 q 171 1000 160 983 q 199 1017 182 1017 q 215 1011 208 1017 l 358 919 l 500 1011 q 517 1017 510 1017 q 544 1000 533 1017 q 556 963 556 983 q 526 910 556 928 l 383 818 q 358 810 369 810 q 333 818 346 810 l 190 910 q 160 963 160 928 z "},"Ŋ":{"ha":842,"x_min":83,"x_max":757,"o":"m 83 57 l 83 958 q 110 1001 83 986 q 174 1015 136 1015 q 250 997 224 1015 q 308 919 276 979 l 576 401 l 576 960 q 603 1001 576 988 q 667 1015 629 1015 q 731 1001 704 1015 q 757 960 757 988 l 757 -44 q 703 -235 757 -164 q 547 -307 649 -307 q 454 -233 454 -307 q 474 -177 454 -199 q 522 -156 493 -156 q 565 -128 554 -156 q 576 -44 576 -100 l 576 8 q 563 57 576 31 l 264 615 l 264 57 q 237 15 264 31 q 174 0 210 0 q 110 15 136 0 q 83 57 83 31 z "},"ŋ":{"ha":728,"x_min":69,"x_max":663,"o":"m 69 57 l 69 604 q 94 644 69 629 q 158 660 118 660 q 215 644 192 660 q 238 604 238 629 l 238 563 q 309 638 260 607 q 424 668 358 668 q 591 585 519 668 q 663 386 663 501 l 663 -44 q 608 -235 663 -164 q 453 -307 554 -307 q 360 -233 360 -307 q 379 -177 360 -199 q 428 -156 399 -156 q 472 -128 461 -156 q 483 -44 483 -100 l 483 386 q 447 473 483 435 q 363 511 411 511 q 283 476 317 511 q 249 386 249 442 l 249 57 q 222 18 249 36 q 158 0 194 0 q 95 17 121 0 q 69 57 69 35 z "},"Ō":{"ha":794,"x_min":72,"x_max":724,"o":"m 72 310 l 72 697 q 160 939 72 863 q 397 1015 249 1015 q 635 939 546 1015 q 724 697 724 863 l 724 310 q 635 68 724 144 q 397 -8 546 -8 q 160 68 249 -8 q 72 310 72 144 m 199 1243 q 214 1285 199 1268 q 254 1303 229 1303 l 539 1303 q 578 1285 561 1303 q 596 1243 596 1268 q 578 1201 596 1218 q 539 1185 561 1185 l 254 1185 q 214 1201 229 1185 q 199 1243 199 1217 m 253 310 q 397 150 253 150 q 543 310 543 150 l 543 697 q 397 857 543 857 q 253 697 253 857 l 253 310 z "},"ō":{"ha":692,"x_min":44,"x_max":647,"o":"m 44 272 l 44 386 q 133 584 44 500 q 346 668 222 668 q 557 585 467 668 q 647 386 647 501 l 647 272 q 557 74 647 160 q 346 -12 467 -12 q 135 74 225 -12 q 44 272 44 160 m 147 906 q 163 948 147 931 q 203 965 178 965 l 488 965 q 527 948 510 965 q 544 906 544 931 q 527 864 544 881 q 488 847 510 847 l 203 847 q 163 863 178 847 q 147 906 147 879 m 224 272 q 260 183 224 222 q 346 144 296 144 q 431 183 394 144 q 468 272 468 222 l 468 386 q 431 472 468 433 q 346 511 394 511 q 260 473 296 511 q 224 386 224 435 l 224 272 z "},"Ŏ":{"ha":794,"x_min":72,"x_max":724,"o":"m 72 310 l 72 697 q 160 939 72 863 q 397 1015 249 1015 q 635 939 546 1015 q 724 697 724 863 l 724 310 q 635 68 724 144 q 397 -8 546 -8 q 160 68 249 -8 q 72 310 72 144 m 211 1339 l 308 1339 q 335 1265 308 1294 q 396 1235 361 1235 q 456 1265 429 1235 q 483 1339 483 1294 l 581 1339 q 524 1210 581 1265 q 396 1154 468 1154 q 267 1210 324 1154 q 211 1339 211 1265 m 253 310 q 397 150 253 150 q 543 310 543 150 l 543 697 q 397 857 543 857 q 253 697 253 857 l 253 310 z "},"ŏ":{"ha":692,"x_min":44,"x_max":647,"o":"m 44 272 l 44 386 q 133 584 44 500 q 346 668 222 668 q 557 585 467 668 q 647 386 647 501 l 647 272 q 557 74 647 160 q 346 -12 467 -12 q 135 74 225 -12 q 44 272 44 160 m 163 1001 l 260 1001 q 286 927 260 957 q 347 897 313 897 q 408 927 381 897 q 435 1001 435 957 l 532 1001 q 476 872 532 928 q 347 817 419 817 q 219 872 275 817 q 163 1001 163 928 m 224 272 q 260 183 224 222 q 346 144 296 144 q 431 183 394 144 q 468 272 468 222 l 468 386 q 431 472 468 433 q 346 511 394 511 q 260 473 296 511 q 224 386 224 435 l 224 272 z "},"Ő":{"ha":794,"x_min":72,"x_max":724,"o":"m 72 310 l 72 697 q 160 939 72 863 q 397 1015 249 1015 q 635 939 546 1015 q 724 697 724 863 l 724 310 q 635 68 724 144 q 397 -8 546 -8 q 160 68 249 -8 q 72 310 72 144 m 226 1176 q 236 1199 226 1189 l 353 1321 q 379 1332 363 1332 q 415 1315 399 1332 q 432 1279 432 1297 q 422 1256 432 1265 l 308 1136 q 282 1124 297 1124 q 244 1140 261 1124 q 226 1176 226 1157 m 253 310 q 397 150 253 150 q 543 310 543 150 l 543 697 q 397 857 543 857 q 253 697 253 857 l 253 310 m 444 1176 q 454 1199 444 1189 l 571 1321 q 597 1332 582 1332 q 633 1315 617 1332 q 650 1279 650 1297 q 640 1256 650 1265 l 526 1136 q 500 1124 515 1124 q 462 1140 479 1124 q 444 1176 444 1157 z "},"ő":{"ha":692,"x_min":44,"x_max":647,"o":"m 44 272 l 44 386 q 133 584 44 500 q 346 668 222 668 q 557 585 467 668 q 647 386 647 501 l 647 272 q 557 74 647 160 q 346 -12 467 -12 q 135 74 225 -12 q 44 272 44 160 m 175 842 q 185 864 175 854 l 301 986 q 328 997 311 997 q 364 980 347 997 q 381 944 381 963 q 371 921 381 931 l 257 801 q 231 789 246 789 q 192 806 210 789 q 175 842 175 822 m 224 272 q 260 183 224 222 q 346 144 296 144 q 431 183 394 144 q 468 272 468 222 l 468 386 q 431 472 468 433 q 346 511 394 511 q 260 473 296 511 q 224 386 224 435 l 224 272 m 393 842 q 403 864 393 854 l 519 986 q 546 997 531 997 q 582 980 565 997 q 599 944 599 963 q 589 921 599 931 l 475 801 q 449 789 464 789 q 410 806 428 789 q 393 842 393 822 z "},"Œ":{"ha":1151,"x_min":74,"x_max":1129,"o":"m 74 310 l 74 697 q 151 939 74 863 q 365 1015 229 1015 q 484 989 428 1015 q 568 913 540 963 l 568 958 q 592 1000 568 985 q 647 1015 615 1015 l 1074 1015 q 1115 992 1101 1015 q 1129 938 1129 969 q 1115 881 1129 904 q 1074 857 1100 857 l 725 857 l 725 579 l 892 579 q 933 558 918 579 q 947 507 947 538 q 933 458 947 479 q 892 438 918 438 l 725 438 l 725 158 l 1074 158 q 1115 135 1100 158 q 1129 78 1129 111 q 1115 23 1129 46 q 1074 0 1101 0 l 647 0 q 592 15 615 0 q 568 57 568 31 l 568 94 q 484 18 540 44 q 365 -8 428 -8 q 151 68 229 -8 q 74 310 74 144 m 254 310 q 399 150 254 150 q 544 310 544 150 l 544 697 q 399 857 544 857 q 254 697 254 857 l 254 310 z "},"œ":{"ha":1096,"x_min":44,"x_max":1058,"o":"m 44 272 l 44 386 q 133 584 44 500 q 346 668 222 668 q 565 558 481 668 q 771 668 650 668 q 974 594 889 668 q 1058 408 1058 521 q 1048 339 1058 365 q 1016 301 1038 313 q 976 286 994 289 q 928 283 958 283 l 647 283 l 647 263 q 692 166 647 203 q 810 129 736 129 q 913 156 861 129 q 981 182 965 182 q 1028 155 1010 182 q 1047 101 1047 128 q 977 25 1047 63 q 803 -12 907 -12 q 565 97 651 -12 q 346 -12 476 -12 q 135 74 225 -12 q 44 272 44 160 m 224 272 q 260 183 224 222 q 346 144 296 144 q 431 183 394 144 q 468 272 468 222 l 468 386 q 431 472 468 433 q 346 511 394 511 q 260 473 296 511 q 224 386 224 435 l 224 272 m 647 389 l 850 389 q 881 397 872 389 q 890 426 890 404 q 855 506 890 475 q 768 536 819 536 q 683 506 719 536 q 647 429 647 476 l 647 389 z "},"Ŕ":{"ha":792,"x_min":83,"x_max":753,"o":"m 83 57 l 83 960 q 100 999 83 982 q 142 1015 117 1015 l 417 1015 q 746 725 746 1015 q 697 542 746 611 q 564 447 647 472 l 746 110 q 753 88 753 101 q 717 23 753 53 q 640 -7 681 -7 q 578 36 600 -7 l 381 419 l 264 419 l 264 57 q 238 15 264 31 q 174 0 211 0 q 110 15 138 0 q 83 57 83 31 m 264 561 l 417 561 q 565 708 565 561 q 417 857 565 857 l 264 857 l 264 561 m 301 1194 q 325 1238 301 1225 l 508 1326 q 526 1329 522 1329 q 565 1308 549 1329 q 582 1261 582 1286 q 557 1219 582 1231 l 376 1132 q 357 1126 363 1126 q 318 1149 335 1126 q 301 1194 301 1171 z "},"ŕ":{"ha":524,"x_min":69,"x_max":517,"o":"m 69 57 l 69 604 q 94 644 69 629 q 157 660 118 660 q 215 644 192 660 q 238 604 238 629 l 238 547 q 307 632 260 596 q 408 668 354 668 l 451 668 q 497 644 476 668 q 517 590 517 621 q 497 535 517 558 q 451 511 476 511 l 408 511 q 297 454 344 511 q 249 306 249 397 l 249 57 q 221 18 249 36 q 157 0 193 0 q 94 17 119 0 q 69 57 69 35 m 149 857 q 172 900 149 889 l 356 989 q 374 992 369 992 q 413 970 396 992 q 429 924 429 949 q 404 882 429 893 l 224 794 q 204 789 210 789 q 165 811 182 789 q 149 857 149 833 z "},"Ŗ":{"ha":792,"x_min":83,"x_max":753,"o":"m 83 57 l 83 960 q 100 999 83 982 q 142 1015 117 1015 l 417 1015 q 746 725 746 1015 q 697 542 746 611 q 564 447 647 472 l 746 110 q 753 88 753 101 q 717 23 753 53 q 640 -7 681 -7 q 578 36 600 -7 l 381 419 l 264 419 l 264 57 q 238 15 264 31 q 174 0 211 0 q 110 15 138 0 q 83 57 83 31 m 251 -201 q 275 -160 251 -172 l 458 -71 q 476 -67 469 -67 q 515 -88 499 -67 q 532 -135 532 -110 q 507 -178 532 -167 l 326 -264 q 307 -269 313 -269 q 268 -247 285 -269 q 251 -201 251 -225 m 264 561 l 417 561 q 565 708 565 561 q 417 857 565 857 l 264 857 l 264 561 z "},"ŗ":{"ha":524,"x_min":10,"x_max":517,"o":"m 10 -201 q 33 -160 10 -172 l 217 -71 q 235 -67 228 -67 q 274 -88 257 -67 q 290 -135 290 -110 q 265 -178 290 -167 l 85 -264 q 65 -269 71 -269 q 26 -247 43 -269 q 10 -201 10 -225 m 69 57 l 69 604 q 94 644 69 629 q 157 660 118 660 q 215 644 192 660 q 238 604 238 629 l 238 547 q 307 632 260 596 q 408 668 354 668 l 451 668 q 497 644 476 668 q 517 590 517 621 q 497 535 517 558 q 451 511 476 511 l 408 511 q 297 454 344 511 q 249 306 249 397 l 249 57 q 221 18 249 36 q 157 0 193 0 q 94 17 119 0 q 69 57 69 35 z "},"Ř":{"ha":792,"x_min":83,"x_max":753,"o":"m 83 57 l 83 960 q 100 999 83 982 q 142 1015 117 1015 l 417 1015 q 746 725 746 1015 q 697 542 746 611 q 564 447 647 472 l 746 110 q 753 88 753 101 q 717 23 753 53 q 640 -7 681 -7 q 578 36 600 -7 l 381 419 l 264 419 l 264 57 q 238 15 264 31 q 174 0 211 0 q 110 15 138 0 q 83 57 83 31 m 183 1300 q 194 1338 183 1321 q 222 1354 206 1354 q 239 1349 232 1354 l 382 1257 l 524 1349 q 540 1354 533 1354 q 568 1338 557 1354 q 579 1300 579 1321 q 550 1247 579 1265 l 407 1156 q 382 1147 392 1147 q 357 1156 369 1147 l 214 1247 q 183 1300 183 1265 m 264 561 l 417 561 q 565 708 565 561 q 417 857 565 857 l 264 857 l 264 561 z "},"ř":{"ha":524,"x_min":69,"x_max":517,"o":"m 69 57 l 69 604 q 94 644 69 629 q 157 660 118 660 q 215 644 192 660 q 238 604 238 629 l 238 547 q 307 632 260 596 q 408 668 354 668 l 451 668 q 497 644 476 668 q 517 590 517 621 q 497 535 517 558 q 451 511 476 511 l 408 511 q 297 454 344 511 q 249 306 249 397 l 249 57 q 221 18 249 36 q 157 0 193 0 q 94 17 119 0 q 69 57 69 35 m 69 963 q 81 1000 69 983 q 108 1017 92 1017 q 125 1011 118 1017 l 268 919 l 410 1011 q 426 1017 419 1017 q 454 1000 443 1017 q 465 963 465 983 q 436 910 465 928 l 293 818 q 268 810 278 810 q 243 818 256 810 l 100 910 q 69 963 69 928 z "},"Ś":{"ha":725,"x_min":33,"x_max":685,"o":"m 33 160 q 58 224 33 192 q 113 257 82 257 q 153 240 131 257 q 198 203 176 224 q 260 167 219 183 q 349 150 300 150 q 460 181 415 150 q 504 271 504 211 q 480 345 504 313 q 416 399 456 378 q 329 441 376 421 q 234 486 282 461 q 147 542 186 511 q 83 626 107 574 q 58 744 58 678 q 88 874 58 818 q 168 962 118 931 q 275 1008 218 993 q 396 1022 332 1022 q 472 1017 432 1022 q 558 1001 513 1013 q 631 967 603 990 q 660 911 660 943 q 640 848 660 881 q 588 815 621 815 q 519 842 575 815 q 396 868 464 868 q 280 840 321 868 q 239 761 239 811 q 272 691 239 721 q 355 642 306 661 q 462 595 404 624 q 569 533 519 567 q 651 437 618 500 q 685 289 685 374 q 594 66 685 144 q 354 -12 503 -12 q 128 42 222 -12 q 33 160 33 96 m 244 1194 q 268 1238 244 1225 l 451 1326 q 469 1329 465 1329 q 508 1308 492 1329 q 525 1261 525 1286 q 500 1219 525 1231 l 319 1132 q 300 1126 306 1126 q 261 1149 278 1126 q 244 1194 244 1171 z "},"ś":{"ha":575,"x_min":32,"x_max":539,"o":"m 32 107 q 50 159 32 132 q 92 186 68 186 q 130 171 107 186 q 190 140 153 156 q 279 124 228 124 q 381 183 381 124 q 347 236 381 217 q 265 268 313 256 q 168 298 217 281 q 85 356 119 315 q 51 461 51 397 q 111 607 51 546 q 300 668 171 668 q 453 642 386 668 q 521 578 521 615 q 502 523 521 554 q 456 492 483 492 q 395 512 444 492 q 303 532 346 532 q 231 513 256 532 q 206 469 206 493 q 231 431 206 446 q 292 407 256 415 q 372 384 329 399 q 452 350 415 369 q 514 290 489 331 q 539 190 539 249 q 472 42 539 96 q 283 -12 404 -12 q 106 24 179 -12 q 32 107 32 60 m 160 857 q 183 900 160 889 l 367 989 q 385 992 381 992 q 424 970 407 992 q 440 924 440 949 q 415 882 440 893 l 235 794 q 215 789 221 789 q 176 811 193 789 q 160 857 160 833 z "},"Ŝ":{"ha":725,"x_min":33,"x_max":685,"o":"m 33 160 q 58 224 33 192 q 113 257 82 257 q 153 240 131 257 q 198 203 176 224 q 260 167 219 183 q 349 150 300 150 q 460 181 415 150 q 504 271 504 211 q 480 345 504 313 q 416 399 456 378 q 329 441 376 421 q 234 486 282 461 q 147 542 186 511 q 83 626 107 574 q 58 744 58 678 q 88 874 58 818 q 168 962 118 931 q 275 1008 218 993 q 396 1022 332 1022 q 472 1017 432 1022 q 558 1001 513 1013 q 631 967 603 990 q 660 911 660 943 q 640 848 660 881 q 588 815 621 815 q 519 842 575 815 q 396 868 464 868 q 280 840 321 868 q 239 761 239 811 q 272 691 239 721 q 355 642 306 661 q 462 595 404 624 q 569 533 519 567 q 651 437 618 500 q 685 289 685 374 q 594 66 685 144 q 354 -12 503 -12 q 128 42 222 -12 q 33 160 33 96 m 161 1193 q 192 1244 161 1229 l 336 1322 q 360 1329 347 1329 q 383 1322 369 1329 l 528 1246 q 557 1192 557 1228 q 546 1154 557 1171 q 518 1138 535 1138 q 504 1142 511 1138 l 360 1219 l 215 1142 q 200 1138 207 1138 q 172 1154 183 1138 q 161 1193 161 1171 z "},"ŝ":{"ha":575,"x_min":32,"x_max":539,"o":"m 32 107 q 50 159 32 132 q 92 186 68 186 q 130 171 107 186 q 190 140 153 156 q 279 124 228 124 q 381 183 381 124 q 347 236 381 217 q 265 268 313 256 q 168 298 217 281 q 85 356 119 315 q 51 461 51 397 q 111 607 51 546 q 300 668 171 668 q 453 642 386 668 q 521 578 521 615 q 502 523 521 554 q 456 492 483 492 q 395 512 444 492 q 303 532 346 532 q 231 513 256 532 q 206 469 206 493 q 231 431 206 446 q 292 407 256 415 q 372 384 329 399 q 452 350 415 369 q 514 290 489 331 q 539 190 539 249 q 472 42 539 96 q 283 -12 404 -12 q 106 24 179 -12 q 32 107 32 60 m 86 856 q 117 907 86 892 l 261 985 q 285 992 272 992 q 308 985 294 992 l 453 908 q 482 854 482 890 q 471 817 482 833 q 443 800 460 800 q 429 804 436 800 l 285 882 l 140 804 q 125 800 132 800 q 97 817 108 800 q 86 856 86 833 z "},"Ş":{"ha":725,"x_min":33,"x_max":685,"o":"m 33 160 q 58 224 33 192 q 113 257 82 257 q 153 240 131 257 q 198 203 176 224 q 260 167 219 183 q 349 150 300 150 q 460 181 415 150 q 504 271 504 211 q 480 345 504 313 q 416 399 456 378 q 329 441 376 421 q 234 486 282 461 q 147 542 186 511 q 83 626 107 574 q 58 744 58 678 q 88 874 58 818 q 168 962 118 931 q 275 1008 218 993 q 396 1022 332 1022 q 472 1017 432 1022 q 558 1001 513 1013 q 631 967 603 990 q 660 911 660 943 q 640 848 660 881 q 588 815 621 815 q 519 842 575 815 q 396 868 464 868 q 280 840 321 868 q 239 761 239 811 q 272 691 239 721 q 355 642 306 661 q 462 595 404 624 q 569 533 519 567 q 651 437 618 500 q 685 289 685 374 q 614 85 685 161 q 422 -7 543 10 l 403 -71 q 506 -103 471 -74 q 540 -178 540 -133 q 505 -262 540 -224 q 394 -300 469 -300 q 315 -290 353 -300 q 276 -260 276 -279 q 285 -228 276 -247 q 308 -208 294 -208 q 338 -218 313 -208 q 389 -228 363 -228 q 454 -182 454 -228 q 388 -131 454 -136 l 311 -124 l 343 -12 q 124 44 215 -10 q 33 160 33 97 z "},"ş":{"ha":575,"x_min":32,"x_max":539,"o":"m 32 107 q 50 159 32 132 q 92 186 68 186 q 130 171 107 186 q 190 140 153 156 q 279 124 228 124 q 381 183 381 124 q 347 236 381 217 q 265 268 313 256 q 168 298 217 281 q 85 356 119 315 q 51 461 51 397 q 111 607 51 546 q 300 668 171 668 q 453 642 386 668 q 521 578 521 615 q 502 523 521 554 q 456 492 483 492 q 395 512 444 492 q 303 532 346 532 q 231 513 256 532 q 206 469 206 493 q 231 431 206 446 q 292 407 256 415 q 372 384 329 399 q 452 350 415 369 q 514 290 489 331 q 539 190 539 249 q 486 54 539 107 q 336 -10 433 1 l 317 -71 q 419 -103 385 -74 q 454 -178 454 -133 q 419 -262 454 -224 q 308 -300 383 -300 q 228 -290 267 -300 q 190 -260 190 -279 q 199 -228 190 -247 q 222 -208 208 -208 q 251 -218 226 -208 q 303 -228 276 -228 q 368 -182 368 -228 q 301 -131 368 -136 l 225 -124 l 257 -11 q 97 29 161 -6 q 32 107 32 64 z "},"Š":{"ha":725,"x_min":33,"x_max":685,"o":"m 33 160 q 58 224 33 192 q 113 257 82 257 q 153 240 131 257 q 198 203 176 224 q 260 167 219 183 q 349 150 300 150 q 460 181 415 150 q 504 271 504 211 q 480 345 504 313 q 416 399 456 378 q 329 441 376 421 q 234 486 282 461 q 147 542 186 511 q 83 626 107 574 q 58 744 58 678 q 88 874 58 818 q 168 962 118 931 q 275 1008 218 993 q 396 1022 332 1022 q 472 1017 432 1022 q 558 1001 513 1013 q 631 967 603 990 q 660 911 660 943 q 640 848 660 881 q 588 815 621 815 q 519 842 575 815 q 396 868 464 868 q 280 840 321 868 q 239 761 239 811 q 272 691 239 721 q 355 642 306 661 q 462 595 404 624 q 569 533 519 567 q 651 437 618 500 q 685 289 685 374 q 594 66 685 144 q 354 -12 503 -12 q 128 42 222 -12 q 33 160 33 96 m 161 1300 q 172 1338 161 1321 q 200 1354 183 1354 q 217 1349 210 1354 l 360 1257 l 501 1349 q 518 1354 511 1354 q 546 1338 535 1354 q 557 1300 557 1321 q 528 1247 557 1265 l 385 1156 q 360 1147 369 1147 q 335 1156 347 1147 l 192 1247 q 161 1300 161 1265 z "},"š":{"ha":575,"x_min":32,"x_max":539,"o":"m 32 107 q 50 159 32 132 q 92 186 68 186 q 130 171 107 186 q 190 140 153 156 q 279 124 228 124 q 381 183 381 124 q 347 236 381 217 q 265 268 313 256 q 168 298 217 281 q 85 356 119 315 q 51 461 51 397 q 111 607 51 546 q 300 668 171 668 q 453 642 386 668 q 521 578 521 615 q 502 523 521 554 q 456 492 483 492 q 395 512 444 492 q 303 532 346 532 q 231 513 256 532 q 206 469 206 493 q 231 431 206 446 q 292 407 256 415 q 372 384 329 399 q 452 350 415 369 q 514 290 489 331 q 539 190 539 249 q 472 42 539 96 q 283 -12 404 -12 q 106 24 179 -12 q 32 107 32 60 m 90 963 q 101 1000 90 983 q 129 1017 113 1017 q 146 1011 139 1017 l 289 919 l 431 1011 q 447 1017 440 1017 q 475 1000 464 1017 q 486 963 486 983 q 457 910 486 928 l 314 818 q 289 810 300 810 q 264 818 276 810 l 121 910 q 90 963 90 928 z "},"Ţ":{"ha":733,"x_min":17,"x_max":718,"o":"m 17 935 q 31 991 17 967 q 74 1015 46 1015 l 661 1015 q 703 991 689 1015 q 718 935 718 967 q 703 877 718 901 q 661 853 688 853 l 458 853 l 458 57 q 431 15 458 31 q 368 0 404 0 q 304 15 331 0 q 278 57 278 31 l 278 853 l 74 853 q 32 876 47 853 q 17 935 17 900 m 224 -201 q 247 -160 224 -172 l 431 -71 q 449 -67 442 -67 q 488 -88 471 -67 q 504 -135 504 -110 q 479 -178 504 -167 l 299 -264 q 279 -269 285 -269 q 240 -247 257 -269 q 224 -201 224 -225 z "},"ţ":{"ha":482,"x_min":68,"x_max":457,"o":"m 68 225 l 68 899 q 96 938 68 922 q 157 954 124 954 q 220 938 193 954 q 247 899 247 922 l 247 660 l 411 660 q 444 640 432 660 q 457 594 457 621 q 444 549 457 568 q 411 529 432 529 l 247 529 l 247 225 q 265 168 247 185 q 325 151 282 151 l 379 151 q 435 129 415 151 q 456 76 456 107 q 435 22 456 44 q 379 0 415 0 l 325 0 q 68 225 68 0 m 93 -201 q 117 -160 93 -172 l 300 -71 q 318 -67 311 -67 q 357 -88 340 -67 q 374 -135 374 -110 q 349 -178 374 -167 l 168 -264 q 149 -269 154 -269 q 110 -247 126 -269 q 93 -201 93 -225 z "},"Ť":{"ha":733,"x_min":17,"x_max":718,"o":"m 17 935 q 31 991 17 967 q 74 1015 46 1015 l 661 1015 q 703 991 689 1015 q 718 935 718 967 q 703 877 718 901 q 661 853 688 853 l 458 853 l 458 57 q 431 15 458 31 q 368 0 404 0 q 304 15 331 0 q 278 57 278 31 l 278 853 l 74 853 q 32 876 47 853 q 17 935 17 900 m 168 1300 q 179 1338 168 1321 q 207 1354 190 1354 q 224 1349 217 1354 l 367 1257 l 508 1349 q 525 1354 518 1354 q 553 1338 542 1354 q 564 1300 564 1321 q 535 1247 564 1265 l 392 1156 q 367 1147 378 1147 q 342 1156 354 1147 l 199 1247 q 168 1300 168 1265 z "},"ť":{"ha":482,"x_min":68,"x_max":493,"o":"m 68 225 l 68 899 q 96 938 68 922 q 157 954 124 954 q 220 938 193 954 q 247 899 247 922 l 247 660 l 411 660 q 444 640 432 660 q 457 594 457 621 q 444 549 457 568 q 411 529 432 529 l 247 529 l 247 225 q 265 168 247 185 q 325 151 282 151 l 379 151 q 435 129 415 151 q 456 76 456 107 q 435 22 456 44 q 379 0 415 0 l 325 0 q 68 225 68 0 m 306 964 q 333 1031 306 1003 q 399 1058 360 1058 q 465 1031 438 1058 q 493 965 493 1003 q 417 761 493 940 q 379 739 406 739 q 339 752 358 739 q 319 786 319 765 q 325 806 319 796 l 357 879 q 306 964 306 907 z "},"Ŧ":{"ha":733,"x_min":17,"x_max":718,"o":"m 17 935 q 31 991 17 967 q 74 1015 46 1015 l 661 1015 q 703 991 689 1015 q 718 935 718 967 q 703 877 718 901 q 661 853 688 853 l 458 853 l 458 572 l 575 572 q 610 553 597 572 q 622 507 622 533 q 610 461 622 481 q 575 442 597 442 l 458 442 l 458 57 q 431 15 458 31 q 368 0 404 0 q 304 15 331 0 q 278 57 278 31 l 278 442 l 158 442 q 124 461 136 442 q 113 507 113 481 q 124 553 113 533 q 158 572 136 572 l 278 572 l 278 853 l 74 853 q 32 876 47 853 q 17 935 17 900 z "},"ŧ":{"ha":483,"x_min":68,"x_max":457,"o":"m 68 225 l 68 899 q 96 938 68 922 q 157 954 124 954 q 220 938 193 954 q 247 899 247 922 l 247 660 l 411 660 q 444 640 432 660 q 457 594 457 621 q 444 549 457 568 q 411 529 432 529 l 247 529 l 247 428 l 411 428 q 444 408 432 428 q 457 363 457 389 q 444 316 457 335 q 411 297 432 297 l 247 297 l 247 225 q 265 168 247 185 q 325 151 282 151 l 379 151 q 435 129 415 151 q 456 76 456 107 q 435 22 456 44 q 379 0 415 0 l 325 0 q 68 225 68 0 z "},"Ũ":{"ha":825,"x_min":79,"x_max":746,"o":"m 79 310 l 79 960 q 106 1001 79 988 q 169 1015 132 1015 q 233 1001 207 1015 q 260 960 260 988 l 260 310 q 413 150 260 150 q 565 310 565 150 l 565 960 q 592 1001 565 988 q 656 1015 618 1015 q 719 1001 693 1015 q 746 960 746 988 l 746 310 q 655 69 746 146 q 413 -8 564 -8 q 170 68 261 -8 q 79 310 79 144 m 168 1219 q 193 1281 168 1258 q 241 1309 218 1304 q 288 1314 264 1314 q 388 1294 328 1314 q 485 1274 447 1274 q 552 1290 518 1274 q 597 1307 586 1307 q 632 1286 621 1307 q 643 1249 643 1265 q 630 1198 643 1218 q 595 1169 617 1178 q 557 1157 574 1160 q 525 1154 540 1154 q 418 1174 476 1154 q 328 1194 360 1194 q 260 1178 294 1194 q 214 1161 225 1161 q 179 1182 190 1161 q 168 1219 168 1203 z "},"ũ":{"ha":728,"x_min":63,"x_max":664,"o":"m 63 269 l 63 603 q 90 642 63 624 q 153 660 117 660 q 215 642 188 660 q 242 603 242 624 l 242 269 q 278 183 242 221 q 364 144 314 144 q 449 183 414 144 q 485 269 485 221 l 485 604 q 512 643 485 626 q 575 660 539 660 q 639 643 614 660 q 664 604 664 626 l 664 269 q 575 72 664 157 q 364 -12 486 -12 q 152 72 242 -12 q 63 269 63 157 m 126 882 q 151 944 126 921 q 199 972 176 967 q 246 976 222 976 q 346 956 286 976 q 443 936 406 936 q 510 953 476 936 q 556 969 544 969 q 590 949 579 969 q 601 911 601 928 q 588 860 601 881 q 553 831 575 840 q 515 819 532 822 q 483 817 499 817 q 376 837 435 817 q 286 857 318 857 q 218 840 253 857 q 172 824 183 824 q 138 844 149 824 q 126 882 126 865 z "},"Ū":{"ha":825,"x_min":79,"x_max":746,"o":"m 79 310 l 79 960 q 106 1001 79 988 q 169 1015 132 1015 q 233 1001 207 1015 q 260 960 260 988 l 260 310 q 413 150 260 150 q 565 310 565 150 l 565 960 q 592 1001 565 988 q 656 1015 618 1015 q 719 1001 693 1015 q 746 960 746 988 l 746 310 q 655 69 746 146 q 413 -8 564 -8 q 170 68 261 -8 q 79 310 79 144 m 211 1243 q 226 1285 211 1268 q 267 1303 242 1303 l 551 1303 q 591 1285 574 1303 q 608 1243 608 1268 q 591 1201 608 1218 q 551 1185 574 1185 l 267 1185 q 226 1201 242 1185 q 211 1243 211 1217 z "},"ū":{"ha":728,"x_min":63,"x_max":664,"o":"m 63 269 l 63 603 q 90 642 63 624 q 153 660 117 660 q 215 642 188 660 q 242 603 242 624 l 242 269 q 278 183 242 221 q 364 144 314 144 q 449 183 414 144 q 485 269 485 221 l 485 604 q 512 643 485 626 q 575 660 539 660 q 639 643 614 660 q 664 604 664 626 l 664 269 q 575 72 664 157 q 364 -12 486 -12 q 152 72 242 -12 q 63 269 63 157 m 168 906 q 183 948 168 931 q 224 965 199 965 l 508 965 q 548 948 531 965 q 565 906 565 931 q 548 864 565 881 q 508 847 531 847 l 224 847 q 183 863 199 847 q 168 906 168 879 z "},"Ŭ":{"ha":825,"x_min":79,"x_max":746,"o":"m 79 310 l 79 960 q 106 1001 79 988 q 169 1015 132 1015 q 233 1001 207 1015 q 260 960 260 988 l 260 310 q 413 150 260 150 q 565 310 565 150 l 565 960 q 592 1001 565 988 q 656 1015 618 1015 q 719 1001 693 1015 q 746 960 746 988 l 746 310 q 655 69 746 146 q 413 -8 564 -8 q 170 68 261 -8 q 79 310 79 144 m 224 1339 l 321 1339 q 347 1265 321 1294 q 408 1235 374 1235 q 469 1265 442 1235 q 496 1339 496 1294 l 593 1339 q 537 1210 593 1265 q 408 1154 481 1154 q 280 1210 336 1154 q 224 1339 224 1265 z "},"ŭ":{"ha":728,"x_min":63,"x_max":664,"o":"m 63 269 l 63 603 q 90 642 63 624 q 153 660 117 660 q 215 642 188 660 q 242 603 242 624 l 242 269 q 278 183 242 221 q 364 144 314 144 q 449 183 414 144 q 485 269 485 221 l 485 604 q 512 643 485 626 q 575 660 539 660 q 639 643 614 660 q 664 604 664 626 l 664 269 q 575 72 664 157 q 364 -12 486 -12 q 152 72 242 -12 q 63 269 63 157 m 181 1001 l 278 1001 q 304 927 278 957 q 365 897 331 897 q 426 927 399 897 q 453 1001 453 957 l 550 1001 q 494 872 550 928 q 365 817 438 817 q 237 872 293 817 q 181 1001 181 928 z "},"Ů":{"ha":825,"x_min":79,"x_max":746,"o":"m 79 310 l 79 960 q 106 1001 79 988 q 169 1015 132 1015 q 233 1001 207 1015 q 260 960 260 988 l 260 310 q 413 150 260 150 q 565 310 565 150 l 565 960 q 592 1001 565 988 q 656 1015 618 1015 q 719 1001 693 1015 q 746 960 746 988 l 746 310 q 655 69 746 146 q 413 -8 564 -8 q 170 68 261 -8 q 79 310 79 144 m 275 1268 q 315 1364 275 1322 q 410 1406 354 1406 q 506 1364 465 1406 q 547 1268 547 1322 q 506 1170 547 1213 q 410 1128 464 1128 q 315 1170 356 1128 q 275 1268 275 1213 m 346 1267 q 365 1221 346 1242 q 411 1200 385 1200 q 454 1220 436 1200 q 472 1267 472 1240 q 454 1310 472 1292 q 411 1329 436 1329 q 365 1310 385 1329 q 346 1267 346 1290 z "},"ů":{"ha":728,"x_min":63,"x_max":664,"o":"m 63 269 l 63 603 q 90 642 63 624 q 153 660 117 660 q 215 642 188 660 q 242 603 242 624 l 242 269 q 278 183 242 221 q 364 144 314 144 q 449 183 414 144 q 485 269 485 221 l 485 604 q 512 643 485 626 q 575 660 539 660 q 639 643 614 660 q 664 604 664 626 l 664 269 q 575 72 664 157 q 364 -12 486 -12 q 152 72 242 -12 q 63 269 63 157 m 226 931 q 266 1026 226 985 q 361 1068 306 1068 q 458 1026 417 1068 q 499 931 499 985 q 457 833 499 875 q 361 790 415 790 q 267 833 307 790 q 226 931 226 875 m 297 929 q 317 883 297 904 q 363 863 336 863 q 406 883 388 863 q 424 929 424 903 q 406 973 424 954 q 363 992 388 992 q 317 972 336 992 q 297 929 297 953 z "},"Ű":{"ha":825,"x_min":79,"x_max":746,"o":"m 79 310 l 79 960 q 106 1001 79 988 q 169 1015 132 1015 q 233 1001 207 1015 q 260 960 260 988 l 260 310 q 413 150 260 150 q 565 310 565 150 l 565 960 q 592 1001 565 988 q 656 1015 618 1015 q 719 1001 693 1015 q 746 960 746 988 l 746 310 q 655 69 746 146 q 413 -8 564 -8 q 170 68 261 -8 q 79 310 79 144 m 239 1176 q 249 1199 239 1189 l 365 1321 q 392 1332 375 1332 q 428 1315 411 1332 q 444 1279 444 1297 q 435 1256 444 1265 l 321 1136 q 294 1124 310 1124 q 256 1140 274 1124 q 239 1176 239 1157 m 457 1176 q 467 1199 457 1189 l 583 1321 q 610 1332 594 1332 q 646 1315 629 1332 q 663 1279 663 1297 q 653 1256 663 1265 l 539 1136 q 513 1124 528 1124 q 474 1140 492 1124 q 457 1176 457 1157 z "},"ű":{"ha":728,"x_min":63,"x_max":664,"o":"m 63 269 l 63 603 q 90 642 63 624 q 153 660 117 660 q 215 642 188 660 q 242 603 242 624 l 242 269 q 278 183 242 221 q 364 144 314 144 q 449 183 414 144 q 485 269 485 221 l 485 604 q 512 643 485 626 q 575 660 539 660 q 639 643 614 660 q 664 604 664 626 l 664 269 q 575 72 664 157 q 364 -12 486 -12 q 152 72 242 -12 q 63 269 63 157 m 190 839 q 200 861 190 851 l 317 983 q 343 994 326 994 q 379 977 363 994 q 396 942 396 960 q 386 918 396 928 l 272 799 q 246 786 261 786 q 208 803 225 786 q 190 839 190 819 m 408 839 q 418 861 408 851 l 535 983 q 561 994 546 994 q 597 977 581 994 q 614 942 614 960 q 604 918 614 928 l 490 799 q 464 786 479 786 q 426 803 443 786 q 408 839 408 819 z "},"Ų":{"ha":825,"x_min":79,"x_max":746,"o":"m 79 310 l 79 960 q 106 1001 79 988 q 169 1015 132 1015 q 233 1001 207 1015 q 260 960 260 988 l 260 310 q 413 150 260 150 q 565 310 565 150 l 565 960 q 592 1001 565 988 q 656 1015 618 1015 q 719 1001 693 1015 q 746 960 746 988 l 746 310 q 547 10 746 71 q 469 -65 500 -19 q 439 -154 439 -111 q 522 -219 439 -219 q 554 -260 554 -219 q 514 -296 554 -296 q 394 -262 436 -296 q 351 -171 351 -228 q 425 -8 351 -85 l 413 -8 q 170 68 261 -8 q 79 310 79 144 z "},"ų":{"ha":728,"x_min":63,"x_max":664,"o":"m 63 269 l 63 603 q 90 642 63 624 q 153 660 117 660 q 215 642 188 660 q 242 603 242 624 l 242 269 q 278 183 242 221 q 364 144 314 144 q 449 183 414 144 q 485 269 485 221 l 485 604 q 512 643 485 626 q 575 660 539 660 q 639 643 614 660 q 664 604 664 626 l 664 269 q 612 114 664 185 q 478 10 560 43 q 400 -65 431 -19 q 369 -154 369 -111 q 453 -219 369 -219 q 485 -260 485 -219 q 444 -296 485 -296 q 324 -262 367 -296 q 282 -171 282 -228 q 351 -12 282 -85 q 147 76 232 -7 q 63 269 63 160 z "},"Ŵ":{"ha":1226,"x_min":13,"x_max":1214,"o":"m 13 943 q 50 994 13 972 q 128 1015 88 1015 q 188 979 178 1015 l 407 226 l 525 710 q 614 760 538 760 q 701 710 689 760 l 819 226 l 1039 979 q 1099 1015 1049 1015 q 1176 994 1139 1015 q 1214 943 1214 972 q 1211 926 1214 935 l 936 53 q 818 -8 915 -8 q 743 8 776 -8 q 703 53 710 24 l 614 428 l 524 53 q 483 8 517 24 q 408 -8 450 -8 q 332 8 365 -8 q 290 53 299 24 l 15 926 q 13 943 13 935 m 415 1193 q 446 1244 415 1229 l 590 1322 q 614 1329 601 1329 q 638 1322 624 1329 l 782 1246 q 811 1192 811 1228 q 800 1154 811 1171 q 772 1138 789 1138 q 758 1142 764 1138 l 614 1219 l 469 1142 q 454 1138 461 1138 q 426 1154 438 1138 q 415 1193 415 1171 z "},"ŵ":{"ha":963,"x_min":10,"x_max":953,"o":"m 10 593 q 49 645 10 624 q 126 667 88 667 q 178 638 167 667 l 317 243 l 421 586 q 482 622 432 622 q 543 586 532 622 l 646 242 l 786 638 q 838 667 797 667 q 914 644 875 667 q 953 592 953 622 q 947 567 953 576 l 733 17 q 663 -15 721 -15 q 589 17 601 -15 l 482 319 l 376 18 q 300 -15 364 -15 q 231 18 243 -15 l 17 567 q 10 593 10 581 m 285 856 q 315 907 285 892 l 460 985 q 483 992 471 992 q 507 985 493 992 l 651 908 q 681 854 681 890 q 669 817 681 833 q 642 800 658 800 q 628 804 633 800 l 483 882 l 339 804 q 324 800 331 800 q 296 817 307 800 q 285 856 285 833 z "},"Ŷ":{"ha":797,"x_min":13,"x_max":785,"o":"m 13 940 q 52 993 13 971 q 132 1015 92 1015 q 188 979 169 1015 l 399 578 l 611 979 q 665 1015 631 1015 q 745 993 706 1015 q 785 940 785 971 q 781 922 785 929 l 494 425 q 489 407 489 417 l 489 57 q 463 15 489 31 q 399 0 436 0 q 335 15 363 0 q 308 57 308 31 l 308 407 q 304 425 308 419 l 17 922 q 13 940 13 933 m 201 1193 q 232 1244 201 1229 l 376 1322 q 400 1329 388 1329 q 424 1322 410 1329 l 568 1246 q 597 1192 597 1228 q 586 1154 597 1171 q 558 1138 575 1138 q 544 1142 550 1138 l 400 1219 l 256 1142 q 240 1138 247 1138 q 213 1154 224 1138 q 201 1193 201 1171 z "},"ŷ":{"ha":661,"x_min":8,"x_max":650,"o":"m 8 -231 q 54 -156 8 -156 q 183 -108 119 -156 q 253 49 246 -61 l 14 560 q 8 583 8 574 q 49 643 8 617 q 128 669 90 669 q 179 639 169 669 l 346 224 l 481 639 q 528 669 490 669 q 607 642 564 669 q 650 581 650 615 q 646 560 650 569 l 443 42 l 419 -19 q 395 -85 403 -67 q 369 -141 388 -103 q 335 -197 350 -179 q 294 -240 321 -214 q 241 -277 268 -265 q 175 -298 214 -289 q 90 -307 136 -307 q 29 -292 50 -307 q 8 -231 8 -276 m 149 856 q 179 907 149 892 l 324 985 q 347 992 335 992 q 371 985 357 992 l 515 908 q 544 854 544 890 q 533 817 544 833 q 506 800 522 800 q 492 804 497 800 l 347 882 l 203 804 q 188 800 194 800 q 160 817 171 800 q 149 856 149 833 z "},"Ÿ":{"ha":797,"x_min":13,"x_max":785,"o":"m 13 940 q 52 993 13 971 q 132 1015 92 1015 q 188 979 169 1015 l 399 578 l 611 979 q 665 1015 631 1015 q 745 993 706 1015 q 785 940 785 971 q 781 922 785 929 l 494 425 q 489 407 489 417 l 489 57 q 463 15 489 31 q 399 0 436 0 q 335 15 363 0 q 308 57 308 31 l 308 407 q 304 425 308 419 l 17 922 q 13 940 13 933 m 246 1161 q 235 1172 246 1161 q 225 1213 225 1183 q 246 1263 225 1242 q 296 1285 267 1285 q 345 1263 325 1285 q 365 1213 365 1242 q 345 1161 365 1183 q 296 1139 325 1139 q 246 1161 267 1139 m 453 1161 q 443 1172 453 1161 q 432 1213 432 1183 q 453 1263 432 1242 q 504 1285 474 1285 q 553 1263 532 1285 q 574 1213 574 1242 q 553 1161 574 1183 q 504 1139 532 1139 q 453 1161 475 1139 z "},"Ź":{"ha":725,"x_min":19,"x_max":707,"o":"m 19 50 q 39 113 19 81 l 451 857 l 100 857 q 59 880 74 857 q 44 936 44 903 q 58 992 44 968 q 100 1015 72 1015 l 628 1015 q 682 967 682 1015 q 661 901 682 936 l 250 158 l 650 158 q 691 134 675 158 q 707 79 707 110 q 691 24 707 49 q 650 0 675 0 l 74 0 q 19 50 19 0 m 256 1194 q 279 1238 256 1225 l 463 1326 q 481 1329 476 1329 q 519 1308 503 1329 q 536 1261 536 1286 q 511 1219 536 1231 l 331 1132 q 311 1126 317 1126 q 272 1149 289 1126 q 256 1194 256 1171 z "},"ź":{"ha":607,"x_min":29,"x_max":582,"o":"m 29 64 q 60 136 29 100 l 333 514 l 93 514 q 56 535 71 514 q 40 588 40 557 q 55 639 40 618 q 93 660 69 660 l 501 660 q 543 644 526 660 q 560 599 560 628 q 532 524 560 560 l 257 146 l 529 146 q 567 124 551 146 q 582 72 582 103 q 567 21 582 42 q 529 0 553 0 l 90 0 q 44 19 60 0 q 29 64 29 38 m 214 857 q 238 900 214 889 l 421 989 q 439 992 435 992 q 478 970 461 992 q 494 924 494 949 q 469 882 494 893 l 289 794 q 269 789 275 789 q 231 811 247 789 q 214 857 214 833 z "},"Ż":{"ha":725,"x_min":19,"x_max":707,"o":"m 19 50 q 39 113 19 81 l 451 857 l 100 857 q 59 880 74 857 q 44 936 44 903 q 58 992 44 968 q 100 1015 72 1015 l 628 1015 q 682 967 682 1015 q 661 901 682 936 l 250 158 l 650 158 q 691 134 675 158 q 707 79 707 110 q 691 24 707 49 q 650 0 675 0 l 74 0 q 19 50 19 0 m 326 1161 q 316 1172 326 1161 q 306 1213 306 1183 q 326 1263 306 1242 q 376 1285 347 1285 q 426 1263 406 1285 q 446 1213 446 1242 q 426 1161 446 1183 q 376 1139 406 1139 q 326 1161 347 1139 z "},"ż":{"ha":607,"x_min":29,"x_max":582,"o":"m 29 64 q 60 136 29 100 l 333 514 l 93 514 q 56 535 71 514 q 40 588 40 557 q 55 639 40 618 q 93 660 69 660 l 501 660 q 543 644 526 660 q 560 599 560 628 q 532 524 560 560 l 257 146 l 529 146 q 567 124 551 146 q 582 72 582 103 q 567 21 582 42 q 529 0 553 0 l 90 0 q 44 19 60 0 q 29 64 29 38 m 257 824 q 247 835 257 824 q 236 875 236 846 q 257 926 236 904 q 307 947 278 947 q 356 926 336 947 q 376 875 376 904 q 356 824 376 846 q 307 801 336 801 q 257 824 278 801 z "},"Ž":{"ha":725,"x_min":19,"x_max":707,"o":"m 19 50 q 39 113 19 81 l 451 857 l 100 857 q 59 880 74 857 q 44 936 44 903 q 58 992 44 968 q 100 1015 72 1015 l 628 1015 q 682 967 682 1015 q 661 901 682 936 l 250 158 l 650 158 q 691 134 675 158 q 707 79 707 110 q 691 24 707 49 q 650 0 675 0 l 74 0 q 19 50 19 0 m 168 1300 q 179 1338 168 1321 q 207 1354 190 1354 q 224 1349 217 1354 l 367 1257 l 508 1349 q 525 1354 518 1354 q 553 1338 542 1354 q 564 1300 564 1321 q 535 1247 564 1265 l 392 1156 q 367 1147 378 1147 q 342 1156 354 1147 l 199 1247 q 168 1300 168 1265 z "},"ž":{"ha":607,"x_min":29,"x_max":582,"o":"m 29 64 q 60 136 29 100 l 333 514 l 93 514 q 56 535 71 514 q 40 588 40 557 q 55 639 40 618 q 93 660 69 660 l 501 660 q 543 644 526 660 q 560 599 560 628 q 532 524 560 560 l 257 146 l 529 146 q 567 124 551 146 q 582 72 582 103 q 567 21 582 42 q 529 0 553 0 l 90 0 q 44 19 60 0 q 29 64 29 38 m 108 963 q 119 1000 108 983 q 147 1017 131 1017 q 164 1011 157 1017 l 307 919 l 449 1011 q 465 1017 458 1017 q 493 1000 482 1017 q 504 963 504 983 q 475 910 504 928 l 332 818 q 307 810 317 810 q 282 818 294 810 l 139 910 q 108 963 108 928 z "},"ƒ":{"ha":536,"x_min":-100,"x_max":585,"o":"m -100 -111 q -83 -49 -100 -75 q -39 -24 -65 -24 l -8 -24 q 61 104 43 -24 l 154 788 q 258 985 169 904 q 460 1067 347 1067 l 532 1067 q 570 1045 556 1067 q 585 992 585 1024 q 567 933 585 956 q 525 910 550 910 l 457 910 q 374 876 406 910 q 333 788 342 843 l 308 618 l 481 618 q 515 599 503 618 q 526 554 526 581 q 514 507 526 526 q 479 488 501 488 l 289 488 l 236 104 q 158 -107 219 -24 q -11 -190 96 -190 l -46 -190 q -85 -167 -71 -190 q -100 -111 -100 -144 z "},"Ǽ":{"ha":1093,"x_min":79,"x_max":1071,"o":"m 79 64 l 79 697 q 166 938 79 861 q 396 1015 253 1015 l 1014 1015 q 1056 992 1042 1015 q 1071 938 1071 969 q 1056 881 1071 904 q 1014 857 1040 857 l 697 857 l 697 579 l 863 579 q 904 558 889 579 q 919 507 919 536 q 905 459 919 481 q 863 438 890 438 l 697 438 l 697 158 l 1014 158 q 1056 135 1040 158 q 1071 78 1071 111 q 1056 23 1071 46 q 1014 0 1042 0 l 596 0 q 540 15 564 0 q 517 57 517 31 l 517 438 l 250 438 l 250 64 q 232 16 250 32 q 160 0 214 0 q 79 64 79 0 m 250 579 l 517 579 l 517 857 l 396 857 q 250 697 250 857 l 250 579 m 506 1190 q 529 1233 506 1222 l 713 1322 q 731 1325 726 1325 q 769 1303 753 1325 q 786 1257 786 1282 q 761 1215 786 1226 l 581 1128 q 561 1122 567 1122 q 522 1144 539 1122 q 506 1190 506 1167 z "},"ǽ":{"ha":1039,"x_min":31,"x_max":1001,"o":"m 31 171 q 114 331 31 285 q 354 376 197 376 l 410 376 l 410 396 q 380 485 410 447 q 288 524 350 524 q 181 501 225 524 q 131 479 138 479 q 85 507 103 479 q 68 569 68 535 q 140 639 68 610 q 292 668 213 668 q 508 560 438 668 q 714 668 593 668 q 916 595 831 668 q 1001 403 1001 522 q 992 338 1001 363 q 962 301 982 313 q 922 287 942 290 q 871 283 903 283 l 590 283 l 590 263 q 635 166 590 203 q 751 129 681 129 q 856 156 803 129 q 924 182 908 182 q 972 155 953 182 q 990 103 990 128 q 917 25 990 63 q 743 -12 844 -12 q 486 121 576 -12 q 373 23 438 58 q 243 -12 308 -12 q 91 35 151 -12 q 31 171 31 82 m 210 194 q 230 140 210 158 q 283 121 250 121 q 369 163 328 121 q 410 254 410 204 l 410 283 l 389 283 q 300 278 335 283 q 238 253 265 274 q 210 194 210 232 m 393 857 q 417 900 393 889 l 600 989 q 618 992 614 992 q 657 970 640 992 q 674 924 674 949 q 649 882 674 893 l 468 794 q 449 789 454 789 q 410 811 426 789 q 393 857 393 833 m 590 389 l 793 389 q 825 397 817 389 q 833 425 833 404 q 798 505 833 474 q 711 536 763 536 q 626 506 661 536 q 590 428 590 476 l 590 389 z "},"Ǿ":{"ha":796,"x_min":72,"x_max":724,"o":"m 72 310 l 72 697 q 160 939 72 863 q 397 1015 249 1015 q 564 983 494 1015 l 593 1042 q 643 1071 608 1071 q 691 1053 669 1071 q 713 1008 713 1035 q 707 983 713 994 l 667 903 q 724 697 724 824 l 724 310 q 635 68 724 144 q 397 -8 546 -8 q 232 22 297 -8 l 208 -25 q 154 -56 193 -56 q 106 -37 125 -56 q 88 6 88 -18 q 94 29 88 18 l 131 101 q 72 310 72 179 m 253 350 l 489 831 q 397 857 454 857 q 253 697 253 857 l 253 350 m 283 1194 q 307 1238 283 1225 l 490 1326 q 508 1329 504 1329 q 547 1308 531 1329 q 564 1261 564 1286 q 539 1219 564 1231 l 358 1132 q 339 1126 344 1126 q 300 1149 317 1126 q 283 1194 283 1171 m 307 174 q 397 150 340 150 q 543 310 543 150 l 543 651 l 307 174 z "},"ǿ":{"ha":692,"x_min":44,"x_max":647,"o":"m 44 272 l 44 386 q 133 584 44 500 q 346 668 222 668 q 503 625 432 668 l 550 692 q 578 708 561 708 q 607 696 594 708 q 619 668 619 683 q 610 642 619 656 l 564 578 q 647 386 647 494 l 647 272 q 557 74 647 160 q 346 -12 467 -12 q 179 38 256 -12 l 131 -32 q 107 -44 122 -44 q 81 -33 93 -44 q 68 -7 68 -22 q 76 15 68 1 l 124 83 q 44 272 44 167 m 224 272 q 229 233 224 250 l 410 490 q 346 511 378 511 q 260 473 296 511 q 224 386 224 435 l 224 272 m 257 857 q 281 900 257 889 l 464 989 q 482 992 478 992 q 521 970 504 992 q 538 924 538 949 q 513 882 538 893 l 332 794 q 313 789 318 789 q 274 811 290 789 q 257 857 257 833 m 274 169 q 346 144 308 144 q 431 183 394 144 q 468 272 468 222 l 468 386 q 458 429 468 406 l 274 169 z "},"Ș":{"ha":725,"x_min":33,"x_max":685,"o":"m 33 160 q 58 224 33 192 q 113 257 82 257 q 153 240 131 257 q 198 203 176 224 q 260 167 219 183 q 349 150 300 150 q 460 181 415 150 q 504 271 504 211 q 480 345 504 313 q 416 399 456 378 q 329 441 376 421 q 234 486 282 461 q 147 542 186 511 q 83 626 107 574 q 58 744 58 678 q 88 874 58 818 q 168 962 118 931 q 275 1008 218 993 q 396 1022 332 1022 q 472 1017 432 1022 q 558 1001 513 1013 q 631 967 603 990 q 660 911 660 943 q 640 848 660 881 q 588 815 621 815 q 519 842 575 815 q 396 868 464 868 q 280 840 321 868 q 239 761 239 811 q 272 691 239 721 q 355 642 306 661 q 462 595 404 624 q 569 533 519 567 q 651 437 618 500 q 685 289 685 374 q 594 66 685 144 q 354 -12 503 -12 q 128 42 222 -12 q 33 160 33 96 m 235 -201 q 258 -160 235 -172 l 442 -71 q 460 -67 453 -67 q 499 -88 482 -67 q 515 -135 515 -110 q 490 -178 515 -167 l 310 -264 q 290 -269 296 -269 q 251 -247 268 -269 q 235 -201 235 -225 z "},"ș":{"ha":575,"x_min":32,"x_max":539,"o":"m 32 107 q 50 159 32 132 q 92 186 68 186 q 130 171 107 186 q 190 140 153 156 q 279 124 228 124 q 381 183 381 124 q 347 236 381 217 q 265 268 313 256 q 168 298 217 281 q 85 356 119 315 q 51 461 51 397 q 111 607 51 546 q 300 668 171 668 q 453 642 386 668 q 521 578 521 615 q 502 523 521 554 q 456 492 483 492 q 395 512 444 492 q 303 532 346 532 q 231 513 256 532 q 206 469 206 493 q 231 431 206 446 q 292 407 256 415 q 372 384 329 399 q 452 350 415 369 q 514 290 489 331 q 539 190 539 249 q 472 42 539 96 q 283 -12 404 -12 q 106 24 179 -12 q 32 107 32 60 m 151 -201 q 175 -160 151 -172 l 358 -71 q 376 -67 369 -67 q 415 -88 399 -67 q 432 -135 432 -110 q 407 -178 432 -167 l 226 -264 q 207 -269 213 -269 q 168 -247 185 -269 q 151 -201 151 -225 z "},"ȷ":{"ha":321,"x_min":-53,"x_max":250,"o":"m -53 -233 q -33 -177 -53 -199 q 15 -156 -14 -156 q 60 -128 50 -156 q 71 -44 71 -100 l 71 604 q 96 644 71 629 q 158 660 121 660 q 224 644 197 660 q 250 604 250 629 l 250 -44 q 196 -235 250 -164 q 40 -307 142 -307 q -53 -233 -53 -307 z "},"ə":{"ha":672,"x_min":38,"x_max":628,"o":"m 38 249 q 48 317 38 290 q 80 356 58 344 q 120 369 101 367 q 168 372 139 372 l 450 372 l 450 393 q 405 490 450 453 q 288 526 360 526 q 182 500 235 526 q 115 474 129 474 q 67 501 86 474 q 49 553 49 528 q 119 631 49 593 q 293 668 189 668 q 534 590 440 668 q 628 383 628 511 l 628 265 q 539 69 628 151 q 325 -12 450 -12 q 122 61 207 -12 q 38 249 38 135 m 206 229 q 241 150 206 181 q 328 119 276 119 q 414 149 378 119 q 450 228 450 179 l 450 267 l 247 267 q 215 259 224 267 q 206 229 206 251 z "},"ˆ":{"ha":396,"x_min":0,"x_max":396,"o":"m 0 856 q 31 907 0 892 l 175 985 q 199 992 186 992 q 222 985 208 992 l 367 908 q 396 854 396 890 q 385 817 396 833 q 357 800 374 800 q 343 804 350 800 l 199 882 l 54 804 q 39 800 46 800 q 11 817 22 800 q 0 856 0 833 z "},"ˇ":{"ha":401,"x_min":3,"x_max":399,"o":"m 3 963 q 14 1000 3 983 q 42 1017 25 1017 q 58 1011 51 1017 l 201 919 l 343 1011 q 360 1017 353 1017 q 388 1000 376 1017 q 399 963 399 983 q 369 910 399 928 l 226 818 q 201 810 211 810 q 176 818 189 810 l 33 910 q 3 963 3 928 z "},"˘":{"ha":369,"x_min":0,"x_max":369,"o":"m 0 1001 l 97 1001 q 124 927 97 957 q 185 897 150 897 q 245 927 218 897 q 272 1001 272 957 l 369 1001 q 313 872 369 928 q 185 817 257 817 q 56 872 113 817 q 0 1001 0 928 z "},"˙":{"ha":265,"x_min":68,"x_max":208,"o":"m 89 824 q 78 835 89 824 q 68 875 68 846 q 89 926 68 904 q 139 947 110 947 q 188 926 168 947 q 208 875 208 904 q 188 824 208 846 q 139 801 168 801 q 89 824 110 801 z "},"˚":{"ha":272,"x_min":0,"x_max":272,"o":"m 0 931 q 40 1026 0 985 q 135 1068 79 1068 q 231 1026 190 1068 q 272 931 272 985 q 231 833 272 875 q 135 790 189 790 q 40 833 81 790 q 0 931 0 875 m 71 929 q 90 883 71 904 q 136 863 110 863 q 179 883 161 863 q 197 929 197 903 q 179 973 197 954 q 136 992 161 992 q 90 972 110 992 q 71 929 71 953 z "},"˛":{"ha":203,"x_min":0,"x_max":203,"o":"m 42 -262 q 21 -245 42 -262 q 0 -171 0 -228 q 35 -58 0 -114 q 131 36 71 -1 l 196 10 q 118 -65 149 -19 q 88 -154 88 -111 q 171 -219 88 -219 q 203 -260 203 -219 q 163 -296 203 -296 q 42 -262 85 -296 z "},"˜":{"ha":475,"x_min":0,"x_max":475,"o":"m 0 882 q 25 944 0 921 q 73 972 50 967 q 119 976 96 976 q 221 956 161 976 q 317 936 281 936 q 384 953 350 936 q 429 969 418 969 q 464 949 453 969 q 475 911 475 928 q 462 860 475 881 q 427 831 449 840 q 389 819 406 822 q 357 817 372 817 q 250 837 308 817 q 160 857 192 857 q 92 840 126 857 q 46 824 57 824 q 11 844 22 824 q 0 882 0 865 z "},"˝":{"ha":424,"x_min":0,"x_max":424,"o":"m 0 839 q 10 861 0 851 l 126 983 q 153 994 136 994 q 189 977 172 994 q 206 942 206 960 q 196 918 206 928 l 82 799 q 56 786 71 786 q 17 803 35 786 q 0 839 0 819 m 218 839 q 228 861 218 851 l 344 983 q 371 994 356 994 q 407 977 390 994 q 424 942 424 960 q 414 918 424 928 l 300 799 q 274 786 289 786 q 235 803 253 786 q 218 839 218 819 z "},"π":{"ha":750,"x_min":69,"x_max":681,"o":"m 69 56 l 69 603 q 93 644 69 629 q 149 660 117 660 l 601 660 q 657 644 633 660 q 681 603 681 629 l 681 56 q 654 14 681 28 q 590 0 628 0 q 526 14 553 0 q 500 56 500 28 l 500 501 l 249 501 l 249 56 q 222 14 249 28 q 158 0 196 0 q 96 14 122 0 q 69 56 69 28 z "},"Ẁ":{"ha":1226,"x_min":13,"x_max":1214,"o":"m 13 943 q 50 994 13 972 q 128 1015 88 1015 q 188 979 178 1015 l 407 226 l 525 710 q 614 760 538 760 q 701 710 689 760 l 819 226 l 1039 979 q 1099 1015 1049 1015 q 1176 994 1139 1015 q 1214 943 1214 972 q 1211 926 1214 935 l 936 53 q 818 -8 915 -8 q 743 8 776 -8 q 703 53 710 24 l 614 428 l 524 53 q 483 8 517 24 q 408 -8 450 -8 q 332 8 365 -8 q 290 53 299 24 l 15 926 q 13 943 13 935 m 451 1261 q 468 1308 451 1286 q 507 1329 485 1329 q 525 1326 511 1329 l 708 1238 q 732 1194 732 1225 q 715 1149 732 1171 q 676 1126 699 1126 q 657 1132 671 1126 l 476 1219 q 451 1261 451 1231 z "},"ẁ":{"ha":963,"x_min":10,"x_max":953,"o":"m 10 593 q 49 645 10 624 q 126 667 88 667 q 178 638 167 667 l 317 243 l 421 586 q 482 622 432 622 q 543 586 532 622 l 646 242 l 786 638 q 838 667 797 667 q 914 644 875 667 q 953 592 953 622 q 947 567 953 576 l 733 17 q 663 -15 721 -15 q 589 17 601 -15 l 482 319 l 376 18 q 300 -15 364 -15 q 231 18 243 -15 l 17 567 q 10 593 10 581 m 308 924 q 325 970 308 949 q 364 992 342 992 q 382 989 368 992 l 565 900 q 589 857 589 889 q 572 811 589 833 q 533 789 556 789 q 514 794 528 789 l 333 882 q 308 924 308 893 z "},"Ẃ":{"ha":1226,"x_min":13,"x_max":1214,"o":"m 13 943 q 50 994 13 972 q 128 1015 88 1015 q 188 979 178 1015 l 407 226 l 525 710 q 614 760 538 760 q 701 710 689 760 l 819 226 l 1039 979 q 1099 1015 1049 1015 q 1176 994 1139 1015 q 1214 943 1214 972 q 1211 926 1214 935 l 936 53 q 818 -8 915 -8 q 743 8 776 -8 q 703 53 710 24 l 614 428 l 524 53 q 483 8 517 24 q 408 -8 450 -8 q 332 8 365 -8 q 290 53 299 24 l 15 926 q 13 943 13 935 m 496 1194 q 519 1238 496 1225 l 703 1326 q 721 1329 717 1329 q 760 1308 743 1329 q 776 1261 776 1286 q 751 1219 776 1231 l 571 1132 q 551 1126 557 1126 q 513 1149 529 1126 q 496 1194 496 1171 z "},"ẃ":{"ha":963,"x_min":10,"x_max":953,"o":"m 10 593 q 49 645 10 624 q 126 667 88 667 q 178 638 167 667 l 317 243 l 421 586 q 482 622 432 622 q 543 586 532 622 l 646 242 l 786 638 q 838 667 797 667 q 914 644 875 667 q 953 592 953 622 q 947 567 953 576 l 733 17 q 663 -15 721 -15 q 589 17 601 -15 l 482 319 l 376 18 q 300 -15 364 -15 q 231 18 243 -15 l 17 567 q 10 593 10 581 m 374 857 q 397 900 374 889 l 581 989 q 599 992 594 992 q 638 970 621 992 q 654 924 654 949 q 629 882 654 893 l 449 794 q 429 789 435 789 q 390 811 407 789 q 374 857 374 833 z "},"Ẅ":{"ha":1226,"x_min":13,"x_max":1214,"o":"m 13 943 q 50 994 13 972 q 128 1015 88 1015 q 188 979 178 1015 l 407 226 l 525 710 q 614 760 538 760 q 701 710 689 760 l 819 226 l 1039 979 q 1099 1015 1049 1015 q 1176 994 1139 1015 q 1214 943 1214 972 q 1211 926 1214 935 l 936 53 q 818 -8 915 -8 q 743 8 776 -8 q 703 53 710 24 l 614 428 l 524 53 q 483 8 517 24 q 408 -8 450 -8 q 332 8 365 -8 q 290 53 299 24 l 15 926 q 13 943 13 935 m 460 1161 q 449 1172 460 1161 q 439 1213 439 1183 q 460 1263 439 1242 q 510 1285 481 1285 q 559 1263 539 1285 q 579 1213 579 1242 q 559 1161 579 1183 q 510 1139 539 1139 q 460 1161 481 1139 m 667 1161 q 657 1172 667 1161 q 646 1213 646 1183 q 667 1263 646 1242 q 718 1285 688 1285 q 767 1263 746 1285 q 788 1213 788 1242 q 767 1161 788 1183 q 718 1139 746 1139 q 667 1161 689 1139 z "},"ẅ":{"ha":963,"x_min":10,"x_max":953,"o":"m 10 593 q 49 645 10 624 q 126 667 88 667 q 178 638 167 667 l 317 243 l 421 586 q 482 622 432 622 q 543 586 532 622 l 646 242 l 786 638 q 838 667 797 667 q 914 644 875 667 q 953 592 953 622 q 947 567 953 576 l 733 17 q 663 -15 721 -15 q 589 17 601 -15 l 482 319 l 376 18 q 300 -15 364 -15 q 231 18 243 -15 l 17 567 q 10 593 10 581 m 329 824 q 319 835 329 824 q 308 875 308 846 q 329 926 308 904 q 379 947 350 947 q 428 926 408 947 q 449 875 449 904 q 428 824 449 846 q 379 801 408 801 q 329 824 350 801 m 537 824 q 526 835 537 824 q 515 875 515 846 q 536 926 515 904 q 588 947 557 947 q 636 926 615 947 q 657 875 657 904 q 636 824 657 846 q 588 801 615 801 q 537 824 558 801 z "},"Ỳ":{"ha":797,"x_min":13,"x_max":785,"o":"m 13 940 q 52 993 13 971 q 132 1015 92 1015 q 188 979 169 1015 l 399 578 l 611 979 q 665 1015 631 1015 q 745 993 706 1015 q 785 940 785 971 q 781 922 785 929 l 494 425 q 489 407 489 417 l 489 57 q 463 15 489 31 q 399 0 436 0 q 335 15 363 0 q 308 57 308 31 l 308 407 q 304 425 308 419 l 17 922 q 13 940 13 933 m 236 1261 q 253 1308 236 1286 q 292 1329 269 1329 q 310 1326 296 1329 l 493 1238 q 517 1194 517 1225 q 500 1149 517 1171 q 461 1126 483 1126 q 442 1132 456 1126 l 261 1219 q 236 1261 236 1231 z "},"ỳ":{"ha":661,"x_min":8,"x_max":650,"o":"m 8 -231 q 54 -156 8 -156 q 183 -108 119 -156 q 253 49 246 -61 l 14 560 q 8 583 8 574 q 49 643 8 617 q 128 669 90 669 q 179 639 169 669 l 346 224 l 481 639 q 528 669 490 669 q 607 642 564 669 q 650 581 650 615 q 646 560 650 569 l 443 42 l 419 -19 q 395 -85 403 -67 q 369 -141 388 -103 q 335 -197 350 -179 q 294 -240 321 -214 q 241 -277 268 -265 q 175 -298 214 -289 q 90 -307 136 -307 q 29 -292 50 -307 q 8 -231 8 -276 m 157 924 q 174 970 157 949 q 213 992 190 992 q 231 989 217 992 l 414 900 q 438 857 438 889 q 421 811 438 833 q 382 789 404 789 q 363 794 376 789 l 182 882 q 157 924 157 893 z "},"–":{"ha":657,"x_min":50,"x_max":608,"o":"m 50 333 q 65 387 50 365 q 106 408 81 408 l 550 408 q 590 386 572 408 q 608 333 608 364 q 591 281 608 301 q 550 260 574 260 l 106 260 q 65 280 81 260 q 50 333 50 300 z "},"—":{"ha":1047,"x_min":50,"x_max":997,"o":"m 50 333 q 65 387 50 365 q 106 408 81 408 l 940 408 q 980 386 963 408 q 997 333 997 364 q 980 281 997 301 q 940 260 963 260 l 106 260 q 65 280 81 260 q 50 333 50 300 z "},"‘":{"ha":256,"x_min":31,"x_max":218,"o":"m 31 803 q 108 1007 31 828 q 144 1029 118 1029 q 185 1016 165 1029 q 204 982 204 1003 q 200 963 204 975 l 167 889 q 218 804 218 861 q 191 738 218 765 q 125 710 164 710 q 58 738 86 710 q 31 803 31 765 z "},"’":{"ha":254,"x_min":39,"x_max":226,"o":"m 39 935 q 66 1001 39 974 q 132 1029 93 1029 q 199 1001 171 1029 q 226 936 226 974 q 149 732 226 911 q 113 710 139 710 q 72 723 92 710 q 53 757 53 736 q 58 776 53 767 l 90 850 q 39 935 39 878 z "},"‚":{"ha":268,"x_min":40,"x_max":228,"o":"m 40 86 q 67 153 40 125 q 133 181 94 181 q 200 153 172 181 q 228 88 228 125 q 150 -115 228 63 q 114 -139 140 -139 q 73 -126 92 -139 q 54 -92 54 -112 q 58 -72 54 -83 l 92 1 q 40 86 40 29 z "},"“":{"ha":514,"x_min":31,"x_max":476,"o":"m 31 803 q 108 1007 31 828 q 144 1029 118 1029 q 185 1016 167 1029 q 204 982 204 1003 q 200 963 204 975 l 167 889 q 218 804 218 861 q 191 738 218 765 q 125 710 164 710 q 58 738 86 710 q 31 803 31 765 m 289 803 q 367 1007 289 828 q 403 1029 376 1029 q 443 1016 424 1029 q 463 982 463 1003 q 457 963 463 974 l 425 889 q 476 804 476 861 q 449 738 476 765 q 383 710 422 710 q 317 738 344 710 q 289 803 289 765 z "},"”":{"ha":513,"x_min":39,"x_max":485,"o":"m 39 935 q 66 1001 39 974 q 132 1029 93 1029 q 199 1001 171 1029 q 226 936 226 974 q 149 732 226 911 q 113 710 139 710 q 72 723 92 710 q 53 757 53 736 q 58 776 53 767 l 90 850 q 39 935 39 878 m 297 935 q 324 1001 297 974 q 390 1029 351 1029 q 457 1001 429 1029 q 485 936 485 974 q 407 732 485 911 q 371 710 397 710 q 330 723 349 710 q 311 757 311 736 q 315 776 311 767 l 349 850 q 297 935 297 878 z "},"„":{"ha":526,"x_min":40,"x_max":486,"o":"m 40 86 q 67 153 40 125 q 133 181 94 181 q 200 153 172 181 q 228 88 228 125 q 150 -115 228 63 q 114 -139 140 -139 q 73 -126 92 -139 q 54 -92 54 -112 q 58 -72 54 -83 l 92 1 q 40 86 40 29 m 297 86 q 325 153 297 125 q 392 181 353 181 q 458 153 431 181 q 486 88 486 125 q 408 -115 486 63 q 371 -139 397 -139 q 331 -126 350 -139 q 313 -92 313 -112 q 317 -72 313 -79 l 350 1 q 297 86 297 29 z "},"†":{"ha":613,"x_min":28,"x_max":586,"o":"m 28 631 q 43 681 28 660 q 83 701 58 701 l 215 693 l 215 960 q 242 999 215 982 q 306 1015 268 1015 q 368 999 340 1015 q 396 960 396 982 l 396 693 l 528 701 q 568 681 550 701 q 586 631 586 660 q 568 581 586 600 q 528 561 550 561 l 396 569 l 396 38 q 368 -9 396 11 q 306 -29 340 -29 q 242 -9 268 -29 q 215 38 215 11 l 215 569 l 83 561 q 43 581 58 561 q 28 631 28 600 z "},"‡":{"ha":624,"x_min":33,"x_max":590,"o":"m 33 335 q 49 385 33 364 q 89 406 64 406 l 221 397 l 221 569 l 89 561 q 49 581 64 561 q 33 631 33 600 q 49 681 33 660 q 89 701 64 701 l 221 693 l 221 960 q 247 999 221 982 q 311 1015 274 1015 q 373 999 344 1015 q 401 960 401 982 l 401 693 l 533 701 q 573 681 556 701 q 590 631 590 660 q 573 581 590 600 q 533 561 556 561 l 401 569 l 401 397 l 533 406 q 573 385 556 406 q 590 335 590 364 q 573 285 590 304 q 533 265 556 265 l 401 274 l 401 38 q 373 -9 401 11 q 311 -29 344 -29 q 247 -9 274 -29 q 221 38 221 11 l 221 274 l 89 265 q 49 284 64 265 q 33 335 33 303 z "},"•":{"ha":457,"x_min":46,"x_max":411,"o":"m 46 417 q 101 539 46 486 q 229 592 156 592 q 356 539 301 592 q 411 417 411 486 q 357 293 411 346 q 229 240 303 240 q 101 293 156 240 q 46 417 46 346 z "},"…":{"ha":799,"x_min":39,"x_max":760,"o":"m 66 19 q 52 33 66 19 q 39 86 39 47 q 66 153 39 125 q 133 181 93 181 q 199 153 171 181 q 226 86 226 125 q 199 20 226 49 q 133 -8 171 -8 q 66 19 93 -8 m 334 19 q 320 33 334 19 q 307 86 307 47 q 334 153 307 125 q 401 181 361 181 q 467 153 439 181 q 494 86 494 125 q 467 20 494 49 q 401 -8 439 -8 q 334 19 361 -8 m 599 19 q 586 33 599 19 q 572 86 572 47 q 599 153 572 125 q 667 181 626 181 q 732 153 704 181 q 760 86 760 125 q 732 20 760 49 q 667 -8 704 -8 q 599 19 626 -8 z "},"‰":{"ha":1561,"x_min":35,"x_max":1526,"o":"m 35 635 l 35 836 q 89 972 35 929 q 233 1015 143 1015 q 377 972 324 1015 q 431 836 431 929 l 431 635 q 377 499 431 542 q 233 456 324 456 q 89 499 143 456 q 35 635 35 542 m 156 635 q 233 560 156 560 q 313 635 313 560 l 313 836 q 233 911 313 911 q 156 836 156 911 l 156 635 m 238 6 q 243 29 238 15 l 743 1042 q 793 1071 758 1071 q 841 1053 819 1071 q 863 1008 863 1035 q 857 983 863 994 l 357 -25 q 303 -56 344 -56 q 256 -37 275 -56 q 238 6 238 -18 m 661 175 l 661 376 q 715 513 661 469 q 860 556 769 556 q 1003 513 950 556 q 1057 376 1057 469 l 1057 175 q 1003 39 1057 82 q 860 -4 950 -4 q 661 175 661 -4 m 782 175 q 860 100 782 100 q 939 175 939 100 l 939 376 q 860 451 939 451 q 782 376 782 451 l 782 175 m 1131 175 l 1131 376 q 1185 513 1131 469 q 1329 556 1239 556 q 1473 513 1419 556 q 1526 376 1526 469 l 1526 175 q 1473 39 1526 82 q 1329 -4 1419 -4 q 1131 175 1131 -4 m 1251 175 q 1329 100 1251 100 q 1408 175 1408 100 l 1408 376 q 1329 451 1408 451 q 1251 376 1251 451 l 1251 175 z "},"‹":{"ha":378,"x_min":33,"x_max":329,"o":"m 37 365 q 35 369 37 365 q 33 383 33 374 q 37 402 33 393 q 50 428 40 411 l 65 454 l 167 643 q 218 667 179 667 q 294 636 260 667 q 329 576 329 606 q 325 560 329 567 l 232 385 l 325 211 q 329 193 329 203 q 294 133 329 163 q 217 103 260 103 q 167 126 179 103 l 65 315 q 50 342 60 326 q 37 365 40 357 z "},"›":{"ha":378,"x_min":49,"x_max":344,"o":"m 49 193 q 53 211 49 203 l 146 385 l 53 560 q 49 576 49 567 q 83 637 49 607 q 160 667 117 667 q 210 643 199 667 l 313 454 l 328 428 q 341 402 338 411 q 344 383 344 393 q 341 365 344 374 q 328 342 338 357 q 313 315 318 326 l 210 126 q 160 103 199 103 q 83 133 117 103 q 49 193 49 163 z "},"⁄":{"ha":258,"x_min":-183,"x_max":442,"o":"m -183 6 q -178 29 -183 15 l 322 1042 q 372 1071 336 1071 q 419 1053 397 1071 q 442 1008 442 1035 q 436 983 442 994 l -64 -25 q -118 -56 -76 -56 q -165 -37 -146 -56 q -183 6 -183 -18 z "},"⁰":{"ha":485,"x_min":44,"x_max":440,"o":"m 44 635 l 44 836 q 99 972 44 929 q 243 1015 153 1015 q 387 972 333 1015 q 440 836 440 929 l 440 635 q 387 499 440 542 q 243 456 333 456 q 99 499 153 456 q 44 635 44 542 m 165 635 q 243 560 165 560 q 322 635 322 560 l 322 836 q 243 911 322 911 q 165 836 165 911 l 165 635 z "},"⁴":{"ha":440,"x_min":6,"x_max":432,"o":"m 6 618 q 11 640 6 629 l 203 985 q 253 1015 219 1015 q 292 1003 271 1015 q 313 971 313 990 q 308 956 313 964 l 158 688 l 239 688 l 239 739 q 257 766 239 757 q 299 775 275 775 q 360 739 360 775 l 360 688 l 396 688 q 432 632 432 688 q 421 595 432 613 q 396 578 410 578 l 360 578 l 360 497 q 342 469 360 479 q 299 460 324 460 q 257 469 275 460 q 239 497 239 479 l 239 578 l 44 578 q 6 618 6 578 z "},"⁵":{"ha":449,"x_min":25,"x_max":419,"o":"m 25 596 q 39 638 25 626 q 83 650 53 650 q 132 639 119 650 q 144 606 144 628 q 219 560 144 560 q 300 631 300 560 l 300 646 q 222 718 300 718 l 99 718 q 53 765 53 718 q 54 792 53 781 l 74 979 q 97 1015 78 1015 l 354 1015 q 390 964 390 1015 q 354 911 390 911 l 174 911 l 164 811 l 222 811 q 366 772 313 811 q 419 646 419 732 l 419 631 q 365 498 419 540 q 224 456 311 456 q 78 497 131 456 q 25 596 25 539 z "},"⁶":{"ha":478,"x_min":44,"x_max":440,"o":"m 44 635 l 44 836 q 100 972 44 929 q 249 1015 156 1015 q 392 972 343 1015 q 440 874 440 928 q 428 835 440 846 q 385 825 415 825 q 322 868 322 825 q 246 911 322 911 q 165 836 165 911 l 165 768 q 269 801 197 801 q 440 642 440 801 l 440 633 q 387 499 440 542 q 243 456 333 456 q 44 635 44 456 m 165 626 q 243 551 165 551 q 321 626 321 551 l 321 633 q 242 710 321 710 q 165 640 165 710 l 165 626 z "},"⁷":{"ha":436,"x_min":22,"x_max":418,"o":"m 22 861 l 22 979 q 39 1004 22 993 q 75 1015 56 1015 l 365 1015 q 401 1004 383 1015 q 418 979 418 993 l 418 883 q 394 811 418 853 l 196 472 q 161 456 188 456 q 109 473 132 456 q 86 515 86 490 q 90 535 86 526 l 299 858 l 299 911 l 142 911 l 142 861 q 124 835 142 846 q 82 825 106 825 q 40 835 57 825 q 22 861 22 846 z "},"⁸":{"ha":464,"x_min":33,"x_max":429,"o":"m 33 613 l 33 622 q 133 764 33 732 q 53 881 53 790 q 101 982 53 949 q 232 1015 150 1015 q 362 982 314 1015 q 410 881 410 949 q 329 764 410 789 q 429 622 429 732 l 429 613 q 375 494 429 532 q 232 456 321 456 q 88 494 143 456 q 33 613 33 532 m 153 626 q 232 550 153 550 q 310 626 310 550 l 310 643 q 232 715 310 715 q 153 643 153 715 l 153 626 m 168 865 q 232 811 168 811 q 294 865 294 811 q 232 921 294 921 q 168 865 168 921 z "},"⁹":{"ha":478,"x_min":38,"x_max":433,"o":"m 38 599 q 51 635 38 625 q 93 646 64 646 q 156 603 156 646 q 232 560 156 560 q 314 635 314 560 l 314 703 q 208 669 281 669 q 38 829 38 669 l 38 838 q 91 972 38 929 q 235 1015 144 1015 q 379 972 325 1015 q 433 836 433 929 l 433 635 q 378 499 433 542 q 228 456 322 456 q 86 500 135 456 q 38 599 38 544 m 157 836 q 236 761 157 761 q 314 831 314 761 l 314 844 q 235 919 314 919 q 157 844 157 919 l 157 836 z "}}}
